<svg xmlns="http://www.w3.org/2000/svg" xmlns:xlink="http://www.w3.org/1999/xlink" width="500" zoomAndPan="magnify" viewBox="0 0 375 374.999991" height="500" preserveAspectRatio="xMidYMid meet" version="1.0"><defs><g/><clipPath id="id1"><path d="M 150 117.730469 L 225 117.730469 L 225 162 L 150 162 Z M 150 117.730469 " clip-rule="nonzero"/></clipPath><clipPath id="id2"><path d="M 187 164 L 252.707031 164 L 252.707031 197.230469 L 187 197.230469 Z M 187 164 " clip-rule="nonzero"/></clipPath><clipPath id="id3"><path d="M 122.210938 164 L 188 164 L 188 197.230469 L 122.210938 197.230469 Z M 122.210938 164 " clip-rule="nonzero"/></clipPath></defs><rect x="-37.5" width="450" fill="#ffffff" y="-37.499999" height="449.999989" fill-opacity="1"/><rect x="-37.5" width="450" fill="#ffffff" y="-37.499999" height="449.999989" fill-opacity="1"/><rect x="-37.5" width="450" fill="#ffffff" y="-37.499999" height="449.999989" fill-opacity="1"/><g fill="#000000" fill-opacity="1"><g transform="translate(37.590306, 229.52975)"><g><path d="M 2.078125 0 C 1.898438 0 1.765625 -0.0625 1.671875 -0.1875 C 1.585938 -0.3125 1.546875 -0.472656 1.546875 -0.671875 C 1.546875 -0.984375 1.648438 -1.21875 1.859375 -1.375 C 2.078125 -1.539062 2.375 -1.625 2.75 -1.625 L 3.453125 -1.625 L 3.453125 -17.015625 L 2.734375 -17.1875 C 2.296875 -17.269531 1.976562 -17.390625 1.78125 -17.546875 C 1.582031 -17.710938 1.484375 -17.941406 1.484375 -18.234375 C 1.484375 -18.597656 1.628906 -18.78125 1.921875 -18.78125 L 10.078125 -18.78125 C 11.960938 -18.78125 13.476562 -18.285156 14.625 -17.296875 C 15.769531 -16.316406 16.34375 -14.945312 16.34375 -13.1875 C 16.34375 -11.4375 15.769531 -10.070312 14.625 -9.09375 C 13.476562 -8.113281 11.960938 -7.625 10.078125 -7.625 L 6.15625 -7.625 L 6.15625 -1.59375 L 7.421875 -1.25 C 7.785156 -1.15625 8.039062 -1.039062 8.1875 -0.90625 C 8.34375 -0.769531 8.421875 -0.601562 8.421875 -0.40625 C 8.421875 -0.132812 8.296875 0 8.046875 0 Z M 9.890625 -9.40625 C 11.078125 -9.40625 12 -9.75 12.65625 -10.4375 C 13.3125 -11.132812 13.640625 -12.050781 13.640625 -13.1875 C 13.640625 -14.332031 13.3125 -15.253906 12.65625 -15.953125 C 12 -16.648438 11.078125 -17 9.890625 -17 L 6.15625 -17 L 6.15625 -9.40625 Z M 9.890625 -9.40625 "/></g></g></g><g fill="#000000" fill-opacity="1"><g transform="translate(55.823835, 229.52975)"><g><path d="M 0.671875 0 C 0.492188 0 0.359375 -0.0625 0.265625 -0.1875 C 0.179688 -0.3125 0.140625 -0.472656 0.140625 -0.671875 C 0.140625 -0.984375 0.242188 -1.21875 0.453125 -1.375 C 0.671875 -1.539062 0.96875 -1.625 1.34375 -1.625 L 2 -1.625 L 8.265625 -18.78125 L 11.296875 -18.78125 L 17.59375 -1.59375 L 18.6875 -1.328125 C 19 -1.253906 19.222656 -1.148438 19.359375 -1.015625 C 19.492188 -0.878906 19.5625 -0.703125 19.5625 -0.484375 C 19.5625 -0.160156 19.441406 0 19.203125 0 L 13.1875 0 C 13 0 12.851562 -0.0625 12.75 -0.1875 C 12.65625 -0.3125 12.609375 -0.472656 12.609375 -0.671875 C 12.609375 -0.984375 12.71875 -1.21875 12.9375 -1.375 C 13.15625 -1.539062 13.453125 -1.625 13.828125 -1.625 L 14.828125 -1.625 L 13.265625 -5.921875 L 5.59375 -5.921875 L 4.046875 -1.59375 L 5.625 -1.21875 C 5.957031 -1.144531 6.191406 -1.046875 6.328125 -0.921875 C 6.460938 -0.796875 6.53125 -0.632812 6.53125 -0.4375 C 6.53125 -0.144531 6.414062 0 6.1875 0 Z M 12.609375 -7.671875 L 9.421875 -16.5 L 6.234375 -7.671875 Z M 12.609375 -7.671875 "/></g></g></g><g fill="#000000" fill-opacity="1"><g transform="translate(76.677499, 229.52975)"><g><path d="M 5.5625 0 C 5.382812 0 5.25 -0.0625 5.15625 -0.1875 C 5.070312 -0.3125 5.03125 -0.472656 5.03125 -0.671875 C 5.03125 -0.984375 5.132812 -1.21875 5.34375 -1.375 C 5.5625 -1.539062 5.859375 -1.625 6.234375 -1.625 L 6.921875 -1.625 L 6.921875 -17 L 2.546875 -17 L 2.21875 -15.609375 C 2.101562 -15.203125 1.988281 -14.90625 1.875 -14.71875 C 1.757812 -14.539062 1.582031 -14.453125 1.34375 -14.453125 C 0.988281 -14.453125 0.8125 -14.613281 0.8125 -14.9375 L 0.8125 -18.78125 L 15.75 -18.78125 L 15.75 -14.9375 C 15.75 -14.613281 15.566406 -14.453125 15.203125 -14.453125 C 14.972656 -14.453125 14.789062 -14.550781 14.65625 -14.75 C 14.519531 -14.945312 14.40625 -15.234375 14.3125 -15.609375 L 14.015625 -17 L 9.625 -17 L 9.625 -1.59375 L 10.890625 -1.25 C 11.460938 -1.101562 11.75 -0.820312 11.75 -0.40625 C 11.75 -0.132812 11.625 0 11.375 0 Z M 5.5625 0 "/></g></g></g><g fill="#000000" fill-opacity="1"><g transform="translate(94.397807, 229.52975)"><g><path d="M 1.921875 0 C 1.628906 0 1.484375 -0.179688 1.484375 -0.546875 C 1.484375 -1.097656 1.898438 -1.457031 2.734375 -1.625 L 3.453125 -1.75 L 3.453125 -17.015625 L 2.734375 -17.15625 C 2.296875 -17.226562 1.976562 -17.351562 1.78125 -17.53125 C 1.582031 -17.707031 1.484375 -17.941406 1.484375 -18.234375 C 1.484375 -18.597656 1.628906 -18.78125 1.921875 -18.78125 L 16.640625 -18.78125 L 16.640625 -15 C 16.640625 -14.6875 16.488281 -14.53125 16.1875 -14.53125 C 15.96875 -14.53125 15.785156 -14.640625 15.640625 -14.859375 C 15.492188 -15.078125 15.367188 -15.421875 15.265625 -15.890625 L 15 -17.046875 L 6.15625 -17.046875 L 6.15625 -10.453125 L 13.421875 -10.453125 L 13.78125 -11.609375 C 13.957031 -12.148438 14.191406 -12.421875 14.484375 -12.421875 C 14.765625 -12.421875 14.90625 -12.285156 14.90625 -12.015625 L 14.90625 -7.1875 C 14.90625 -6.914062 14.765625 -6.78125 14.484375 -6.78125 C 14.191406 -6.78125 13.957031 -7.050781 13.78125 -7.59375 L 13.421875 -8.75 L 6.15625 -8.75 L 6.15625 -1.734375 L 15.375 -1.734375 L 15.640625 -2.96875 C 15.742188 -3.4375 15.867188 -3.773438 16.015625 -3.984375 C 16.160156 -4.191406 16.332031 -4.296875 16.53125 -4.296875 C 16.84375 -4.296875 17 -4.144531 17 -3.84375 L 17 0 Z M 1.921875 0 "/></g></g></g><g fill="#000000" fill-opacity="1"><g transform="translate(114.387098, 229.52975)"><g><path d="M 1.921875 0 C 1.628906 0 1.484375 -0.179688 1.484375 -0.546875 C 1.484375 -0.828125 1.582031 -1.054688 1.78125 -1.234375 C 1.976562 -1.421875 2.296875 -1.550781 2.734375 -1.625 L 3.453125 -1.75 L 3.453125 -17.15625 L 2.078125 -17.15625 C 1.898438 -17.15625 1.765625 -17.21875 1.671875 -17.34375 C 1.585938 -17.46875 1.546875 -17.640625 1.546875 -17.859375 C 1.546875 -18.148438 1.648438 -18.375 1.859375 -18.53125 C 2.078125 -18.695312 2.375 -18.78125 2.75 -18.78125 L 8.046875 -18.78125 C 8.296875 -18.78125 8.421875 -18.644531 8.421875 -18.375 C 8.421875 -17.957031 8.132812 -17.675781 7.5625 -17.53125 L 6.15625 -17.1875 L 6.15625 -1.78125 L 14.296875 -1.78125 L 14.75 -3.453125 C 14.875 -3.921875 15.003906 -4.257812 15.140625 -4.46875 C 15.273438 -4.675781 15.441406 -4.78125 15.640625 -4.78125 C 15.941406 -4.78125 16.09375 -4.628906 16.09375 -4.328125 L 16.09375 0 Z M 1.921875 0 "/></g></g></g><g fill="#000000" fill-opacity="1"><g transform="translate(132.107404, 229.52975)"><g/></g></g><g fill="#000000" fill-opacity="1"><g transform="translate(140.940886, 229.52975)"><g><path d="M 2.078125 -17.15625 L 0.75 -17.15625 C 0.570312 -17.15625 0.4375 -17.21875 0.34375 -17.34375 C 0.257812 -17.46875 0.21875 -17.640625 0.21875 -17.859375 C 0.21875 -18.148438 0.320312 -18.375 0.53125 -18.53125 C 0.75 -18.695312 1.050781 -18.78125 1.4375 -18.78125 L 6.9375 -18.78125 C 7.195312 -18.78125 7.328125 -18.644531 7.328125 -18.375 C 7.328125 -17.914062 6.992188 -17.617188 6.328125 -17.484375 L 4.96875 -17.1875 L 9.71875 -3.34375 C 9.832031 -3.019531 9.925781 -2.691406 10 -2.359375 C 10.070312 -2.023438 10.113281 -1.816406 10.125 -1.734375 L 10.265625 -1.734375 C 10.285156 -1.816406 10.328125 -2.023438 10.390625 -2.359375 C 10.453125 -2.691406 10.546875 -3.019531 10.671875 -3.34375 L 15.59375 -17.15625 L 13.96875 -17.15625 C 13.789062 -17.15625 13.648438 -17.21875 13.546875 -17.34375 C 13.453125 -17.46875 13.40625 -17.640625 13.40625 -17.859375 C 13.40625 -18.148438 13.507812 -18.375 13.71875 -18.53125 C 13.9375 -18.695312 14.234375 -18.78125 14.609375 -18.78125 L 19.453125 -18.78125 C 19.703125 -18.78125 19.828125 -18.644531 19.828125 -18.375 C 19.828125 -18.03125 19.578125 -17.769531 19.078125 -17.59375 L 17.6875 -17.15625 L 11.484375 0 L 8.234375 0 Z M 2.078125 -17.15625 "/></g></g></g><g fill="#000000" fill-opacity="1"><g transform="translate(162.172707, 229.52975)"><g><path d="M 2.15625 0 C 1.976562 0 1.84375 -0.0625 1.75 -0.1875 C 1.664062 -0.3125 1.625 -0.472656 1.625 -0.671875 C 1.625 -0.984375 1.726562 -1.21875 1.9375 -1.375 C 2.15625 -1.539062 2.457031 -1.625 2.84375 -1.625 L 3.515625 -1.625 L 3.515625 -17.15625 L 2.15625 -17.15625 C 1.976562 -17.15625 1.84375 -17.21875 1.75 -17.34375 C 1.664062 -17.46875 1.625 -17.640625 1.625 -17.859375 C 1.625 -18.148438 1.726562 -18.375 1.9375 -18.53125 C 2.15625 -18.695312 2.457031 -18.78125 2.84375 -18.78125 L 7.96875 -18.78125 C 8.21875 -18.78125 8.34375 -18.644531 8.34375 -18.375 C 8.34375 -17.957031 8.054688 -17.675781 7.484375 -17.53125 L 6.21875 -17.1875 L 6.21875 -1.59375 L 7.484375 -1.25 C 8.054688 -1.101562 8.34375 -0.820312 8.34375 -0.40625 C 8.34375 -0.132812 8.21875 0 7.96875 0 Z M 2.15625 0 "/></g></g></g><g fill="#000000" fill-opacity="1"><g transform="translate(173.302177, 229.52975)"><g><path d="M 1.921875 0 C 1.628906 0 1.484375 -0.179688 1.484375 -0.546875 C 1.484375 -1.097656 1.898438 -1.457031 2.734375 -1.625 L 3.453125 -1.75 L 3.453125 -17.015625 L 2.734375 -17.15625 C 1.898438 -17.3125 1.484375 -17.671875 1.484375 -18.234375 C 1.484375 -18.597656 1.628906 -18.78125 1.921875 -18.78125 L 9.9375 -18.78125 C 11.664062 -18.78125 13.207031 -18.4375 14.5625 -17.75 C 15.925781 -17.0625 17.003906 -16.007812 17.796875 -14.59375 C 18.585938 -13.1875 18.984375 -11.4375 18.984375 -9.34375 C 18.984375 -7.257812 18.585938 -5.519531 17.796875 -4.125 C 17.003906 -2.726562 15.925781 -1.691406 14.5625 -1.015625 C 13.207031 -0.335938 11.664062 0 9.9375 0 Z M 9.9375 -1.78125 C 11.9375 -1.78125 13.484375 -2.441406 14.578125 -3.765625 C 15.679688 -5.085938 16.234375 -6.945312 16.234375 -9.34375 C 16.234375 -11.757812 15.679688 -13.640625 14.578125 -14.984375 C 13.484375 -16.328125 11.9375 -17 9.9375 -17 L 6.15625 -17 L 6.15625 -1.78125 Z M 9.9375 -1.78125 "/></g></g></g><g fill="#000000" fill-opacity="1"><g transform="translate(194.66905, 229.52975)"><g><path d="M 2.03125 0 C 1.84375 0 1.703125 -0.0625 1.609375 -0.1875 C 1.523438 -0.3125 1.484375 -0.472656 1.484375 -0.671875 C 1.484375 -0.984375 1.59375 -1.21875 1.8125 -1.375 C 2.03125 -1.539062 2.328125 -1.625 2.703125 -1.625 L 3.375 -1.625 L 3.375 -17.15625 L 2.03125 -17.15625 C 1.84375 -17.15625 1.703125 -17.21875 1.609375 -17.34375 C 1.523438 -17.46875 1.484375 -17.640625 1.484375 -17.859375 C 1.484375 -18.148438 1.59375 -18.375 1.8125 -18.53125 C 2.03125 -18.695312 2.328125 -18.78125 2.703125 -18.78125 L 7.828125 -18.78125 C 8.085938 -18.78125 8.21875 -18.644531 8.21875 -18.375 C 8.21875 -17.976562 7.925781 -17.695312 7.34375 -17.53125 L 6.078125 -17.1875 L 6.078125 -10.640625 L 15.828125 -10.640625 L 15.828125 -17.15625 L 14.34375 -17.15625 C 14.164062 -17.15625 14.03125 -17.21875 13.9375 -17.34375 C 13.851562 -17.46875 13.8125 -17.640625 13.8125 -17.859375 C 13.8125 -18.148438 13.914062 -18.375 14.125 -18.53125 C 14.34375 -18.695312 14.640625 -18.78125 15.015625 -18.78125 L 20.15625 -18.78125 C 20.382812 -18.78125 20.5 -18.644531 20.5 -18.375 C 20.5 -18.175781 20.445312 -18.015625 20.34375 -17.890625 C 20.238281 -17.773438 20.054688 -17.675781 19.796875 -17.59375 L 18.53125 -17.1875 L 18.53125 -1.59375 L 19.796875 -1.1875 C 20.054688 -1.09375 20.238281 -0.988281 20.34375 -0.875 C 20.445312 -0.757812 20.5 -0.601562 20.5 -0.40625 C 20.5 -0.132812 20.382812 0 20.15625 0 L 14.34375 0 C 14.164062 0 14.03125 -0.0625 13.9375 -0.1875 C 13.851562 -0.3125 13.8125 -0.472656 13.8125 -0.671875 C 13.8125 -0.984375 13.914062 -1.21875 14.125 -1.375 C 14.34375 -1.539062 14.640625 -1.625 15.015625 -1.625 L 15.828125 -1.625 L 15.828125 -8.859375 L 6.078125 -8.859375 L 6.078125 -1.59375 L 7.34375 -1.25 C 7.925781 -1.101562 8.21875 -0.820312 8.21875 -0.40625 C 8.21875 -0.132812 8.085938 0 7.828125 0 Z M 2.03125 0 "/></g></g></g><g fill="#000000" fill-opacity="1"><g transform="translate(217.845703, 229.52975)"><g><path d="M 6.640625 0 C 6.460938 0 6.328125 -0.0625 6.234375 -0.1875 C 6.148438 -0.3125 6.109375 -0.472656 6.109375 -0.671875 C 6.109375 -0.984375 6.210938 -1.21875 6.421875 -1.375 C 6.640625 -1.539062 6.941406 -1.625 7.328125 -1.625 L 8 -1.625 L 8 -7.859375 L 2.046875 -17.15625 L 0.78125 -17.15625 C 0.601562 -17.15625 0.46875 -17.21875 0.375 -17.34375 C 0.289062 -17.46875 0.25 -17.640625 0.25 -17.859375 C 0.25 -18.148438 0.351562 -18.375 0.5625 -18.53125 C 0.78125 -18.695312 1.078125 -18.78125 1.453125 -18.78125 L 7.234375 -18.78125 C 7.492188 -18.78125 7.625 -18.632812 7.625 -18.34375 C 7.625 -17.875 7.328125 -17.585938 6.734375 -17.484375 L 5.296875 -17.1875 L 9.8125 -10.078125 L 14.5625 -17.15625 L 13.125 -17.15625 C 12.945312 -17.15625 12.8125 -17.21875 12.71875 -17.34375 C 12.632812 -17.46875 12.59375 -17.640625 12.59375 -17.859375 C 12.59375 -18.148438 12.691406 -18.375 12.890625 -18.53125 C 13.097656 -18.695312 13.394531 -18.78125 13.78125 -18.78125 L 18.421875 -18.78125 C 18.671875 -18.78125 18.796875 -18.644531 18.796875 -18.375 C 18.796875 -18.03125 18.546875 -17.769531 18.046875 -17.59375 L 16.703125 -17.15625 L 10.703125 -8.21875 L 10.703125 -1.59375 L 11.96875 -1.25 C 12.539062 -1.101562 12.828125 -0.820312 12.828125 -0.40625 C 12.828125 -0.132812 12.703125 0 12.453125 0 Z M 6.640625 0 "/></g></g></g><g fill="#000000" fill-opacity="1"><g transform="translate(238.078101, 229.52975)"><g><path d="M 0.671875 0 C 0.492188 0 0.359375 -0.0625 0.265625 -0.1875 C 0.179688 -0.3125 0.140625 -0.472656 0.140625 -0.671875 C 0.140625 -0.984375 0.242188 -1.21875 0.453125 -1.375 C 0.671875 -1.539062 0.96875 -1.625 1.34375 -1.625 L 2 -1.625 L 8.265625 -18.78125 L 11.296875 -18.78125 L 17.59375 -1.59375 L 18.6875 -1.328125 C 19 -1.253906 19.222656 -1.148438 19.359375 -1.015625 C 19.492188 -0.878906 19.5625 -0.703125 19.5625 -0.484375 C 19.5625 -0.160156 19.441406 0 19.203125 0 L 13.1875 0 C 13 0 12.851562 -0.0625 12.75 -0.1875 C 12.65625 -0.3125 12.609375 -0.472656 12.609375 -0.671875 C 12.609375 -0.984375 12.71875 -1.21875 12.9375 -1.375 C 13.15625 -1.539062 13.453125 -1.625 13.828125 -1.625 L 14.828125 -1.625 L 13.265625 -5.921875 L 5.59375 -5.921875 L 4.046875 -1.59375 L 5.625 -1.21875 C 5.957031 -1.144531 6.191406 -1.046875 6.328125 -0.921875 C 6.460938 -0.796875 6.53125 -0.632812 6.53125 -0.4375 C 6.53125 -0.144531 6.414062 0 6.1875 0 Z M 12.609375 -7.671875 L 9.421875 -16.5 L 6.234375 -7.671875 Z M 12.609375 -7.671875 "/></g></g></g><g fill="#000000" fill-opacity="1"><g transform="translate(258.931775, 229.52975)"><g><path d="M 1.921875 0 C 1.628906 0 1.484375 -0.179688 1.484375 -0.546875 C 1.484375 -0.828125 1.582031 -1.054688 1.78125 -1.234375 C 1.976562 -1.421875 2.296875 -1.550781 2.734375 -1.625 L 3.453125 -1.75 L 3.453125 -17.15625 L 2.078125 -17.15625 C 1.898438 -17.15625 1.765625 -17.21875 1.671875 -17.34375 C 1.585938 -17.46875 1.546875 -17.640625 1.546875 -17.859375 C 1.546875 -18.148438 1.648438 -18.375 1.859375 -18.53125 C 2.078125 -18.695312 2.375 -18.78125 2.75 -18.78125 L 8.046875 -18.78125 C 8.296875 -18.78125 8.421875 -18.644531 8.421875 -18.375 C 8.421875 -17.957031 8.132812 -17.675781 7.5625 -17.53125 L 6.15625 -17.1875 L 6.15625 -1.78125 L 14.296875 -1.78125 L 14.75 -3.453125 C 14.875 -3.921875 15.003906 -4.257812 15.140625 -4.46875 C 15.273438 -4.675781 15.441406 -4.78125 15.640625 -4.78125 C 15.941406 -4.78125 16.09375 -4.628906 16.09375 -4.328125 L 16.09375 0 Z M 1.921875 0 "/></g></g></g><g fill="#000000" fill-opacity="1"><g transform="translate(276.65208, 229.52975)"><g><path d="M 0.671875 0 C 0.492188 0 0.359375 -0.0625 0.265625 -0.1875 C 0.179688 -0.3125 0.140625 -0.472656 0.140625 -0.671875 C 0.140625 -0.984375 0.242188 -1.21875 0.453125 -1.375 C 0.671875 -1.539062 0.96875 -1.625 1.34375 -1.625 L 2 -1.625 L 8.265625 -18.78125 L 11.296875 -18.78125 L 17.59375 -1.59375 L 18.6875 -1.328125 C 19 -1.253906 19.222656 -1.148438 19.359375 -1.015625 C 19.492188 -0.878906 19.5625 -0.703125 19.5625 -0.484375 C 19.5625 -0.160156 19.441406 0 19.203125 0 L 13.1875 0 C 13 0 12.851562 -0.0625 12.75 -0.1875 C 12.65625 -0.3125 12.609375 -0.472656 12.609375 -0.671875 C 12.609375 -0.984375 12.71875 -1.21875 12.9375 -1.375 C 13.15625 -1.539062 13.453125 -1.625 13.828125 -1.625 L 14.828125 -1.625 L 13.265625 -5.921875 L 5.59375 -5.921875 L 4.046875 -1.59375 L 5.625 -1.21875 C 5.957031 -1.144531 6.191406 -1.046875 6.328125 -0.921875 C 6.460938 -0.796875 6.53125 -0.632812 6.53125 -0.4375 C 6.53125 -0.144531 6.414062 0 6.1875 0 Z M 12.609375 -7.671875 L 9.421875 -16.5 L 6.234375 -7.671875 Z M 12.609375 -7.671875 "/></g></g></g><g fill="#000000" fill-opacity="1"><g transform="translate(297.505755, 229.52975)"><g><path d="M 6.640625 0 C 6.460938 0 6.328125 -0.0625 6.234375 -0.1875 C 6.148438 -0.3125 6.109375 -0.472656 6.109375 -0.671875 C 6.109375 -0.984375 6.210938 -1.21875 6.421875 -1.375 C 6.640625 -1.539062 6.941406 -1.625 7.328125 -1.625 L 8 -1.625 L 8 -7.859375 L 2.046875 -17.15625 L 0.78125 -17.15625 C 0.601562 -17.15625 0.46875 -17.21875 0.375 -17.34375 C 0.289062 -17.46875 0.25 -17.640625 0.25 -17.859375 C 0.25 -18.148438 0.351562 -18.375 0.5625 -18.53125 C 0.78125 -18.695312 1.078125 -18.78125 1.453125 -18.78125 L 7.234375 -18.78125 C 7.492188 -18.78125 7.625 -18.632812 7.625 -18.34375 C 7.625 -17.875 7.328125 -17.585938 6.734375 -17.484375 L 5.296875 -17.1875 L 9.8125 -10.078125 L 14.5625 -17.15625 L 13.125 -17.15625 C 12.945312 -17.15625 12.8125 -17.21875 12.71875 -17.34375 C 12.632812 -17.46875 12.59375 -17.640625 12.59375 -17.859375 C 12.59375 -18.148438 12.691406 -18.375 12.890625 -18.53125 C 13.097656 -18.695312 13.394531 -18.78125 13.78125 -18.78125 L 18.421875 -18.78125 C 18.671875 -18.78125 18.796875 -18.644531 18.796875 -18.375 C 18.796875 -18.03125 18.546875 -17.769531 18.046875 -17.59375 L 16.703125 -17.15625 L 10.703125 -8.21875 L 10.703125 -1.59375 L 11.96875 -1.25 C 12.539062 -1.101562 12.828125 -0.820312 12.828125 -0.40625 C 12.828125 -0.132812 12.703125 0 12.453125 0 Z M 6.640625 0 "/></g></g></g><g fill="#000000" fill-opacity="1"><g transform="translate(317.738152, 229.52975)"><g><path d="M 0.671875 0 C 0.492188 0 0.359375 -0.0625 0.265625 -0.1875 C 0.179688 -0.3125 0.140625 -0.472656 0.140625 -0.671875 C 0.140625 -0.984375 0.242188 -1.21875 0.453125 -1.375 C 0.671875 -1.539062 0.96875 -1.625 1.34375 -1.625 L 2 -1.625 L 8.265625 -18.78125 L 11.296875 -18.78125 L 17.59375 -1.59375 L 18.6875 -1.328125 C 19 -1.253906 19.222656 -1.148438 19.359375 -1.015625 C 19.492188 -0.878906 19.5625 -0.703125 19.5625 -0.484375 C 19.5625 -0.160156 19.441406 0 19.203125 0 L 13.1875 0 C 13 0 12.851562 -0.0625 12.75 -0.1875 C 12.65625 -0.3125 12.609375 -0.472656 12.609375 -0.671875 C 12.609375 -0.984375 12.71875 -1.21875 12.9375 -1.375 C 13.15625 -1.539062 13.453125 -1.625 13.828125 -1.625 L 14.828125 -1.625 L 13.265625 -5.921875 L 5.59375 -5.921875 L 4.046875 -1.59375 L 5.625 -1.21875 C 5.957031 -1.144531 6.191406 -1.046875 6.328125 -0.921875 C 6.460938 -0.796875 6.53125 -0.632812 6.53125 -0.4375 C 6.53125 -0.144531 6.414062 0 6.1875 0 Z M 12.609375 -7.671875 L 9.421875 -16.5 L 6.234375 -7.671875 Z M 12.609375 -7.671875 "/></g></g></g><g fill="#000000" fill-opacity="1"><g transform="translate(101.71384, 255.63139)"><g><path d="M 0.890625 -9.421875 L 2.171875 -9.421875 L 3.84375 -1.78125 L 5.515625 -9.421875 L 6.796875 -9.421875 L 6.96875 0 L 5.90625 0 L 5.8125 -6.84375 L 4.21875 0 L 3.46875 0 L 1.890625 -6.84375 L 1.78125 0 L 0.703125 0 Z M 0.890625 -9.421875 "/></g></g></g><g fill="#000000" fill-opacity="1"><g transform="translate(112.514976, 255.63139)"><g><path d="M 2.21875 -9.421875 L 3.484375 -9.421875 L 5.5 0 L 4.265625 0 L 3.828125 -2.375 L 1.90625 -2.375 L 1.453125 0 L 0.21875 0 Z M 3.65625 -3.3125 L 2.859375 -7.5625 L 2.078125 -3.3125 Z M 3.65625 -3.3125 "/></g></g></g><g fill="#000000" fill-opacity="1"><g transform="translate(121.361141, 255.63139)"><g><path d="M 0.734375 -9.421875 L 2.046875 -9.421875 L 2.046875 -5.359375 L 4.46875 -5.359375 L 4.46875 -9.421875 L 5.78125 -9.421875 L 5.78125 0 L 4.46875 0 L 4.46875 -4.40625 L 2.046875 -4.40625 L 2.046875 0 L 0.734375 0 Z M 0.734375 -9.421875 "/></g></g></g><g fill="#000000" fill-opacity="1"><g transform="translate(131.010246, 255.63139)"><g><path d="M 3.171875 0.109375 C 2.503906 0.109375 1.988281 -0.0195312 1.625 -0.28125 C 1.257812 -0.550781 1.003906 -0.921875 0.859375 -1.390625 C 0.722656 -1.867188 0.65625 -2.460938 0.65625 -3.171875 L 0.65625 -9.421875 L 1.90625 -9.421875 L 1.90625 -3.125 C 1.90625 -2.40625 1.988281 -1.859375 2.15625 -1.484375 C 2.320312 -1.117188 2.660156 -0.9375 3.171875 -0.9375 C 3.671875 -0.9375 4.003906 -1.117188 4.171875 -1.484375 C 4.335938 -1.859375 4.421875 -2.40625 4.421875 -3.125 L 4.421875 -9.421875 L 5.671875 -9.421875 L 5.671875 -3.171875 C 5.671875 -2.460938 5.597656 -1.867188 5.453125 -1.390625 C 5.316406 -0.921875 5.066406 -0.550781 4.703125 -0.28125 C 4.335938 -0.0195312 3.828125 0.109375 3.171875 0.109375 Z M 3.171875 0.109375 "/></g></g></g><g fill="#000000" fill-opacity="1"><g transform="translate(140.44989, 255.63139)"><g><path d="M 2.21875 -9.421875 L 3.484375 -9.421875 L 5.5 0 L 4.265625 0 L 3.828125 -2.375 L 1.90625 -2.375 L 1.453125 0 L 0.21875 0 Z M 3.65625 -3.3125 L 2.859375 -7.5625 L 2.078125 -3.3125 Z M 3.65625 -3.3125 "/></g></g></g><g fill="#000000" fill-opacity="1"><g transform="translate(149.296055, 255.63139)"><g><path d="M 0.734375 -9.421875 L 2.625 -9.421875 C 3.582031 -9.421875 4.285156 -9.222656 4.734375 -8.828125 C 5.179688 -8.441406 5.40625 -7.804688 5.40625 -6.921875 C 5.40625 -5.710938 5.015625 -4.976562 4.234375 -4.71875 L 5.578125 0 L 4.3125 0 L 3.078125 -4.421875 L 2.046875 -4.421875 L 2.046875 0 L 0.734375 0 Z M 2.546875 -5.359375 C 3.117188 -5.359375 3.523438 -5.472656 3.765625 -5.703125 C 4.003906 -5.929688 4.125 -6.335938 4.125 -6.921875 C 4.125 -7.316406 4.082031 -7.625 4 -7.84375 C 3.914062 -8.0625 3.765625 -8.222656 3.546875 -8.328125 C 3.328125 -8.429688 3.019531 -8.484375 2.625 -8.484375 L 2.046875 -8.484375 L 2.046875 -5.359375 Z M 2.546875 -5.359375 "/></g></g></g><g fill="#000000" fill-opacity="1"><g transform="translate(158.456418, 255.63139)"><g/></g></g><g fill="#000000" fill-opacity="1"><g transform="translate(164.24215, 255.63139)"><g><path d="M 3.09375 0.109375 C 2.164062 0.109375 1.507812 -0.164062 1.125 -0.71875 C 0.75 -1.28125 0.5625 -2.050781 0.5625 -3.03125 L 0.5625 -6.359375 C 0.5625 -7.390625 0.742188 -8.171875 1.109375 -8.703125 C 1.484375 -9.242188 2.144531 -9.515625 3.09375 -9.515625 C 3.9375 -9.515625 4.539062 -9.285156 4.90625 -8.828125 C 5.28125 -8.367188 5.46875 -7.691406 5.46875 -6.796875 L 5.46875 -6.046875 L 4.21875 -6.046875 L 4.21875 -6.71875 C 4.21875 -7.15625 4.195312 -7.488281 4.15625 -7.71875 C 4.125 -7.945312 4.023438 -8.128906 3.859375 -8.265625 C 3.703125 -8.410156 3.453125 -8.484375 3.109375 -8.484375 C 2.753906 -8.484375 2.488281 -8.40625 2.3125 -8.25 C 2.132812 -8.101562 2.019531 -7.894531 1.96875 -7.625 C 1.914062 -7.363281 1.890625 -7.003906 1.890625 -6.546875 L 1.890625 -2.8125 C 1.890625 -2.332031 1.925781 -1.957031 2 -1.6875 C 2.082031 -1.414062 2.207031 -1.222656 2.375 -1.109375 C 2.550781 -0.992188 2.796875 -0.9375 3.109375 -0.9375 C 3.441406 -0.9375 3.6875 -1.007812 3.84375 -1.15625 C 4.007812 -1.300781 4.113281 -1.5 4.15625 -1.75 C 4.195312 -2.007812 4.21875 -2.363281 4.21875 -2.8125 L 4.21875 -3.5 L 5.46875 -3.5 L 5.46875 -2.8125 C 5.46875 -1.863281 5.289062 -1.140625 4.9375 -0.640625 C 4.582031 -0.140625 3.96875 0.109375 3.09375 0.109375 Z M 3.09375 0.109375 "/></g></g></g><g fill="#000000" fill-opacity="1"><g transform="translate(173.355955, 255.63139)"><g><path d="M 3.140625 0.109375 C 2.210938 0.109375 1.550781 -0.148438 1.15625 -0.671875 C 0.757812 -1.203125 0.5625 -1.960938 0.5625 -2.953125 L 0.5625 -6.53125 C 0.5625 -7.507812 0.757812 -8.25 1.15625 -8.75 C 1.5625 -9.257812 2.222656 -9.515625 3.140625 -9.515625 C 4.054688 -9.515625 4.710938 -9.257812 5.109375 -8.75 C 5.515625 -8.238281 5.71875 -7.5 5.71875 -6.53125 L 5.71875 -2.9375 C 5.71875 -1.96875 5.515625 -1.21875 5.109375 -0.6875 C 4.703125 -0.15625 4.046875 0.109375 3.140625 0.109375 Z M 3.140625 -0.9375 C 3.628906 -0.9375 3.957031 -1.078125 4.125 -1.359375 C 4.300781 -1.648438 4.390625 -2.085938 4.390625 -2.671875 L 4.390625 -6.796875 C 4.390625 -7.367188 4.300781 -7.789062 4.125 -8.0625 C 3.957031 -8.34375 3.628906 -8.484375 3.140625 -8.484375 C 2.640625 -8.484375 2.304688 -8.34375 2.140625 -8.0625 C 1.972656 -7.789062 1.890625 -7.367188 1.890625 -6.796875 L 1.890625 -2.671875 C 1.890625 -2.085938 1.972656 -1.648438 2.140625 -1.359375 C 2.304688 -1.078125 2.640625 -0.9375 3.140625 -0.9375 Z M 3.140625 -0.9375 "/></g></g></g><g fill="#000000" fill-opacity="1"><g transform="translate(182.749048, 255.63139)"><g><path d="M 0.734375 -9.421875 L 2.046875 -9.421875 L 2.046875 -0.9375 L 4.453125 -0.9375 L 4.453125 0 L 0.734375 0 Z M 0.734375 -9.421875 "/></g></g></g><g fill="#000000" fill-opacity="1"><g transform="translate(190.489739, 255.63139)"><g><path d="M 3.140625 0.109375 C 2.210938 0.109375 1.550781 -0.148438 1.15625 -0.671875 C 0.757812 -1.203125 0.5625 -1.960938 0.5625 -2.953125 L 0.5625 -6.53125 C 0.5625 -7.507812 0.757812 -8.25 1.15625 -8.75 C 1.5625 -9.257812 2.222656 -9.515625 3.140625 -9.515625 C 4.054688 -9.515625 4.710938 -9.257812 5.109375 -8.75 C 5.515625 -8.238281 5.71875 -7.5 5.71875 -6.53125 L 5.71875 -2.9375 C 5.71875 -1.96875 5.515625 -1.21875 5.109375 -0.6875 C 4.703125 -0.15625 4.046875 0.109375 3.140625 0.109375 Z M 3.140625 -0.9375 C 3.628906 -0.9375 3.957031 -1.078125 4.125 -1.359375 C 4.300781 -1.648438 4.390625 -2.085938 4.390625 -2.671875 L 4.390625 -6.796875 C 4.390625 -7.367188 4.300781 -7.789062 4.125 -8.0625 C 3.957031 -8.34375 3.628906 -8.484375 3.140625 -8.484375 C 2.640625 -8.484375 2.304688 -8.34375 2.140625 -8.0625 C 1.972656 -7.789062 1.890625 -7.367188 1.890625 -6.796875 L 1.890625 -2.671875 C 1.890625 -2.085938 1.972656 -1.648438 2.140625 -1.359375 C 2.304688 -1.078125 2.640625 -0.9375 3.140625 -0.9375 Z M 3.140625 -0.9375 "/></g></g></g><g fill="#000000" fill-opacity="1"><g transform="translate(199.882832, 255.63139)"><g><path d="M 0.734375 -9.421875 L 1.625 -9.421875 L 4.3125 -3.171875 L 4.3125 -9.421875 L 5.40625 -9.421875 L 5.40625 0 L 4.5625 0 L 1.84375 -6.4375 L 1.84375 0 L 0.734375 0 Z M 0.734375 -9.421875 "/></g></g></g><g fill="#000000" fill-opacity="1"><g transform="translate(209.147922, 255.63139)"><g><path d="M 2.171875 -3.328125 L 0.140625 -9.421875 L 1.359375 -9.421875 L 2.8125 -4.875 L 4.21875 -9.421875 L 5.453125 -9.421875 L 3.4375 -3.328125 L 3.4375 0 L 2.171875 0 Z M 2.171875 -3.328125 "/></g></g></g><g fill="#000000" fill-opacity="1"><g transform="translate(217.866088, 255.63139)"><g/></g></g><g fill="#000000" fill-opacity="1"><g transform="translate(223.65182, 255.63139)"><g><path d="M 0.734375 -9.421875 L 2.046875 -9.421875 L 2.046875 -4.984375 L 4.21875 -9.421875 L 5.4375 -9.421875 L 3.578125 -5.265625 L 5.734375 0 L 4.453125 0 L 2.65625 -4.421875 L 2.046875 -3.328125 L 2.046875 0 L 0.734375 0 Z M 0.734375 -9.421875 "/></g></g></g><g fill="#000000" fill-opacity="1"><g transform="translate(232.532904, 255.63139)"><g><path d="M 2.21875 -9.421875 L 3.484375 -9.421875 L 5.5 0 L 4.265625 0 L 3.828125 -2.375 L 1.90625 -2.375 L 1.453125 0 L 0.21875 0 Z M 3.65625 -3.3125 L 2.859375 -7.5625 L 2.078125 -3.3125 Z M 3.65625 -3.3125 "/></g></g></g><g fill="#000000" fill-opacity="1"><g transform="translate(241.379072, 255.63139)"><g><path d="M 0.734375 -9.421875 L 2.625 -9.421875 C 3.582031 -9.421875 4.285156 -9.222656 4.734375 -8.828125 C 5.179688 -8.441406 5.40625 -7.804688 5.40625 -6.921875 C 5.40625 -5.710938 5.015625 -4.976562 4.234375 -4.71875 L 5.578125 0 L 4.3125 0 L 3.078125 -4.421875 L 2.046875 -4.421875 L 2.046875 0 L 0.734375 0 Z M 2.546875 -5.359375 C 3.117188 -5.359375 3.523438 -5.472656 3.765625 -5.703125 C 4.003906 -5.929688 4.125 -6.335938 4.125 -6.921875 C 4.125 -7.316406 4.082031 -7.625 4 -7.84375 C 3.914062 -8.0625 3.765625 -8.222656 3.546875 -8.328125 C 3.328125 -8.429688 3.019531 -8.484375 2.625 -8.484375 L 2.046875 -8.484375 L 2.046875 -5.359375 Z M 2.546875 -5.359375 "/></g></g></g><g fill="#000000" fill-opacity="1"><g transform="translate(250.539437, 255.63139)"><g><path d="M 0.734375 -9.421875 L 4.390625 -9.421875 L 4.390625 -8.453125 L 2.046875 -8.453125 L 2.046875 -5.328125 L 3.953125 -5.328125 L 3.953125 -4.40625 L 2.046875 -4.40625 L 2.046875 -0.9375 L 4.40625 -0.9375 L 4.40625 0 L 0.734375 0 Z M 0.734375 -9.421875 "/></g></g></g><g fill="#000000" fill-opacity="1"><g transform="translate(258.396492, 255.63139)"><g><path d="M 0.734375 -9.421875 L 2.625 -9.421875 C 3.582031 -9.421875 4.285156 -9.222656 4.734375 -8.828125 C 5.179688 -8.441406 5.40625 -7.804688 5.40625 -6.921875 C 5.40625 -5.710938 5.015625 -4.976562 4.234375 -4.71875 L 5.578125 0 L 4.3125 0 L 3.078125 -4.421875 L 2.046875 -4.421875 L 2.046875 0 L 0.734375 0 Z M 2.546875 -5.359375 C 3.117188 -5.359375 3.523438 -5.472656 3.765625 -5.703125 C 4.003906 -5.929688 4.125 -6.335938 4.125 -6.921875 C 4.125 -7.316406 4.082031 -7.625 4 -7.84375 C 3.914062 -8.0625 3.765625 -8.222656 3.546875 -8.328125 C 3.328125 -8.429688 3.019531 -8.484375 2.625 -8.484375 L 2.046875 -8.484375 L 2.046875 -5.359375 Z M 2.546875 -5.359375 "/></g></g></g><g fill="#000000" fill-opacity="1"><g transform="translate(267.556858, 255.63139)"><g><path d="M 2.21875 -9.421875 L 3.484375 -9.421875 L 5.5 0 L 4.265625 0 L 3.828125 -2.375 L 1.90625 -2.375 L 1.453125 0 L 0.21875 0 Z M 3.65625 -3.3125 L 2.859375 -7.5625 L 2.078125 -3.3125 Z M 3.65625 -3.3125 "/></g></g></g><g clip-path="url(#id1)"><path fill="#000000" d="M 213.066406 137.367188 L 213.066406 128.292969 L 224.042969 125.785156 L 187.316406 117.789062 L 150.871094 126.988281 L 165.289062 129.117188 C 168.714844 129.621094 171.25 132.554688 171.25 136.007812 L 171.25 140.96875 C 170.921875 142.273438 170.746094 143.640625 170.746094 145.050781 C 170.746094 154.253906 178.226562 161.714844 187.457031 161.714844 C 196.6875 161.714844 204.167969 154.253906 204.167969 145.050781 C 204.167969 143.640625 203.992188 142.273438 203.660156 140.96875 L 203.660156 135.996094 C 203.660156 132.746094 205.914062 129.929688 209.085938 129.203125 L 212.246094 128.480469 L 212.246094 137.367188 C 211.992188 137.433594 211.8125 137.566406 211.789062 137.722656 L 211.289062 137.722656 L 211.289062 142.890625 C 211.289062 143.644531 211.902344 144.257812 212.65625 144.257812 C 213.414062 144.257812 214.027344 143.644531 214.027344 142.890625 L 214.027344 137.722656 L 213.527344 137.722656 C 213.503906 137.566406 213.324219 137.433594 213.066406 137.367188 " fill-opacity="1" fill-rule="nonzero"/></g><path fill="#000000" d="M 217.953125 166.726562 C 229.28125 165.851562 236.015625 161.84375 239.667969 158.636719 C 240.980469 157.484375 242 156.351562 242.777344 155.351562 C 242.800781 151.128906 242.4375 146.925781 242.4375 146.925781 C 242.4375 146.925781 237.480469 159.996094 216.125 161.648438 C 193.847656 163.367188 187.457031 170.179688 187.457031 170.179688 L 187.457031 175.414062 C 190.050781 173.382812 198.414062 168.234375 217.953125 166.726562 " fill-opacity="1" fill-rule="nonzero"/><path fill="#000000" d="M 219.617188 173.660156 C 236.058594 172.390625 243.546875 164.933594 246.492188 160.753906 C 246.578125 155.796875 246.140625 152.289062 246.140625 152.289062 C 246.140625 152.289062 240.847656 166.238281 218.054688 168 C 194.277344 169.839844 187.457031 177.109375 187.457031 177.109375 L 187.457031 182.839844 C 190.125 180.734375 198.910156 175.261719 219.617188 173.660156 " fill-opacity="1" fill-rule="nonzero"/><path fill="#000000" d="M 221.167969 180.445312 C 233.734375 179.476562 241.203125 175.023438 245.257812 171.460938 C 247.367188 169.609375 248.792969 167.800781 249.710938 166.417969 C 249.738281 161.660156 249.328125 158.371094 249.328125 158.371094 C 249.328125 158.371094 243.75 173.078125 219.71875 174.9375 C 194.648438 176.875 187.457031 184.539062 187.457031 184.539062 L 187.457031 190.082031 C 190.195312 187.90625 199.375 182.128906 221.167969 180.445312 " fill-opacity="1" fill-rule="nonzero"/><g clip-path="url(#id2)"><path fill="#000000" d="M 222.5 187.144531 C 242.304688 185.617188 250.222656 175.859375 252.707031 171.746094 C 252.675781 167.332031 252.304688 164.359375 252.304688 164.359375 C 252.304688 164.359375 246.457031 179.777344 221.269531 181.722656 C 194.992188 183.753906 187.457031 191.789062 187.457031 191.789062 L 187.457031 197.175781 C 190.257812 194.9375 199.769531 188.902344 222.5 187.144531 " fill-opacity="1" fill-rule="nonzero"/></g><path fill="#000000" d="M 156.957031 166.726562 C 145.632812 165.851562 138.898438 161.84375 135.242188 158.636719 C 133.933594 157.484375 132.914062 156.351562 132.136719 155.351562 C 132.113281 151.128906 132.472656 146.925781 132.472656 146.925781 C 132.472656 146.925781 137.433594 159.996094 158.789062 161.648438 C 181.066406 163.367188 187.457031 170.179688 187.457031 170.179688 L 187.457031 175.414062 C 184.863281 173.382812 176.496094 168.234375 156.957031 166.726562 " fill-opacity="1" fill-rule="nonzero"/><path fill="#000000" d="M 155.296875 173.660156 C 138.851562 172.390625 131.363281 164.933594 128.417969 160.753906 C 128.335938 155.796875 128.773438 152.289062 128.773438 152.289062 C 128.773438 152.289062 134.066406 166.238281 156.859375 168 C 180.636719 169.839844 187.457031 177.109375 187.457031 177.109375 L 187.457031 182.839844 C 184.789062 180.734375 176 175.261719 155.296875 173.660156 " fill-opacity="1" fill-rule="nonzero"/><path fill="#000000" d="M 153.742188 180.445312 C 141.179688 179.476562 133.710938 175.023438 129.65625 171.460938 C 127.546875 169.609375 126.121094 167.800781 125.199219 166.417969 C 125.171875 161.660156 125.582031 158.371094 125.582031 158.371094 C 125.582031 158.371094 131.164062 173.078125 155.195312 174.9375 C 180.265625 176.875 187.457031 184.539062 187.457031 184.539062 L 187.457031 190.082031 C 184.714844 187.90625 175.539062 182.128906 153.742188 180.445312 " fill-opacity="1" fill-rule="nonzero"/><g clip-path="url(#id3)"><path fill="#000000" d="M 152.414062 187.144531 C 132.609375 185.617188 124.6875 175.859375 122.207031 171.746094 C 122.238281 167.332031 122.605469 164.359375 122.605469 164.359375 C 122.605469 164.359375 128.453125 179.777344 153.644531 181.722656 C 179.917969 183.753906 187.457031 191.789062 187.457031 191.789062 L 187.457031 197.175781 C 184.65625 194.9375 175.144531 188.902344 152.414062 187.144531 " fill-opacity="1" fill-rule="nonzero"/></g></svg>