<svg xmlns="http://www.w3.org/2000/svg" xmlns:xlink="http://www.w3.org/1999/xlink" width="500" zoomAndPan="magnify" viewBox="0 0 375 374.999991" height="500" preserveAspectRatio="xMidYMid meet" version="1.0"><defs><g/><clipPath id="id1"><path d="M 150 117.730469 L 225 117.730469 L 225 162 L 150 162 Z M 150 117.730469 " clip-rule="nonzero"/></clipPath><clipPath id="id2"><path d="M 187 164 L 252.707031 164 L 252.707031 197.230469 L 187 197.230469 Z M 187 164 " clip-rule="nonzero"/></clipPath><clipPath id="id3"><path d="M 122.210938 164 L 188 164 L 188 197.230469 L 122.210938 197.230469 Z M 122.210938 164 " clip-rule="nonzero"/></clipPath></defs><rect x="-37.5" width="450" fill="#000000" y="-37.499999" height="449.999989" fill-opacity="1"/><rect x="-37.5" width="450" fill="#ffffff" y="-37.499999" height="449.999989" fill-opacity="1"/><rect x="-37.5" width="450" fill="#000000" y="-37.499999" height="449.999989" fill-opacity="1"/><g fill="#ffffff" fill-opacity="1"><g transform="translate(43.117407, 230.372212)"><g><path d="M 2 0 C 1.832031 0 1.703125 -0.0546875 1.609375 -0.171875 C 1.523438 -0.296875 1.484375 -0.457031 1.484375 -0.65625 C 1.484375 -0.945312 1.585938 -1.171875 1.796875 -1.328125 C 2.003906 -1.484375 2.289062 -1.5625 2.65625 -1.5625 L 3.328125 -1.5625 L 3.328125 -16.40625 L 2.625 -16.5625 C 2.207031 -16.644531 1.90625 -16.765625 1.71875 -16.921875 C 1.53125 -17.078125 1.4375 -17.296875 1.4375 -17.578125 C 1.4375 -17.921875 1.570312 -18.09375 1.84375 -18.09375 L 9.703125 -18.09375 C 11.523438 -18.09375 12.988281 -17.617188 14.09375 -16.671875 C 15.195312 -15.722656 15.75 -14.398438 15.75 -12.703125 C 15.75 -11.015625 15.195312 -9.695312 14.09375 -8.75 C 12.988281 -7.8125 11.523438 -7.34375 9.703125 -7.34375 L 5.9375 -7.34375 L 5.9375 -1.53125 L 7.15625 -1.203125 C 7.5 -1.109375 7.742188 -0.992188 7.890625 -0.859375 C 8.046875 -0.734375 8.125 -0.578125 8.125 -0.390625 C 8.125 -0.128906 8 0 7.75 0 Z M 9.53125 -9.0625 C 10.675781 -9.0625 11.5625 -9.394531 12.1875 -10.0625 C 12.820312 -10.726562 13.140625 -11.609375 13.140625 -12.703125 C 13.140625 -13.816406 12.820312 -14.707031 12.1875 -15.375 C 11.5625 -16.039062 10.675781 -16.375 9.53125 -16.375 L 5.9375 -16.375 L 5.9375 -9.0625 Z M 9.53125 -9.0625 "/></g></g></g><g fill="#ffffff" fill-opacity="1"><g transform="translate(60.678462, 230.372212)"><g><path d="M 0.65625 0 C 0.476562 0 0.34375 -0.0546875 0.25 -0.171875 C 0.164062 -0.296875 0.125 -0.457031 0.125 -0.65625 C 0.125 -0.945312 0.226562 -1.171875 0.4375 -1.328125 C 0.644531 -1.484375 0.929688 -1.5625 1.296875 -1.5625 L 1.921875 -1.5625 L 7.96875 -18.09375 L 10.875 -18.09375 L 16.953125 -1.53125 L 18.015625 -1.28125 C 18.304688 -1.207031 18.515625 -1.101562 18.640625 -0.96875 C 18.773438 -0.84375 18.84375 -0.675781 18.84375 -0.46875 C 18.84375 -0.15625 18.734375 0 18.515625 0 L 12.703125 0 C 12.523438 0 12.390625 -0.0546875 12.296875 -0.171875 C 12.203125 -0.296875 12.15625 -0.457031 12.15625 -0.65625 C 12.15625 -0.945312 12.257812 -1.171875 12.46875 -1.328125 C 12.675781 -1.484375 12.960938 -1.5625 13.328125 -1.5625 L 14.296875 -1.5625 L 12.78125 -5.703125 L 5.390625 -5.703125 L 3.90625 -1.53125 L 5.421875 -1.171875 C 5.742188 -1.097656 5.96875 -1 6.09375 -0.875 C 6.226562 -0.757812 6.296875 -0.609375 6.296875 -0.421875 C 6.296875 -0.140625 6.1875 0 5.96875 0 Z M 12.15625 -7.390625 L 9.078125 -15.90625 L 6.015625 -7.390625 Z M 12.15625 -7.390625 "/></g></g></g><g fill="#ffffff" fill-opacity="1"><g transform="translate(80.763042, 230.372212)"><g><path d="M 5.359375 0 C 5.191406 0 5.0625 -0.0546875 4.96875 -0.171875 C 4.882812 -0.296875 4.84375 -0.457031 4.84375 -0.65625 C 4.84375 -0.945312 4.945312 -1.171875 5.15625 -1.328125 C 5.363281 -1.484375 5.648438 -1.5625 6.015625 -1.5625 L 6.65625 -1.5625 L 6.65625 -16.375 L 2.453125 -16.375 L 2.140625 -15.046875 C 2.035156 -14.648438 1.925781 -14.363281 1.8125 -14.1875 C 1.695312 -14.007812 1.523438 -13.921875 1.296875 -13.921875 C 0.953125 -13.921875 0.78125 -14.078125 0.78125 -14.390625 L 0.78125 -18.09375 L 15.171875 -18.09375 L 15.171875 -14.390625 C 15.171875 -14.078125 15 -13.921875 14.65625 -13.921875 C 14.425781 -13.921875 14.242188 -14.015625 14.109375 -14.203125 C 13.984375 -14.398438 13.878906 -14.679688 13.796875 -15.046875 L 13.515625 -16.375 L 9.265625 -16.375 L 9.265625 -1.53125 L 10.484375 -1.203125 C 11.046875 -1.054688 11.328125 -0.785156 11.328125 -0.390625 C 11.328125 -0.128906 11.203125 0 10.953125 0 Z M 5.359375 0 "/></g></g></g><g fill="#ffffff" fill-opacity="1"><g transform="translate(97.829804, 230.372212)"><g><path d="M 1.84375 0 C 1.570312 0 1.4375 -0.171875 1.4375 -0.515625 C 1.4375 -1.054688 1.832031 -1.40625 2.625 -1.5625 L 3.328125 -1.6875 L 3.328125 -16.40625 L 2.625 -16.53125 C 2.207031 -16.601562 1.90625 -16.722656 1.71875 -16.890625 C 1.53125 -17.066406 1.4375 -17.296875 1.4375 -17.578125 C 1.4375 -17.921875 1.570312 -18.09375 1.84375 -18.09375 L 16.03125 -18.09375 L 16.03125 -14.453125 C 16.03125 -14.148438 15.882812 -14 15.59375 -14 C 15.382812 -14 15.207031 -14.101562 15.0625 -14.3125 C 14.925781 -14.519531 14.804688 -14.851562 14.703125 -15.3125 L 14.453125 -16.421875 L 5.9375 -16.421875 L 5.9375 -10.078125 L 12.9375 -10.078125 L 13.28125 -11.1875 C 13.445312 -11.707031 13.671875 -11.96875 13.953125 -11.96875 C 14.234375 -11.96875 14.375 -11.835938 14.375 -11.578125 L 14.375 -6.921875 C 14.375 -6.660156 14.234375 -6.53125 13.953125 -6.53125 C 13.671875 -6.53125 13.445312 -6.789062 13.28125 -7.3125 L 12.9375 -8.4375 L 5.9375 -8.4375 L 5.9375 -1.671875 L 14.8125 -1.671875 L 15.078125 -2.859375 C 15.179688 -3.316406 15.300781 -3.644531 15.4375 -3.84375 C 15.570312 -4.039062 15.738281 -4.140625 15.9375 -4.140625 C 16.226562 -4.140625 16.375 -3.992188 16.375 -3.703125 L 16.375 0 Z M 1.84375 0 "/></g></g></g><g fill="#ffffff" fill-opacity="1"><g transform="translate(117.081884, 230.372212)"><g><path d="M 1.84375 0 C 1.570312 0 1.4375 -0.171875 1.4375 -0.515625 C 1.4375 -0.796875 1.53125 -1.019531 1.71875 -1.1875 C 1.90625 -1.363281 2.207031 -1.488281 2.625 -1.5625 L 3.328125 -1.6875 L 3.328125 -16.53125 L 2 -16.53125 C 1.832031 -16.53125 1.703125 -16.585938 1.609375 -16.703125 C 1.523438 -16.828125 1.484375 -16.992188 1.484375 -17.203125 C 1.484375 -17.484375 1.585938 -17.703125 1.796875 -17.859375 C 2.003906 -18.015625 2.289062 -18.09375 2.65625 -18.09375 L 7.75 -18.09375 C 8 -18.09375 8.125 -17.960938 8.125 -17.703125 C 8.125 -17.304688 7.84375 -17.035156 7.28125 -16.890625 L 5.9375 -16.5625 L 5.9375 -1.71875 L 13.765625 -1.71875 L 14.21875 -3.328125 C 14.332031 -3.785156 14.453125 -4.113281 14.578125 -4.3125 C 14.710938 -4.507812 14.878906 -4.609375 15.078125 -4.609375 C 15.367188 -4.609375 15.515625 -4.460938 15.515625 -4.171875 L 15.515625 0 Z M 1.84375 0 "/></g></g></g><g fill="#ffffff" fill-opacity="1"><g transform="translate(134.148646, 230.372212)"><g/></g></g><g fill="#ffffff" fill-opacity="1"><g transform="translate(142.656269, 230.372212)"><g><path d="M 2 -16.53125 L 0.734375 -16.53125 C 0.554688 -16.53125 0.421875 -16.585938 0.328125 -16.703125 C 0.242188 -16.828125 0.203125 -16.992188 0.203125 -17.203125 C 0.203125 -17.484375 0.304688 -17.703125 0.515625 -17.859375 C 0.722656 -18.015625 1.007812 -18.09375 1.375 -18.09375 L 6.6875 -18.09375 C 6.925781 -18.09375 7.046875 -17.960938 7.046875 -17.703125 C 7.046875 -17.265625 6.726562 -16.976562 6.09375 -16.84375 L 4.796875 -16.5625 L 9.375 -3.234375 C 9.476562 -2.921875 9.5625 -2.601562 9.625 -2.28125 C 9.695312 -1.957031 9.742188 -1.753906 9.765625 -1.671875 L 9.890625 -1.671875 C 9.910156 -1.753906 9.945312 -1.957031 10 -2.28125 C 10.0625 -2.601562 10.15625 -2.921875 10.28125 -3.234375 L 15.015625 -16.53125 L 13.453125 -16.53125 C 13.285156 -16.53125 13.148438 -16.585938 13.046875 -16.703125 C 12.953125 -16.828125 12.90625 -16.992188 12.90625 -17.203125 C 12.90625 -17.484375 13.007812 -17.703125 13.21875 -17.859375 C 13.425781 -18.015625 13.710938 -18.09375 14.078125 -18.09375 L 18.75 -18.09375 C 18.988281 -18.09375 19.109375 -17.960938 19.109375 -17.703125 C 19.109375 -17.367188 18.863281 -17.117188 18.375 -16.953125 L 17.046875 -16.53125 L 11.0625 0 L 7.9375 0 Z M 2 -16.53125 "/></g></g></g><g fill="#ffffff" fill-opacity="1"><g transform="translate(163.105062, 230.372212)"><g><path d="M 2.078125 0 C 1.910156 0 1.78125 -0.0546875 1.6875 -0.171875 C 1.601562 -0.296875 1.5625 -0.457031 1.5625 -0.65625 C 1.5625 -0.945312 1.664062 -1.171875 1.875 -1.328125 C 2.082031 -1.484375 2.367188 -1.5625 2.734375 -1.5625 L 3.390625 -1.5625 L 3.390625 -16.53125 L 2.078125 -16.53125 C 1.910156 -16.53125 1.78125 -16.585938 1.6875 -16.703125 C 1.601562 -16.828125 1.5625 -16.992188 1.5625 -17.203125 C 1.5625 -17.484375 1.664062 -17.703125 1.875 -17.859375 C 2.082031 -18.015625 2.367188 -18.09375 2.734375 -18.09375 L 7.671875 -18.09375 C 7.921875 -18.09375 8.046875 -17.960938 8.046875 -17.703125 C 8.046875 -17.304688 7.765625 -17.035156 7.203125 -16.890625 L 5.984375 -16.5625 L 5.984375 -1.53125 L 7.203125 -1.203125 C 7.765625 -1.054688 8.046875 -0.785156 8.046875 -0.390625 C 8.046875 -0.128906 7.921875 0 7.671875 0 Z M 2.078125 0 "/></g></g></g><g fill="#ffffff" fill-opacity="1"><g transform="translate(173.82401, 230.372212)"><g><path d="M 1.84375 0 C 1.570312 0 1.4375 -0.171875 1.4375 -0.515625 C 1.4375 -1.054688 1.832031 -1.40625 2.625 -1.5625 L 3.328125 -1.6875 L 3.328125 -16.40625 L 2.625 -16.53125 C 1.832031 -16.6875 1.4375 -17.035156 1.4375 -17.578125 C 1.4375 -17.921875 1.570312 -18.09375 1.84375 -18.09375 L 9.578125 -18.09375 C 11.242188 -18.09375 12.734375 -17.757812 14.046875 -17.09375 C 15.359375 -16.4375 16.394531 -15.425781 17.15625 -14.0625 C 17.914062 -12.707031 18.296875 -11.019531 18.296875 -9 C 18.296875 -6.988281 17.914062 -5.3125 17.15625 -3.96875 C 16.394531 -2.625 15.359375 -1.625 14.046875 -0.96875 C 12.734375 -0.320312 11.242188 0 9.578125 0 Z M 9.578125 -1.71875 C 11.503906 -1.71875 12.992188 -2.351562 14.046875 -3.625 C 15.109375 -4.90625 15.640625 -6.695312 15.640625 -9 C 15.640625 -11.332031 15.109375 -13.144531 14.046875 -14.4375 C 12.992188 -15.726562 11.503906 -16.375 9.578125 -16.375 L 5.9375 -16.375 L 5.9375 -1.71875 Z M 9.578125 -1.71875 "/></g></g></g><g fill="#ffffff" fill-opacity="1"><g transform="translate(194.402889, 230.372212)"><g><path d="M 1.953125 0 C 1.773438 0 1.644531 -0.0546875 1.5625 -0.171875 C 1.476562 -0.296875 1.4375 -0.457031 1.4375 -0.65625 C 1.4375 -0.945312 1.539062 -1.171875 1.75 -1.328125 C 1.957031 -1.484375 2.242188 -1.5625 2.609375 -1.5625 L 3.25 -1.5625 L 3.25 -16.53125 L 1.953125 -16.53125 C 1.773438 -16.53125 1.644531 -16.585938 1.5625 -16.703125 C 1.476562 -16.828125 1.4375 -16.992188 1.4375 -17.203125 C 1.4375 -17.484375 1.539062 -17.703125 1.75 -17.859375 C 1.957031 -18.015625 2.242188 -18.09375 2.609375 -18.09375 L 7.546875 -18.09375 C 7.785156 -18.09375 7.90625 -17.960938 7.90625 -17.703125 C 7.90625 -17.316406 7.628906 -17.046875 7.078125 -16.890625 L 5.859375 -16.5625 L 5.859375 -10.25 L 15.25 -10.25 L 15.25 -16.53125 L 13.828125 -16.53125 C 13.648438 -16.53125 13.515625 -16.585938 13.421875 -16.703125 C 13.335938 -16.828125 13.296875 -16.992188 13.296875 -17.203125 C 13.296875 -17.484375 13.398438 -17.703125 13.609375 -17.859375 C 13.816406 -18.015625 14.101562 -18.09375 14.46875 -18.09375 L 19.421875 -18.09375 C 19.640625 -18.09375 19.75 -17.960938 19.75 -17.703125 C 19.75 -17.515625 19.695312 -17.363281 19.59375 -17.25 C 19.5 -17.132812 19.328125 -17.035156 19.078125 -16.953125 L 17.859375 -16.5625 L 17.859375 -1.53125 L 19.078125 -1.140625 C 19.328125 -1.054688 19.5 -0.957031 19.59375 -0.84375 C 19.695312 -0.726562 19.75 -0.578125 19.75 -0.390625 C 19.75 -0.128906 19.640625 0 19.421875 0 L 13.828125 0 C 13.648438 0 13.515625 -0.0546875 13.421875 -0.171875 C 13.335938 -0.296875 13.296875 -0.457031 13.296875 -0.65625 C 13.296875 -0.945312 13.398438 -1.171875 13.609375 -1.328125 C 13.816406 -1.484375 14.101562 -1.5625 14.46875 -1.5625 L 15.25 -1.5625 L 15.25 -8.53125 L 5.859375 -8.53125 L 5.859375 -1.53125 L 7.078125 -1.203125 C 7.628906 -1.054688 7.90625 -0.785156 7.90625 -0.390625 C 7.90625 -0.128906 7.785156 0 7.546875 0 Z M 1.953125 0 "/></g></g></g><g fill="#ffffff" fill-opacity="1"><g transform="translate(216.724817, 230.372212)"><g><path d="M 6.40625 0 C 6.226562 0 6.097656 -0.0546875 6.015625 -0.171875 C 5.929688 -0.296875 5.890625 -0.457031 5.890625 -0.65625 C 5.890625 -0.945312 5.992188 -1.171875 6.203125 -1.328125 C 6.410156 -1.484375 6.691406 -1.5625 7.046875 -1.5625 L 7.703125 -1.5625 L 7.703125 -7.578125 L 1.984375 -16.53125 L 0.75 -16.53125 C 0.582031 -16.53125 0.453125 -16.585938 0.359375 -16.703125 C 0.273438 -16.828125 0.234375 -16.992188 0.234375 -17.203125 C 0.234375 -17.484375 0.335938 -17.703125 0.546875 -17.859375 C 0.753906 -18.015625 1.039062 -18.09375 1.40625 -18.09375 L 6.96875 -18.09375 C 7.21875 -18.09375 7.34375 -17.953125 7.34375 -17.671875 C 7.34375 -17.222656 7.054688 -16.945312 6.484375 -16.84375 L 5.109375 -16.5625 L 9.453125 -9.703125 L 14.03125 -16.53125 L 12.65625 -16.53125 C 12.476562 -16.53125 12.34375 -16.585938 12.25 -16.703125 C 12.164062 -16.828125 12.125 -16.992188 12.125 -17.203125 C 12.125 -17.484375 12.222656 -17.703125 12.421875 -17.859375 C 12.628906 -18.015625 12.914062 -18.09375 13.28125 -18.09375 L 17.75 -18.09375 C 18 -18.09375 18.125 -17.960938 18.125 -17.703125 C 18.125 -17.367188 17.878906 -17.117188 17.390625 -16.953125 L 16.09375 -16.53125 L 10.3125 -7.90625 L 10.3125 -1.53125 L 11.53125 -1.203125 C 12.082031 -1.054688 12.359375 -0.785156 12.359375 -0.390625 C 12.359375 -0.128906 12.238281 0 12 0 Z M 6.40625 0 "/></g></g></g><g fill="#ffffff" fill-opacity="1"><g transform="translate(236.211037, 230.372212)"><g><path d="M 0.65625 0 C 0.476562 0 0.34375 -0.0546875 0.25 -0.171875 C 0.164062 -0.296875 0.125 -0.457031 0.125 -0.65625 C 0.125 -0.945312 0.226562 -1.171875 0.4375 -1.328125 C 0.644531 -1.484375 0.929688 -1.5625 1.296875 -1.5625 L 1.921875 -1.5625 L 7.96875 -18.09375 L 10.875 -18.09375 L 16.953125 -1.53125 L 18.015625 -1.28125 C 18.304688 -1.207031 18.515625 -1.101562 18.640625 -0.96875 C 18.773438 -0.84375 18.84375 -0.675781 18.84375 -0.46875 C 18.84375 -0.15625 18.734375 0 18.515625 0 L 12.703125 0 C 12.523438 0 12.390625 -0.0546875 12.296875 -0.171875 C 12.203125 -0.296875 12.15625 -0.457031 12.15625 -0.65625 C 12.15625 -0.945312 12.257812 -1.171875 12.46875 -1.328125 C 12.675781 -1.484375 12.960938 -1.5625 13.328125 -1.5625 L 14.296875 -1.5625 L 12.78125 -5.703125 L 5.390625 -5.703125 L 3.90625 -1.53125 L 5.421875 -1.171875 C 5.742188 -1.097656 5.96875 -1 6.09375 -0.875 C 6.226562 -0.757812 6.296875 -0.609375 6.296875 -0.421875 C 6.296875 -0.140625 6.1875 0 5.96875 0 Z M 12.15625 -7.390625 L 9.078125 -15.90625 L 6.015625 -7.390625 Z M 12.15625 -7.390625 "/></g></g></g><g fill="#ffffff" fill-opacity="1"><g transform="translate(256.295622, 230.372212)"><g><path d="M 1.84375 0 C 1.570312 0 1.4375 -0.171875 1.4375 -0.515625 C 1.4375 -0.796875 1.53125 -1.019531 1.71875 -1.1875 C 1.90625 -1.363281 2.207031 -1.488281 2.625 -1.5625 L 3.328125 -1.6875 L 3.328125 -16.53125 L 2 -16.53125 C 1.832031 -16.53125 1.703125 -16.585938 1.609375 -16.703125 C 1.523438 -16.828125 1.484375 -16.992188 1.484375 -17.203125 C 1.484375 -17.484375 1.585938 -17.703125 1.796875 -17.859375 C 2.003906 -18.015625 2.289062 -18.09375 2.65625 -18.09375 L 7.75 -18.09375 C 8 -18.09375 8.125 -17.960938 8.125 -17.703125 C 8.125 -17.304688 7.84375 -17.035156 7.28125 -16.890625 L 5.9375 -16.5625 L 5.9375 -1.71875 L 13.765625 -1.71875 L 14.21875 -3.328125 C 14.332031 -3.785156 14.453125 -4.113281 14.578125 -4.3125 C 14.710938 -4.507812 14.878906 -4.609375 15.078125 -4.609375 C 15.367188 -4.609375 15.515625 -4.460938 15.515625 -4.171875 L 15.515625 0 Z M 1.84375 0 "/></g></g></g><g fill="#ffffff" fill-opacity="1"><g transform="translate(273.362378, 230.372212)"><g><path d="M 0.65625 0 C 0.476562 0 0.34375 -0.0546875 0.25 -0.171875 C 0.164062 -0.296875 0.125 -0.457031 0.125 -0.65625 C 0.125 -0.945312 0.226562 -1.171875 0.4375 -1.328125 C 0.644531 -1.484375 0.929688 -1.5625 1.296875 -1.5625 L 1.921875 -1.5625 L 7.96875 -18.09375 L 10.875 -18.09375 L 16.953125 -1.53125 L 18.015625 -1.28125 C 18.304688 -1.207031 18.515625 -1.101562 18.640625 -0.96875 C 18.773438 -0.84375 18.84375 -0.675781 18.84375 -0.46875 C 18.84375 -0.15625 18.734375 0 18.515625 0 L 12.703125 0 C 12.523438 0 12.390625 -0.0546875 12.296875 -0.171875 C 12.203125 -0.296875 12.15625 -0.457031 12.15625 -0.65625 C 12.15625 -0.945312 12.257812 -1.171875 12.46875 -1.328125 C 12.675781 -1.484375 12.960938 -1.5625 13.328125 -1.5625 L 14.296875 -1.5625 L 12.78125 -5.703125 L 5.390625 -5.703125 L 3.90625 -1.53125 L 5.421875 -1.171875 C 5.742188 -1.097656 5.96875 -1 6.09375 -0.875 C 6.226562 -0.757812 6.296875 -0.609375 6.296875 -0.421875 C 6.296875 -0.140625 6.1875 0 5.96875 0 Z M 12.15625 -7.390625 L 9.078125 -15.90625 L 6.015625 -7.390625 Z M 12.15625 -7.390625 "/></g></g></g><g fill="#ffffff" fill-opacity="1"><g transform="translate(293.446964, 230.372212)"><g><path d="M 6.40625 0 C 6.226562 0 6.097656 -0.0546875 6.015625 -0.171875 C 5.929688 -0.296875 5.890625 -0.457031 5.890625 -0.65625 C 5.890625 -0.945312 5.992188 -1.171875 6.203125 -1.328125 C 6.410156 -1.484375 6.691406 -1.5625 7.046875 -1.5625 L 7.703125 -1.5625 L 7.703125 -7.578125 L 1.984375 -16.53125 L 0.75 -16.53125 C 0.582031 -16.53125 0.453125 -16.585938 0.359375 -16.703125 C 0.273438 -16.828125 0.234375 -16.992188 0.234375 -17.203125 C 0.234375 -17.484375 0.335938 -17.703125 0.546875 -17.859375 C 0.753906 -18.015625 1.039062 -18.09375 1.40625 -18.09375 L 6.96875 -18.09375 C 7.21875 -18.09375 7.34375 -17.953125 7.34375 -17.671875 C 7.34375 -17.222656 7.054688 -16.945312 6.484375 -16.84375 L 5.109375 -16.5625 L 9.453125 -9.703125 L 14.03125 -16.53125 L 12.65625 -16.53125 C 12.476562 -16.53125 12.34375 -16.585938 12.25 -16.703125 C 12.164062 -16.828125 12.125 -16.992188 12.125 -17.203125 C 12.125 -17.484375 12.222656 -17.703125 12.421875 -17.859375 C 12.628906 -18.015625 12.914062 -18.09375 13.28125 -18.09375 L 17.75 -18.09375 C 18 -18.09375 18.125 -17.960938 18.125 -17.703125 C 18.125 -17.367188 17.878906 -17.117188 17.390625 -16.953125 L 16.09375 -16.53125 L 10.3125 -7.90625 L 10.3125 -1.53125 L 11.53125 -1.203125 C 12.082031 -1.054688 12.359375 -0.785156 12.359375 -0.390625 C 12.359375 -0.128906 12.238281 0 12 0 Z M 6.40625 0 "/></g></g></g><g fill="#ffffff" fill-opacity="1"><g transform="translate(312.933183, 230.372212)"><g><path d="M 0.65625 0 C 0.476562 0 0.34375 -0.0546875 0.25 -0.171875 C 0.164062 -0.296875 0.125 -0.457031 0.125 -0.65625 C 0.125 -0.945312 0.226562 -1.171875 0.4375 -1.328125 C 0.644531 -1.484375 0.929688 -1.5625 1.296875 -1.5625 L 1.921875 -1.5625 L 7.96875 -18.09375 L 10.875 -18.09375 L 16.953125 -1.53125 L 18.015625 -1.28125 C 18.304688 -1.207031 18.515625 -1.101562 18.640625 -0.96875 C 18.773438 -0.84375 18.84375 -0.675781 18.84375 -0.46875 C 18.84375 -0.15625 18.734375 0 18.515625 0 L 12.703125 0 C 12.523438 0 12.390625 -0.0546875 12.296875 -0.171875 C 12.203125 -0.296875 12.15625 -0.457031 12.15625 -0.65625 C 12.15625 -0.945312 12.257812 -1.171875 12.46875 -1.328125 C 12.675781 -1.484375 12.960938 -1.5625 13.328125 -1.5625 L 14.296875 -1.5625 L 12.78125 -5.703125 L 5.390625 -5.703125 L 3.90625 -1.53125 L 5.421875 -1.171875 C 5.742188 -1.097656 5.96875 -1 6.09375 -0.875 C 6.226562 -0.757812 6.296875 -0.609375 6.296875 -0.421875 C 6.296875 -0.140625 6.1875 0 5.96875 0 Z M 12.15625 -7.390625 L 9.078125 -15.90625 L 6.015625 -7.390625 Z M 12.15625 -7.390625 "/></g></g></g><g fill="#ffffff" fill-opacity="1"><g transform="translate(101.71384, 255.63139)"><g><path d="M 0.890625 -9.421875 L 2.171875 -9.421875 L 3.84375 -1.78125 L 5.515625 -9.421875 L 6.796875 -9.421875 L 6.96875 0 L 5.90625 0 L 5.8125 -6.84375 L 4.21875 0 L 3.46875 0 L 1.890625 -6.84375 L 1.78125 0 L 0.703125 0 Z M 0.890625 -9.421875 "/></g></g></g><g fill="#ffffff" fill-opacity="1"><g transform="translate(112.514976, 255.63139)"><g><path d="M 2.21875 -9.421875 L 3.484375 -9.421875 L 5.5 0 L 4.265625 0 L 3.828125 -2.375 L 1.90625 -2.375 L 1.453125 0 L 0.21875 0 Z M 3.65625 -3.3125 L 2.859375 -7.5625 L 2.078125 -3.3125 Z M 3.65625 -3.3125 "/></g></g></g><g fill="#ffffff" fill-opacity="1"><g transform="translate(121.361141, 255.63139)"><g><path d="M 0.734375 -9.421875 L 2.046875 -9.421875 L 2.046875 -5.359375 L 4.46875 -5.359375 L 4.46875 -9.421875 L 5.78125 -9.421875 L 5.78125 0 L 4.46875 0 L 4.46875 -4.40625 L 2.046875 -4.40625 L 2.046875 0 L 0.734375 0 Z M 0.734375 -9.421875 "/></g></g></g><g fill="#ffffff" fill-opacity="1"><g transform="translate(131.010246, 255.63139)"><g><path d="M 3.171875 0.109375 C 2.503906 0.109375 1.988281 -0.0195312 1.625 -0.28125 C 1.257812 -0.550781 1.003906 -0.921875 0.859375 -1.390625 C 0.722656 -1.867188 0.65625 -2.460938 0.65625 -3.171875 L 0.65625 -9.421875 L 1.90625 -9.421875 L 1.90625 -3.125 C 1.90625 -2.40625 1.988281 -1.859375 2.15625 -1.484375 C 2.320312 -1.117188 2.660156 -0.9375 3.171875 -0.9375 C 3.671875 -0.9375 4.003906 -1.117188 4.171875 -1.484375 C 4.335938 -1.859375 4.421875 -2.40625 4.421875 -3.125 L 4.421875 -9.421875 L 5.671875 -9.421875 L 5.671875 -3.171875 C 5.671875 -2.460938 5.597656 -1.867188 5.453125 -1.390625 C 5.316406 -0.921875 5.066406 -0.550781 4.703125 -0.28125 C 4.335938 -0.0195312 3.828125 0.109375 3.171875 0.109375 Z M 3.171875 0.109375 "/></g></g></g><g fill="#ffffff" fill-opacity="1"><g transform="translate(140.44989, 255.63139)"><g><path d="M 2.21875 -9.421875 L 3.484375 -9.421875 L 5.5 0 L 4.265625 0 L 3.828125 -2.375 L 1.90625 -2.375 L 1.453125 0 L 0.21875 0 Z M 3.65625 -3.3125 L 2.859375 -7.5625 L 2.078125 -3.3125 Z M 3.65625 -3.3125 "/></g></g></g><g fill="#ffffff" fill-opacity="1"><g transform="translate(149.296055, 255.63139)"><g><path d="M 0.734375 -9.421875 L 2.625 -9.421875 C 3.582031 -9.421875 4.285156 -9.222656 4.734375 -8.828125 C 5.179688 -8.441406 5.40625 -7.804688 5.40625 -6.921875 C 5.40625 -5.710938 5.015625 -4.976562 4.234375 -4.71875 L 5.578125 0 L 4.3125 0 L 3.078125 -4.421875 L 2.046875 -4.421875 L 2.046875 0 L 0.734375 0 Z M 2.546875 -5.359375 C 3.117188 -5.359375 3.523438 -5.472656 3.765625 -5.703125 C 4.003906 -5.929688 4.125 -6.335938 4.125 -6.921875 C 4.125 -7.316406 4.082031 -7.625 4 -7.84375 C 3.914062 -8.0625 3.765625 -8.222656 3.546875 -8.328125 C 3.328125 -8.429688 3.019531 -8.484375 2.625 -8.484375 L 2.046875 -8.484375 L 2.046875 -5.359375 Z M 2.546875 -5.359375 "/></g></g></g><g fill="#ffffff" fill-opacity="1"><g transform="translate(158.456418, 255.63139)"><g/></g></g><g fill="#ffffff" fill-opacity="1"><g transform="translate(164.24215, 255.63139)"><g><path d="M 3.09375 0.109375 C 2.164062 0.109375 1.507812 -0.164062 1.125 -0.71875 C 0.75 -1.28125 0.5625 -2.050781 0.5625 -3.03125 L 0.5625 -6.359375 C 0.5625 -7.390625 0.742188 -8.171875 1.109375 -8.703125 C 1.484375 -9.242188 2.144531 -9.515625 3.09375 -9.515625 C 3.9375 -9.515625 4.539062 -9.285156 4.90625 -8.828125 C 5.28125 -8.367188 5.46875 -7.691406 5.46875 -6.796875 L 5.46875 -6.046875 L 4.21875 -6.046875 L 4.21875 -6.71875 C 4.21875 -7.15625 4.195312 -7.488281 4.15625 -7.71875 C 4.125 -7.945312 4.023438 -8.128906 3.859375 -8.265625 C 3.703125 -8.410156 3.453125 -8.484375 3.109375 -8.484375 C 2.753906 -8.484375 2.488281 -8.40625 2.3125 -8.25 C 2.132812 -8.101562 2.019531 -7.894531 1.96875 -7.625 C 1.914062 -7.363281 1.890625 -7.003906 1.890625 -6.546875 L 1.890625 -2.8125 C 1.890625 -2.332031 1.925781 -1.957031 2 -1.6875 C 2.082031 -1.414062 2.207031 -1.222656 2.375 -1.109375 C 2.550781 -0.992188 2.796875 -0.9375 3.109375 -0.9375 C 3.441406 -0.9375 3.6875 -1.007812 3.84375 -1.15625 C 4.007812 -1.300781 4.113281 -1.5 4.15625 -1.75 C 4.195312 -2.007812 4.21875 -2.363281 4.21875 -2.8125 L 4.21875 -3.5 L 5.46875 -3.5 L 5.46875 -2.8125 C 5.46875 -1.863281 5.289062 -1.140625 4.9375 -0.640625 C 4.582031 -0.140625 3.96875 0.109375 3.09375 0.109375 Z M 3.09375 0.109375 "/></g></g></g><g fill="#ffffff" fill-opacity="1"><g transform="translate(173.355955, 255.63139)"><g><path d="M 3.140625 0.109375 C 2.210938 0.109375 1.550781 -0.148438 1.15625 -0.671875 C 0.757812 -1.203125 0.5625 -1.960938 0.5625 -2.953125 L 0.5625 -6.53125 C 0.5625 -7.507812 0.757812 -8.25 1.15625 -8.75 C 1.5625 -9.257812 2.222656 -9.515625 3.140625 -9.515625 C 4.054688 -9.515625 4.710938 -9.257812 5.109375 -8.75 C 5.515625 -8.238281 5.71875 -7.5 5.71875 -6.53125 L 5.71875 -2.9375 C 5.71875 -1.96875 5.515625 -1.21875 5.109375 -0.6875 C 4.703125 -0.15625 4.046875 0.109375 3.140625 0.109375 Z M 3.140625 -0.9375 C 3.628906 -0.9375 3.957031 -1.078125 4.125 -1.359375 C 4.300781 -1.648438 4.390625 -2.085938 4.390625 -2.671875 L 4.390625 -6.796875 C 4.390625 -7.367188 4.300781 -7.789062 4.125 -8.0625 C 3.957031 -8.34375 3.628906 -8.484375 3.140625 -8.484375 C 2.640625 -8.484375 2.304688 -8.34375 2.140625 -8.0625 C 1.972656 -7.789062 1.890625 -7.367188 1.890625 -6.796875 L 1.890625 -2.671875 C 1.890625 -2.085938 1.972656 -1.648438 2.140625 -1.359375 C 2.304688 -1.078125 2.640625 -0.9375 3.140625 -0.9375 Z M 3.140625 -0.9375 "/></g></g></g><g fill="#ffffff" fill-opacity="1"><g transform="translate(182.749048, 255.63139)"><g><path d="M 0.734375 -9.421875 L 2.046875 -9.421875 L 2.046875 -0.9375 L 4.453125 -0.9375 L 4.453125 0 L 0.734375 0 Z M 0.734375 -9.421875 "/></g></g></g><g fill="#ffffff" fill-opacity="1"><g transform="translate(190.489739, 255.63139)"><g><path d="M 3.140625 0.109375 C 2.210938 0.109375 1.550781 -0.148438 1.15625 -0.671875 C 0.757812 -1.203125 0.5625 -1.960938 0.5625 -2.953125 L 0.5625 -6.53125 C 0.5625 -7.507812 0.757812 -8.25 1.15625 -8.75 C 1.5625 -9.257812 2.222656 -9.515625 3.140625 -9.515625 C 4.054688 -9.515625 4.710938 -9.257812 5.109375 -8.75 C 5.515625 -8.238281 5.71875 -7.5 5.71875 -6.53125 L 5.71875 -2.9375 C 5.71875 -1.96875 5.515625 -1.21875 5.109375 -0.6875 C 4.703125 -0.15625 4.046875 0.109375 3.140625 0.109375 Z M 3.140625 -0.9375 C 3.628906 -0.9375 3.957031 -1.078125 4.125 -1.359375 C 4.300781 -1.648438 4.390625 -2.085938 4.390625 -2.671875 L 4.390625 -6.796875 C 4.390625 -7.367188 4.300781 -7.789062 4.125 -8.0625 C 3.957031 -8.34375 3.628906 -8.484375 3.140625 -8.484375 C 2.640625 -8.484375 2.304688 -8.34375 2.140625 -8.0625 C 1.972656 -7.789062 1.890625 -7.367188 1.890625 -6.796875 L 1.890625 -2.671875 C 1.890625 -2.085938 1.972656 -1.648438 2.140625 -1.359375 C 2.304688 -1.078125 2.640625 -0.9375 3.140625 -0.9375 Z M 3.140625 -0.9375 "/></g></g></g><g fill="#ffffff" fill-opacity="1"><g transform="translate(199.882832, 255.63139)"><g><path d="M 0.734375 -9.421875 L 1.625 -9.421875 L 4.3125 -3.171875 L 4.3125 -9.421875 L 5.40625 -9.421875 L 5.40625 0 L 4.5625 0 L 1.84375 -6.4375 L 1.84375 0 L 0.734375 0 Z M 0.734375 -9.421875 "/></g></g></g><g fill="#ffffff" fill-opacity="1"><g transform="translate(209.147922, 255.63139)"><g><path d="M 2.171875 -3.328125 L 0.140625 -9.421875 L 1.359375 -9.421875 L 2.8125 -4.875 L 4.21875 -9.421875 L 5.453125 -9.421875 L 3.4375 -3.328125 L 3.4375 0 L 2.171875 0 Z M 2.171875 -3.328125 "/></g></g></g><g fill="#ffffff" fill-opacity="1"><g transform="translate(217.866088, 255.63139)"><g/></g></g><g fill="#ffffff" fill-opacity="1"><g transform="translate(223.65182, 255.63139)"><g><path d="M 0.734375 -9.421875 L 2.046875 -9.421875 L 2.046875 -4.984375 L 4.21875 -9.421875 L 5.4375 -9.421875 L 3.578125 -5.265625 L 5.734375 0 L 4.453125 0 L 2.65625 -4.421875 L 2.046875 -3.328125 L 2.046875 0 L 0.734375 0 Z M 0.734375 -9.421875 "/></g></g></g><g fill="#ffffff" fill-opacity="1"><g transform="translate(232.532904, 255.63139)"><g><path d="M 2.21875 -9.421875 L 3.484375 -9.421875 L 5.5 0 L 4.265625 0 L 3.828125 -2.375 L 1.90625 -2.375 L 1.453125 0 L 0.21875 0 Z M 3.65625 -3.3125 L 2.859375 -7.5625 L 2.078125 -3.3125 Z M 3.65625 -3.3125 "/></g></g></g><g fill="#ffffff" fill-opacity="1"><g transform="translate(241.379072, 255.63139)"><g><path d="M 0.734375 -9.421875 L 2.625 -9.421875 C 3.582031 -9.421875 4.285156 -9.222656 4.734375 -8.828125 C 5.179688 -8.441406 5.40625 -7.804688 5.40625 -6.921875 C 5.40625 -5.710938 5.015625 -4.976562 4.234375 -4.71875 L 5.578125 0 L 4.3125 0 L 3.078125 -4.421875 L 2.046875 -4.421875 L 2.046875 0 L 0.734375 0 Z M 2.546875 -5.359375 C 3.117188 -5.359375 3.523438 -5.472656 3.765625 -5.703125 C 4.003906 -5.929688 4.125 -6.335938 4.125 -6.921875 C 4.125 -7.316406 4.082031 -7.625 4 -7.84375 C 3.914062 -8.0625 3.765625 -8.222656 3.546875 -8.328125 C 3.328125 -8.429688 3.019531 -8.484375 2.625 -8.484375 L 2.046875 -8.484375 L 2.046875 -5.359375 Z M 2.546875 -5.359375 "/></g></g></g><g fill="#ffffff" fill-opacity="1"><g transform="translate(250.539437, 255.63139)"><g><path d="M 0.734375 -9.421875 L 4.390625 -9.421875 L 4.390625 -8.453125 L 2.046875 -8.453125 L 2.046875 -5.328125 L 3.953125 -5.328125 L 3.953125 -4.40625 L 2.046875 -4.40625 L 2.046875 -0.9375 L 4.40625 -0.9375 L 4.40625 0 L 0.734375 0 Z M 0.734375 -9.421875 "/></g></g></g><g fill="#ffffff" fill-opacity="1"><g transform="translate(258.396492, 255.63139)"><g><path d="M 0.734375 -9.421875 L 2.625 -9.421875 C 3.582031 -9.421875 4.285156 -9.222656 4.734375 -8.828125 C 5.179688 -8.441406 5.40625 -7.804688 5.40625 -6.921875 C 5.40625 -5.710938 5.015625 -4.976562 4.234375 -4.71875 L 5.578125 0 L 4.3125 0 L 3.078125 -4.421875 L 2.046875 -4.421875 L 2.046875 0 L 0.734375 0 Z M 2.546875 -5.359375 C 3.117188 -5.359375 3.523438 -5.472656 3.765625 -5.703125 C 4.003906 -5.929688 4.125 -6.335938 4.125 -6.921875 C 4.125 -7.316406 4.082031 -7.625 4 -7.84375 C 3.914062 -8.0625 3.765625 -8.222656 3.546875 -8.328125 C 3.328125 -8.429688 3.019531 -8.484375 2.625 -8.484375 L 2.046875 -8.484375 L 2.046875 -5.359375 Z M 2.546875 -5.359375 "/></g></g></g><g fill="#ffffff" fill-opacity="1"><g transform="translate(267.556858, 255.63139)"><g><path d="M 2.21875 -9.421875 L 3.484375 -9.421875 L 5.5 0 L 4.265625 0 L 3.828125 -2.375 L 1.90625 -2.375 L 1.453125 0 L 0.21875 0 Z M 3.65625 -3.3125 L 2.859375 -7.5625 L 2.078125 -3.3125 Z M 3.65625 -3.3125 "/></g></g></g><g clip-path="url(#id1)"><path fill="#ffffff" d="M 213.066406 137.367188 L 213.066406 128.292969 L 224.042969 125.785156 L 187.316406 117.789062 L 150.871094 126.988281 L 165.289062 129.117188 C 168.714844 129.621094 171.25 132.554688 171.25 136.007812 L 171.25 140.96875 C 170.921875 142.273438 170.746094 143.640625 170.746094 145.050781 C 170.746094 154.253906 178.226562 161.714844 187.457031 161.714844 C 196.6875 161.714844 204.167969 154.253906 204.167969 145.050781 C 204.167969 143.640625 203.992188 142.273438 203.660156 140.96875 L 203.660156 135.996094 C 203.660156 132.746094 205.914062 129.929688 209.085938 129.203125 L 212.246094 128.480469 L 212.246094 137.367188 C 211.992188 137.433594 211.8125 137.566406 211.789062 137.722656 L 211.289062 137.722656 L 211.289062 142.890625 C 211.289062 143.644531 211.902344 144.257812 212.65625 144.257812 C 213.414062 144.257812 214.027344 143.644531 214.027344 142.890625 L 214.027344 137.722656 L 213.527344 137.722656 C 213.503906 137.566406 213.324219 137.433594 213.066406 137.367188 " fill-opacity="1" fill-rule="nonzero"/></g><path fill="#ffffff" d="M 217.953125 166.726562 C 229.28125 165.851562 236.015625 161.84375 239.667969 158.636719 C 240.980469 157.484375 242 156.351562 242.777344 155.351562 C 242.800781 151.128906 242.4375 146.925781 242.4375 146.925781 C 242.4375 146.925781 237.480469 159.996094 216.125 161.648438 C 193.847656 163.367188 187.457031 170.179688 187.457031 170.179688 L 187.457031 175.414062 C 190.050781 173.382812 198.414062 168.234375 217.953125 166.726562 " fill-opacity="1" fill-rule="nonzero"/><path fill="#ffffff" d="M 219.617188 173.660156 C 236.058594 172.390625 243.546875 164.933594 246.492188 160.753906 C 246.578125 155.796875 246.140625 152.289062 246.140625 152.289062 C 246.140625 152.289062 240.847656 166.238281 218.054688 168 C 194.277344 169.839844 187.457031 177.109375 187.457031 177.109375 L 187.457031 182.839844 C 190.125 180.734375 198.910156 175.261719 219.617188 173.660156 " fill-opacity="1" fill-rule="nonzero"/><path fill="#ffffff" d="M 221.167969 180.445312 C 233.734375 179.476562 241.203125 175.023438 245.257812 171.460938 C 247.367188 169.609375 248.792969 167.800781 249.710938 166.417969 C 249.738281 161.660156 249.328125 158.371094 249.328125 158.371094 C 249.328125 158.371094 243.75 173.078125 219.71875 174.9375 C 194.648438 176.875 187.457031 184.539062 187.457031 184.539062 L 187.457031 190.082031 C 190.195312 187.90625 199.375 182.128906 221.167969 180.445312 " fill-opacity="1" fill-rule="nonzero"/><g clip-path="url(#id2)"><path fill="#ffffff" d="M 222.5 187.144531 C 242.304688 185.617188 250.222656 175.859375 252.707031 171.746094 C 252.675781 167.332031 252.304688 164.359375 252.304688 164.359375 C 252.304688 164.359375 246.457031 179.777344 221.269531 181.722656 C 194.992188 183.753906 187.457031 191.789062 187.457031 191.789062 L 187.457031 197.175781 C 190.257812 194.9375 199.769531 188.902344 222.5 187.144531 " fill-opacity="1" fill-rule="nonzero"/></g><path fill="#ffffff" d="M 156.957031 166.726562 C 145.632812 165.851562 138.898438 161.84375 135.242188 158.636719 C 133.933594 157.484375 132.914062 156.351562 132.136719 155.351562 C 132.113281 151.128906 132.472656 146.925781 132.472656 146.925781 C 132.472656 146.925781 137.433594 159.996094 158.789062 161.648438 C 181.066406 163.367188 187.457031 170.179688 187.457031 170.179688 L 187.457031 175.414062 C 184.863281 173.382812 176.496094 168.234375 156.957031 166.726562 " fill-opacity="1" fill-rule="nonzero"/><path fill="#ffffff" d="M 155.296875 173.660156 C 138.851562 172.390625 131.363281 164.933594 128.417969 160.753906 C 128.335938 155.796875 128.773438 152.289062 128.773438 152.289062 C 128.773438 152.289062 134.066406 166.238281 156.859375 168 C 180.636719 169.839844 187.457031 177.109375 187.457031 177.109375 L 187.457031 182.839844 C 184.789062 180.734375 176 175.261719 155.296875 173.660156 " fill-opacity="1" fill-rule="nonzero"/><path fill="#ffffff" d="M 153.742188 180.445312 C 141.179688 179.476562 133.710938 175.023438 129.65625 171.460938 C 127.546875 169.609375 126.121094 167.800781 125.199219 166.417969 C 125.171875 161.660156 125.582031 158.371094 125.582031 158.371094 C 125.582031 158.371094 131.164062 173.078125 155.195312 174.9375 C 180.265625 176.875 187.457031 184.539062 187.457031 184.539062 L 187.457031 190.082031 C 184.714844 187.90625 175.539062 182.128906 153.742188 180.445312 " fill-opacity="1" fill-rule="nonzero"/><g clip-path="url(#id3)"><path fill="#ffffff" d="M 152.414062 187.144531 C 132.609375 185.617188 124.6875 175.859375 122.207031 171.746094 C 122.238281 167.332031 122.605469 164.359375 122.605469 164.359375 C 122.605469 164.359375 128.453125 179.777344 153.644531 181.722656 C 179.917969 183.753906 187.457031 191.789062 187.457031 191.789062 L 187.457031 197.175781 C 184.65625 194.9375 175.144531 188.902344 152.414062 187.144531 " fill-opacity="1" fill-rule="nonzero"/></g></svg>