<svg width="236" height="236" viewBox="0 0 236 236" fill="none" xmlns="http://www.w3.org/2000/svg">
<circle cx="118" cy="118" r="118" fill="#F1F7DE" fill-opacity="0.58"/>
<circle cx="97.5" cy="71.5" r="7.5" stroke="black" stroke-width="2"/>
<path d="M105 84.0005H90C88.3431 84.0005 87 85.3436 87 87.0005V102.139C87 102.853 87.2547 103.544 87.7183 104.087L91.2817 108.261C91.7453 108.804 92 109.495 92 110.209V122C92 123.657 93.3431 125 95 125H100C101.657 125 103 123.657 103 122V110.209C103 109.495 103.255 108.804 103.718 108.261L107.282 104.087C107.745 103.544 108 102.853 108 102.139V87.0005C108 85.3436 106.657 84.0005 105 84.0005Z" stroke="black" stroke-width="2" stroke-linejoin="round"/>
<path d="M114 69C113.448 69 113 69.4477 113 70C113 70.5523 113.448 71 114 71V69ZM149 70H150C150 69.4477 149.552 69 149 69V70ZM149 103V104C149.552 104 150 103.552 150 103H149ZM120 102C119.448 102 119 102.448 119 103C119 103.552 119.448 104 120 104V102ZM114 71H149V69H114V71ZM148 70V103H150V70H148ZM149 102H120V104H149V102Z" fill="black"/>
<path d="M125 79C125 78.4477 124.552 78 124 78C123.448 78 123 78.4477 123 79H125ZM124 94H123C123 94.5523 123.448 95 124 95V94ZM139 95C139.552 95 140 94.5523 140 94C140 93.4477 139.552 93 139 93V95ZM123 79V94H125V79H123ZM124 95H139V93H124V95Z" fill="black"/>
<path d="M124 83C124 83 129 83 132 86C135 89 135 94 135 94" stroke="black" stroke-width="2" stroke-linejoin="round"/>
<path d="M89.6266 155.125H83.8266V171H81.4141V155.125H75.6016V153.087H89.6266V155.125ZM97.1828 163.287C97.1828 162.771 97.1078 162.3 96.9578 161.875C96.8161 161.442 96.6036 161.071 96.3203 160.762C96.0453 160.446 95.7078 160.204 95.3078 160.037C94.9078 159.862 94.4536 159.775 93.9453 159.775C92.8786 159.775 92.0328 160.087 91.4078 160.712C90.7911 161.329 90.4078 162.187 90.2578 163.287H97.1828ZM98.9828 169.225C98.7078 169.558 98.3786 169.85 97.9953 170.1C97.612 170.342 97.1995 170.542 96.7578 170.7C96.3245 170.858 95.8745 170.975 95.4078 171.05C94.9411 171.133 94.4786 171.175 94.0203 171.175C93.1453 171.175 92.337 171.029 91.5953 170.737C90.862 170.437 90.2245 170.004 89.6828 169.438C89.1495 168.862 88.7328 168.154 88.4328 167.312C88.1328 166.471 87.9828 165.504 87.9828 164.412C87.9828 163.529 88.1161 162.704 88.3828 161.937C88.6578 161.171 89.0495 160.508 89.5578 159.95C90.0661 159.383 90.687 158.942 91.4203 158.625C92.1536 158.3 92.9786 158.137 93.8953 158.137C94.6536 158.137 95.3536 158.267 95.9953 158.525C96.6453 158.775 97.2036 159.142 97.6703 159.625C98.1453 160.1 98.5161 160.692 98.7828 161.4C99.0495 162.1 99.1828 162.9 99.1828 163.8C99.1828 164.15 99.1453 164.383 99.0703 164.5C98.9953 164.617 98.8536 164.675 98.6453 164.675H90.1828C90.2078 165.475 90.3161 166.171 90.5078 166.762C90.7078 167.354 90.9828 167.85 91.3328 168.25C91.6828 168.642 92.0995 168.937 92.5828 169.137C93.0661 169.329 93.6078 169.425 94.2078 169.425C94.7661 169.425 95.2453 169.362 95.6453 169.237C96.0536 169.104 96.4036 168.962 96.6953 168.812C96.987 168.662 97.2286 168.525 97.4203 168.4C97.6203 168.267 97.7911 168.2 97.9328 168.2C98.1161 168.2 98.2578 168.271 98.3578 168.412L98.9828 169.225ZM108.778 165.3C107.753 165.333 106.878 165.417 106.153 165.55C105.437 165.675 104.849 165.842 104.391 166.05C103.941 166.258 103.612 166.504 103.403 166.787C103.203 167.071 103.103 167.387 103.103 167.737C103.103 168.071 103.157 168.358 103.266 168.6C103.374 168.842 103.52 169.042 103.703 169.2C103.895 169.35 104.116 169.462 104.366 169.537C104.624 169.604 104.899 169.637 105.191 169.637C105.582 169.637 105.941 169.6 106.266 169.525C106.591 169.442 106.895 169.325 107.178 169.175C107.47 169.025 107.745 168.846 108.003 168.637C108.27 168.429 108.528 168.192 108.778 167.925V165.3ZM101.591 160.125C102.291 159.45 103.045 158.946 103.853 158.612C104.662 158.279 105.557 158.112 106.541 158.112C107.249 158.112 107.878 158.229 108.428 158.462C108.978 158.696 109.441 159.021 109.816 159.437C110.191 159.854 110.474 160.358 110.666 160.95C110.857 161.542 110.953 162.192 110.953 162.9V171H109.966C109.749 171 109.582 170.967 109.466 170.9C109.349 170.825 109.257 170.683 109.191 170.475L108.941 169.275C108.607 169.583 108.282 169.858 107.966 170.1C107.649 170.333 107.316 170.533 106.966 170.7C106.616 170.858 106.241 170.979 105.841 171.063C105.449 171.154 105.012 171.2 104.528 171.2C104.037 171.2 103.574 171.133 103.141 171C102.707 170.858 102.328 170.65 102.003 170.375C101.687 170.1 101.432 169.754 101.241 169.337C101.057 168.912 100.966 168.412 100.966 167.837C100.966 167.337 101.103 166.858 101.378 166.4C101.653 165.933 102.099 165.521 102.716 165.162C103.332 164.804 104.137 164.512 105.128 164.287C106.12 164.054 107.337 163.921 108.778 163.887V162.9C108.778 161.917 108.566 161.175 108.141 160.675C107.716 160.167 107.095 159.912 106.278 159.912C105.728 159.912 105.266 159.983 104.891 160.125C104.524 160.258 104.203 160.412 103.928 160.587C103.662 160.754 103.428 160.908 103.228 161.05C103.037 161.183 102.845 161.25 102.653 161.25C102.503 161.25 102.374 161.212 102.266 161.137C102.157 161.054 102.066 160.954 101.991 160.837L101.591 160.125ZM123.155 160.587C123.088 160.679 123.022 160.75 122.955 160.8C122.888 160.85 122.797 160.875 122.68 160.875C122.555 160.875 122.418 160.825 122.268 160.725C122.118 160.617 121.93 160.5 121.705 160.375C121.488 160.25 121.218 160.137 120.893 160.037C120.576 159.929 120.184 159.875 119.718 159.875C119.093 159.875 118.543 159.987 118.068 160.212C117.593 160.429 117.193 160.746 116.868 161.162C116.551 161.579 116.309 162.083 116.143 162.675C115.984 163.267 115.905 163.929 115.905 164.662C115.905 165.429 115.993 166.112 116.168 166.712C116.343 167.304 116.588 167.804 116.905 168.212C117.23 168.612 117.618 168.921 118.068 169.137C118.526 169.346 119.038 169.45 119.605 169.45C120.147 169.45 120.593 169.387 120.943 169.262C121.293 169.129 121.58 168.983 121.805 168.825C122.038 168.667 122.23 168.525 122.38 168.4C122.538 168.267 122.693 168.2 122.843 168.2C123.026 168.2 123.168 168.271 123.268 168.412L123.893 169.225C123.618 169.567 123.305 169.858 122.955 170.1C122.605 170.342 122.226 170.546 121.818 170.712C121.418 170.871 120.997 170.987 120.555 171.063C120.113 171.138 119.663 171.175 119.205 171.175C118.413 171.175 117.676 171.029 116.993 170.737C116.318 170.446 115.73 170.025 115.23 169.475C114.73 168.917 114.338 168.233 114.055 167.425C113.772 166.617 113.63 165.696 113.63 164.662C113.63 163.721 113.759 162.85 114.018 162.05C114.284 161.25 114.668 160.562 115.168 159.987C115.676 159.404 116.297 158.95 117.03 158.625C117.772 158.3 118.622 158.137 119.58 158.137C120.472 158.137 121.255 158.283 121.93 158.575C122.613 158.858 123.218 159.262 123.743 159.787L123.155 160.587ZM128.519 160.025C129.06 159.45 129.66 158.992 130.319 158.65C130.977 158.308 131.735 158.137 132.594 158.137C133.285 158.137 133.894 158.254 134.419 158.487C134.952 158.712 135.394 159.037 135.744 159.462C136.102 159.879 136.373 160.383 136.556 160.975C136.739 161.567 136.831 162.221 136.831 162.937V171H134.594V162.937C134.594 161.979 134.373 161.237 133.931 160.712C133.498 160.179 132.835 159.912 131.944 159.912C131.285 159.912 130.669 160.071 130.094 160.387C129.527 160.704 129.002 161.133 128.519 161.675V171H126.281V152.587H128.519V160.025ZM148.696 163.287C148.696 162.771 148.621 162.3 148.471 161.875C148.33 161.442 148.117 161.071 147.834 160.762C147.559 160.446 147.221 160.204 146.821 160.037C146.421 159.862 145.967 159.775 145.459 159.775C144.392 159.775 143.546 160.087 142.921 160.712C142.305 161.329 141.921 162.187 141.771 163.287H148.696ZM150.496 169.225C150.221 169.558 149.892 169.85 149.509 170.1C149.126 170.342 148.713 170.542 148.271 170.7C147.838 170.858 147.388 170.975 146.921 171.05C146.455 171.133 145.992 171.175 145.534 171.175C144.659 171.175 143.851 171.029 143.109 170.737C142.376 170.437 141.738 170.004 141.196 169.438C140.663 168.862 140.246 168.154 139.946 167.312C139.646 166.471 139.496 165.504 139.496 164.412C139.496 163.529 139.63 162.704 139.896 161.937C140.171 161.171 140.563 160.508 141.071 159.95C141.58 159.383 142.201 158.942 142.934 158.625C143.667 158.3 144.492 158.137 145.409 158.137C146.167 158.137 146.867 158.267 147.509 158.525C148.159 158.775 148.717 159.142 149.184 159.625C149.659 160.1 150.03 160.692 150.296 161.4C150.563 162.1 150.696 162.9 150.696 163.8C150.696 164.15 150.659 164.383 150.584 164.5C150.509 164.617 150.367 164.675 150.159 164.675H141.696C141.721 165.475 141.83 166.171 142.021 166.762C142.221 167.354 142.496 167.85 142.846 168.25C143.196 168.642 143.613 168.937 144.096 169.137C144.58 169.329 145.121 169.425 145.721 169.425C146.28 169.425 146.759 169.362 147.159 169.237C147.567 169.104 147.917 168.962 148.209 168.812C148.501 168.662 148.742 168.525 148.934 168.4C149.134 168.267 149.305 168.2 149.446 168.2C149.63 168.2 149.771 168.271 149.871 168.412L150.496 169.225ZM155.542 160.875C155.942 160.008 156.434 159.333 157.017 158.85C157.6 158.358 158.313 158.112 159.154 158.112C159.421 158.112 159.675 158.142 159.917 158.2C160.167 158.258 160.388 158.35 160.579 158.475L160.417 160.137C160.367 160.346 160.242 160.45 160.042 160.45C159.925 160.45 159.754 160.425 159.529 160.375C159.304 160.325 159.05 160.3 158.767 160.3C158.367 160.3 158.009 160.358 157.692 160.475C157.384 160.592 157.104 160.767 156.854 161C156.613 161.225 156.392 161.508 156.192 161.85C156 162.183 155.825 162.567 155.667 163V171H153.429V158.337H154.704C154.946 158.337 155.113 158.383 155.204 158.475C155.296 158.567 155.359 158.725 155.392 158.95L155.542 160.875Z" fill="black"/>
</svg>
