<svg width="236" height="236" viewBox="0 0 236 236" fill="none" xmlns="http://www.w3.org/2000/svg">
<circle cx="118" cy="118" r="118" fill="#F1F7DE" fill-opacity="0.58"/>
<circle cx="117.5" cy="71.5" r="7.5" stroke="black" stroke-width="2"/>
<path d="M125 84.0005H110C108.343 84.0005 107 85.3436 107 87.0005V102.139C107 102.853 107.255 103.544 107.718 104.087L111.282 108.261C111.745 108.804 112 109.495 112 110.209V122C112 123.657 113.343 125 115 125H120C121.657 125 123 123.657 123 122V110.209C123 109.495 123.255 108.804 123.718 108.261L127.282 104.087C127.745 103.544 128 102.853 128 102.139V87.0005C128 85.3436 126.657 84.0005 125 84.0005Z" stroke="black" stroke-width="2" stroke-linejoin="round"/>
<path d="M105.153 62.5L117.5 56.5549L129.847 62.5L117.5 68.4451L105.153 62.5ZM130.222 62.3198L130.221 62.32L130.222 62.3198ZM117.413 68.4868C117.413 68.4868 117.413 68.4867 117.414 68.4867L117.413 68.4868Z" fill="black" stroke="black"/>
<path d="M105 72C105 72.5523 105.448 73 106 73C106.552 73 107 72.5523 107 72H105ZM105 62.5V72H107V62.5H105Z" fill="black"/>
<path d="M86.5301 155.887C86.4551 156.012 86.3717 156.108 86.2801 156.175C86.1967 156.233 86.0926 156.262 85.9676 156.262C85.8259 156.262 85.6592 156.192 85.4676 156.05C85.2759 155.908 85.0342 155.754 84.7426 155.587C84.4592 155.412 84.1134 155.254 83.7051 155.112C83.3051 154.971 82.8176 154.9 82.2426 154.9C81.7009 154.9 81.2217 154.975 80.8051 155.125C80.3967 155.267 80.0509 155.462 79.7676 155.712C79.4926 155.962 79.2842 156.258 79.1426 156.6C79.0009 156.933 78.9301 157.296 78.9301 157.687C78.9301 158.187 79.0509 158.604 79.2926 158.937C79.5426 159.262 79.8676 159.542 80.2676 159.775C80.6759 160.008 81.1342 160.212 81.6426 160.387C82.1592 160.554 82.6842 160.729 83.2176 160.912C83.7592 161.096 84.2842 161.304 84.7926 161.537C85.3092 161.762 85.7676 162.05 86.1676 162.4C86.5759 162.75 86.9009 163.179 87.1426 163.687C87.3926 164.196 87.5176 164.821 87.5176 165.562C87.5176 166.346 87.3842 167.083 87.1176 167.775C86.8509 168.458 86.4592 169.054 85.9426 169.562C85.4342 170.071 84.8051 170.471 84.0551 170.762C83.3134 171.054 82.4676 171.2 81.5176 171.2C80.3509 171.2 79.2926 170.992 78.3426 170.575C77.3926 170.15 76.5801 169.579 75.9051 168.862L76.6051 167.712C76.6717 167.621 76.7509 167.546 76.8426 167.487C76.9426 167.421 77.0509 167.387 77.1676 167.387C77.2759 167.387 77.3967 167.433 77.5301 167.525C77.6717 167.608 77.8301 167.717 78.0051 167.85C78.1801 167.983 78.3801 168.129 78.6051 168.287C78.8301 168.446 79.0842 168.592 79.3676 168.725C79.6592 168.858 79.9884 168.971 80.3551 169.062C80.7217 169.146 81.1342 169.187 81.5926 169.187C82.1676 169.187 82.6801 169.108 83.1301 168.95C83.5801 168.792 83.9592 168.571 84.2676 168.287C84.5842 167.996 84.8259 167.65 84.9926 167.25C85.1592 166.85 85.2426 166.404 85.2426 165.912C85.2426 165.371 85.1176 164.929 84.8676 164.587C84.6259 164.237 84.3051 163.946 83.9051 163.712C83.5051 163.479 83.0467 163.283 82.5301 163.125C82.0134 162.958 81.4884 162.792 80.9551 162.625C80.4217 162.45 79.8967 162.25 79.3801 162.025C78.8634 161.8 78.4051 161.508 78.0051 161.15C77.6051 160.792 77.2801 160.346 77.0301 159.812C76.7884 159.271 76.6676 158.604 76.6676 157.812C76.6676 157.179 76.7884 156.567 77.0301 155.975C77.2801 155.383 77.6384 154.858 78.1051 154.4C78.5801 153.942 79.1592 153.575 79.8426 153.3C80.5342 153.025 81.3259 152.887 82.2176 152.887C83.2176 152.887 84.1259 153.046 84.9426 153.362C85.7676 153.679 86.4926 154.137 87.1176 154.737L86.5301 155.887ZM93.7428 171.2C92.7428 171.2 91.9719 170.921 91.4303 170.362C90.8969 169.804 90.6303 169 90.6303 167.95V160.2H89.1053C88.9719 160.2 88.8594 160.162 88.7678 160.087C88.6761 160.004 88.6303 159.879 88.6303 159.712V158.825L90.7053 158.562L91.2178 154.65C91.2428 154.525 91.2969 154.425 91.3803 154.35C91.4719 154.267 91.5886 154.225 91.7303 154.225H92.8553V158.587H96.5178V160.2H92.8553V167.8C92.8553 168.333 92.9844 168.729 93.2428 168.987C93.5011 169.246 93.8344 169.375 94.2428 169.375C94.4761 169.375 94.6761 169.346 94.8428 169.287C95.0178 169.221 95.1678 169.15 95.2928 169.075C95.4178 169 95.5219 168.933 95.6053 168.875C95.6969 168.808 95.7761 168.775 95.8428 168.775C95.9594 168.775 96.0636 168.846 96.1553 168.987L96.8053 170.05C96.4219 170.408 95.9594 170.692 95.4178 170.9C94.8761 171.1 94.3178 171.2 93.7428 171.2ZM109.228 158.337V171H107.903C107.586 171 107.386 170.846 107.303 170.537L107.128 169.175C106.578 169.783 105.961 170.275 105.278 170.65C104.594 171.017 103.811 171.2 102.928 171.2C102.236 171.2 101.624 171.088 101.09 170.862C100.565 170.629 100.124 170.304 99.7652 169.887C99.4069 169.471 99.1361 168.967 98.9527 168.375C98.7777 167.783 98.6902 167.129 98.6902 166.412V158.337H100.915V166.412C100.915 167.371 101.132 168.112 101.565 168.637C102.007 169.162 102.678 169.425 103.578 169.425C104.236 169.425 104.849 169.271 105.415 168.962C105.99 168.646 106.519 168.212 107.003 167.662V158.337H109.228ZM121.006 161.35C120.589 160.792 120.139 160.404 119.656 160.187C119.172 159.962 118.631 159.85 118.031 159.85C116.856 159.85 115.951 160.271 115.318 161.112C114.685 161.954 114.368 163.154 114.368 164.712C114.368 165.537 114.439 166.246 114.581 166.837C114.722 167.421 114.931 167.904 115.206 168.287C115.481 168.662 115.818 168.937 116.218 169.112C116.618 169.287 117.072 169.375 117.581 169.375C118.314 169.375 118.951 169.208 119.493 168.875C120.043 168.542 120.547 168.071 121.006 167.462V161.35ZM123.231 152.587V171H121.906C121.589 171 121.389 170.846 121.306 170.537L121.106 169C120.564 169.65 119.947 170.175 119.256 170.575C118.564 170.975 117.764 171.175 116.856 171.175C116.131 171.175 115.472 171.037 114.881 170.762C114.289 170.479 113.785 170.067 113.368 169.525C112.951 168.983 112.631 168.308 112.406 167.5C112.181 166.692 112.068 165.762 112.068 164.712C112.068 163.779 112.193 162.912 112.443 162.112C112.693 161.304 113.051 160.604 113.518 160.012C113.985 159.421 114.556 158.958 115.231 158.625C115.914 158.283 116.681 158.112 117.531 158.112C118.306 158.112 118.968 158.246 119.518 158.512C120.076 158.771 120.572 159.133 121.006 159.6V152.587H123.231ZM135.22 163.287C135.22 162.771 135.145 162.3 134.995 161.875C134.853 161.442 134.641 161.071 134.357 160.762C134.082 160.446 133.745 160.204 133.345 160.037C132.945 159.862 132.491 159.775 131.982 159.775C130.916 159.775 130.07 160.087 129.445 160.712C128.828 161.329 128.445 162.187 128.295 163.287H135.22ZM137.02 169.225C136.745 169.558 136.416 169.85 136.032 170.1C135.649 170.342 135.237 170.542 134.795 170.7C134.362 170.858 133.912 170.975 133.445 171.05C132.978 171.133 132.516 171.175 132.057 171.175C131.182 171.175 130.374 171.029 129.632 170.737C128.899 170.437 128.262 170.004 127.72 169.438C127.187 168.862 126.77 168.154 126.47 167.312C126.17 166.471 126.02 165.504 126.02 164.412C126.02 163.529 126.153 162.704 126.42 161.937C126.695 161.171 127.087 160.508 127.595 159.95C128.103 159.383 128.724 158.942 129.457 158.625C130.191 158.3 131.016 158.137 131.932 158.137C132.691 158.137 133.391 158.267 134.032 158.525C134.682 158.775 135.241 159.142 135.707 159.625C136.182 160.1 136.553 160.692 136.82 161.4C137.087 162.1 137.22 162.9 137.22 163.8C137.22 164.15 137.182 164.383 137.107 164.5C137.032 164.617 136.891 164.675 136.682 164.675H128.22C128.245 165.475 128.353 166.171 128.545 166.762C128.745 167.354 129.02 167.85 129.37 168.25C129.72 168.642 130.137 168.937 130.62 169.137C131.103 169.329 131.645 169.425 132.245 169.425C132.803 169.425 133.282 169.362 133.682 169.237C134.091 169.104 134.441 168.962 134.732 168.812C135.024 168.662 135.266 168.525 135.457 168.4C135.657 168.267 135.828 168.2 135.97 168.2C136.153 168.2 136.295 168.271 136.395 168.412L137.02 169.225ZM142.053 160.175C142.328 159.867 142.62 159.587 142.928 159.337C143.236 159.087 143.561 158.875 143.903 158.7C144.253 158.517 144.62 158.379 145.003 158.287C145.395 158.187 145.815 158.137 146.265 158.137C146.957 158.137 147.565 158.254 148.09 158.487C148.624 158.712 149.065 159.037 149.415 159.462C149.774 159.879 150.045 160.383 150.228 160.975C150.411 161.567 150.503 162.221 150.503 162.937V171H148.265V162.937C148.265 161.979 148.045 161.237 147.603 160.712C147.17 160.179 146.507 159.912 145.615 159.912C144.957 159.912 144.34 160.071 143.765 160.387C143.199 160.704 142.674 161.133 142.19 161.675V171H139.953V158.337H141.29C141.607 158.337 141.803 158.492 141.878 158.8L142.053 160.175ZM157.61 171.2C156.61 171.2 155.839 170.921 155.297 170.362C154.764 169.804 154.497 169 154.497 167.95V160.2H152.972C152.839 160.2 152.727 160.162 152.635 160.087C152.543 160.004 152.497 159.879 152.497 159.712V158.825L154.572 158.562L155.085 154.65C155.11 154.525 155.164 154.425 155.247 154.35C155.339 154.267 155.456 154.225 155.597 154.225H156.722V158.587H160.385V160.2H156.722V167.8C156.722 168.333 156.852 168.729 157.11 168.987C157.368 169.246 157.702 169.375 158.11 169.375C158.343 169.375 158.543 169.346 158.71 169.287C158.885 169.221 159.035 169.15 159.16 169.075C159.285 169 159.389 168.933 159.472 168.875C159.564 168.808 159.643 168.775 159.71 168.775C159.827 168.775 159.931 168.846 160.022 168.987L160.672 170.05C160.289 170.408 159.827 170.692 159.285 170.9C158.743 171.1 158.185 171.2 157.61 171.2Z" fill="black"/>
</svg>
