<svg width="236" height="236" viewBox="0 0 236 236" fill="none" xmlns="http://www.w3.org/2000/svg">
<circle cx="118" cy="118" r="118" fill="#F1F7DE" fill-opacity="0.58"/>
<circle cx="97.5" cy="71.5" r="7.5" stroke="black" stroke-width="2"/>
<path d="M105 84.0005H90C88.3431 84.0005 87 85.3436 87 87.0005V102.139C87 102.853 87.2547 103.544 87.7183 104.087L91.2817 108.261C91.7453 108.804 92 109.495 92 110.209V122C92 123.657 93.3431 125 95 125H100C101.657 125 103 123.657 103 122V110.209C103 109.495 103.255 108.804 103.718 108.261L107.282 104.087C107.745 103.544 108 102.853 108 102.139V87.0005C108 85.3436 106.657 84.0005 105 84.0005Z" stroke="black" stroke-width="2" stroke-linejoin="round"/>
<path d="M121 69C120.448 69 120 69.4477 120 70C120 70.5523 120.448 71 121 71V69ZM149 70H150C150 69.4477 149.552 69 149 69V70ZM149 103V104C149.552 104 150 103.552 150 103H149ZM121 102C120.448 102 120 102.448 120 103C120 103.552 120.448 104 121 104V102ZM121 71H149V69H121V71ZM148 70V103H150V70H148ZM149 102H121V104H149V102Z" fill="black"/>
<path d="M80.7562 155.887C80.6812 156.012 80.5978 156.108 80.5062 156.175C80.4228 156.233 80.3187 156.262 80.1937 156.262C80.052 156.262 79.8853 156.192 79.6937 156.05C79.502 155.908 79.2603 155.754 78.9687 155.587C78.6853 155.412 78.3395 155.254 77.9312 155.112C77.5312 154.971 77.0437 154.9 76.4687 154.9C75.927 154.9 75.4478 154.975 75.0312 155.125C74.6228 155.267 74.277 155.462 73.9937 155.712C73.7187 155.962 73.5103 156.258 73.3687 156.6C73.227 156.933 73.1562 157.296 73.1562 157.687C73.1562 158.187 73.277 158.604 73.5187 158.937C73.7687 159.262 74.0937 159.542 74.4937 159.775C74.902 160.008 75.3603 160.212 75.8687 160.387C76.3853 160.554 76.9103 160.729 77.4437 160.912C77.9853 161.096 78.5103 161.304 79.0187 161.537C79.5353 161.762 79.9937 162.05 80.3937 162.4C80.802 162.75 81.127 163.179 81.3687 163.687C81.6187 164.196 81.7437 164.821 81.7437 165.562C81.7437 166.346 81.6103 167.083 81.3437 167.775C81.077 168.458 80.6853 169.054 80.1687 169.562C79.6603 170.071 79.0312 170.471 78.2812 170.762C77.5395 171.054 76.6937 171.2 75.7437 171.2C74.577 171.2 73.5187 170.992 72.5687 170.575C71.6187 170.15 70.8062 169.579 70.1312 168.862L70.8312 167.712C70.8978 167.621 70.977 167.546 71.0687 167.487C71.1687 167.421 71.277 167.387 71.3937 167.387C71.502 167.387 71.6228 167.433 71.7562 167.525C71.8978 167.608 72.0562 167.717 72.2312 167.85C72.4062 167.983 72.6062 168.129 72.8312 168.287C73.0562 168.446 73.3103 168.592 73.5937 168.725C73.8853 168.858 74.2145 168.971 74.5812 169.062C74.9478 169.146 75.3603 169.187 75.8187 169.187C76.3937 169.187 76.9062 169.108 77.3562 168.95C77.8062 168.792 78.1853 168.571 78.4937 168.287C78.8103 167.996 79.052 167.65 79.2187 167.25C79.3853 166.85 79.4687 166.404 79.4687 165.912C79.4687 165.371 79.3437 164.929 79.0937 164.587C78.852 164.237 78.5312 163.946 78.1312 163.712C77.7312 163.479 77.2728 163.283 76.7562 163.125C76.2395 162.958 75.7145 162.792 75.1812 162.625C74.6478 162.45 74.1228 162.25 73.6062 162.025C73.0895 161.8 72.6312 161.508 72.2312 161.15C71.8312 160.792 71.5062 160.346 71.2562 159.812C71.0145 159.271 70.8937 158.604 70.8937 157.812C70.8937 157.179 71.0145 156.567 71.2562 155.975C71.5062 155.383 71.8645 154.858 72.3312 154.4C72.8062 153.942 73.3853 153.575 74.0687 153.3C74.7603 153.025 75.552 152.887 76.4437 152.887C77.4437 152.887 78.352 153.046 79.1687 153.362C79.9937 153.679 80.7187 154.137 81.3437 154.737L80.7562 155.887ZM86.8708 158.337V171H84.6458V158.337H86.8708ZM87.3458 154.362C87.3458 154.579 87.3 154.783 87.2083 154.975C87.125 155.158 87.0083 155.325 86.8583 155.475C86.7166 155.617 86.5458 155.729 86.3458 155.812C86.1541 155.896 85.95 155.937 85.7333 155.937C85.5166 155.937 85.3125 155.896 85.1208 155.812C84.9375 155.729 84.775 155.617 84.6333 155.475C84.4916 155.325 84.3791 155.158 84.2958 154.975C84.2125 154.783 84.1708 154.579 84.1708 154.362C84.1708 154.146 84.2125 153.942 84.2958 153.75C84.3791 153.55 84.4916 153.379 84.6333 153.237C84.775 153.087 84.9375 152.971 85.1208 152.887C85.3125 152.804 85.5166 152.762 85.7333 152.762C85.95 152.762 86.1541 152.804 86.3458 152.887C86.5458 152.971 86.7166 153.087 86.8583 153.237C87.0083 153.379 87.125 153.55 87.2083 153.75C87.3 153.942 87.3458 154.146 87.3458 154.362ZM90.5267 171V158.337H91.8642C92.1808 158.337 92.3767 158.492 92.4517 158.8L92.6142 160.1C93.0808 159.525 93.6058 159.054 94.1892 158.687C94.7725 158.321 95.4475 158.137 96.2142 158.137C97.0642 158.137 97.7517 158.375 98.2767 158.85C98.81 159.325 99.1933 159.967 99.4267 160.775C99.61 160.317 99.8433 159.921 100.127 159.587C100.418 159.254 100.743 158.979 101.102 158.762C101.46 158.546 101.839 158.387 102.239 158.287C102.647 158.187 103.06 158.137 103.477 158.137C104.143 158.137 104.735 158.246 105.252 158.462C105.777 158.671 106.218 158.979 106.577 159.387C106.943 159.796 107.222 160.3 107.414 160.9C107.606 161.492 107.702 162.171 107.702 162.937V171H105.464V162.937C105.464 161.946 105.247 161.196 104.814 160.687C104.381 160.171 103.756 159.912 102.939 159.912C102.572 159.912 102.222 159.979 101.889 160.112C101.564 160.237 101.277 160.425 101.027 160.675C100.777 160.925 100.577 161.242 100.427 161.625C100.285 162 100.214 162.437 100.214 162.937V171H97.9767V162.937C97.9767 161.921 97.7725 161.162 97.3642 160.662C96.9558 160.162 96.36 159.912 95.5767 159.912C95.0267 159.912 94.5183 160.062 94.0517 160.362C93.585 160.654 93.1558 161.054 92.7642 161.562V171H90.5267ZM113.321 167.95C113.729 168.5 114.175 168.887 114.658 169.112C115.142 169.337 115.683 169.45 116.283 169.45C117.467 169.45 118.375 169.029 119.008 168.187C119.642 167.346 119.958 166.146 119.958 164.587C119.958 163.762 119.883 163.054 119.733 162.462C119.592 161.871 119.383 161.387 119.108 161.012C118.833 160.629 118.496 160.35 118.096 160.175C117.696 160 117.242 159.912 116.733 159.912C116.008 159.912 115.371 160.079 114.821 160.412C114.279 160.746 113.779 161.217 113.321 161.825V167.95ZM113.208 160.3C113.742 159.642 114.358 159.112 115.058 158.712C115.758 158.312 116.558 158.112 117.458 158.112C118.192 158.112 118.854 158.254 119.446 158.537C120.037 158.812 120.542 159.225 120.958 159.775C121.375 160.317 121.696 160.992 121.921 161.8C122.146 162.608 122.258 163.537 122.258 164.587C122.258 165.521 122.133 166.392 121.883 167.2C121.633 168 121.271 168.696 120.796 169.287C120.329 169.871 119.754 170.333 119.071 170.675C118.396 171.008 117.633 171.175 116.783 171.175C116.008 171.175 115.342 171.046 114.783 170.787C114.233 170.521 113.746 170.154 113.321 169.687V175.288H111.083V158.337H112.421C112.737 158.337 112.933 158.492 113.008 158.8L113.208 160.3ZM136.676 171H134.451V160.2H127.926V167.8C127.926 168.333 128.055 168.729 128.314 168.987C128.572 169.246 128.905 169.375 129.314 169.375C129.547 169.375 129.747 169.346 129.914 169.287C130.089 169.221 130.239 169.15 130.364 169.075C130.489 169 130.593 168.933 130.676 168.875C130.768 168.808 130.847 168.775 130.914 168.775C131.03 168.775 131.134 168.846 131.226 168.987L131.876 170.05C131.493 170.408 131.03 170.692 130.489 170.9C129.947 171.1 129.389 171.2 128.814 171.2C127.814 171.2 127.043 170.921 126.501 170.362C125.968 169.804 125.701 169 125.701 167.95V160.2H124.176C124.043 160.2 123.93 160.162 123.839 160.087C123.747 160.004 123.701 159.879 123.701 159.712V158.825L125.776 158.55L126.289 154.65C126.314 154.525 126.368 154.425 126.451 154.35C126.543 154.267 126.659 154.225 126.801 154.225H127.926V158.587H136.676V171ZM137.226 154.275C137.226 154.492 137.18 154.696 137.089 154.887C137.005 155.071 136.889 155.233 136.739 155.375C136.597 155.517 136.43 155.629 136.239 155.712C136.047 155.796 135.843 155.837 135.626 155.837C135.409 155.837 135.205 155.796 135.014 155.712C134.83 155.629 134.668 155.517 134.526 155.375C134.384 155.233 134.272 155.071 134.189 154.887C134.105 154.696 134.064 154.492 134.064 154.275C134.064 154.058 134.105 153.854 134.189 153.662C134.272 153.462 134.384 153.292 134.526 153.15C134.668 153 134.83 152.883 135.014 152.8C135.205 152.717 135.409 152.675 135.626 152.675C135.843 152.675 136.047 152.717 136.239 152.8C136.43 152.883 136.597 153 136.739 153.15C136.889 153.292 137.005 153.462 137.089 153.662C137.18 153.854 137.226 154.058 137.226 154.275ZM145.669 158.137C146.594 158.137 147.427 158.292 148.169 158.6C148.911 158.908 149.544 159.346 150.069 159.912C150.594 160.479 150.994 161.167 151.269 161.975C151.552 162.775 151.694 163.671 151.694 164.662C151.694 165.662 151.552 166.562 151.269 167.362C150.994 168.162 150.594 168.846 150.069 169.412C149.544 169.979 148.911 170.417 148.169 170.725C147.427 171.025 146.594 171.175 145.669 171.175C144.736 171.175 143.894 171.025 143.144 170.725C142.402 170.417 141.769 169.979 141.244 169.412C140.719 168.846 140.315 168.162 140.031 167.362C139.756 166.562 139.619 165.662 139.619 164.662C139.619 163.671 139.756 162.775 140.031 161.975C140.315 161.167 140.719 160.479 141.244 159.912C141.769 159.346 142.402 158.908 143.144 158.6C143.894 158.292 144.736 158.137 145.669 158.137ZM145.669 169.438C146.919 169.438 147.852 169.021 148.469 168.187C149.086 167.346 149.394 166.175 149.394 164.675C149.394 163.167 149.086 161.992 148.469 161.15C147.852 160.308 146.919 159.887 145.669 159.887C145.036 159.887 144.481 159.996 144.006 160.212C143.54 160.429 143.148 160.742 142.831 161.15C142.523 161.558 142.29 162.062 142.131 162.662C141.981 163.254 141.906 163.925 141.906 164.675C141.906 166.175 142.215 167.346 142.831 168.187C143.456 169.021 144.402 169.438 145.669 169.438ZM156.616 160.175C156.891 159.867 157.183 159.587 157.491 159.337C157.799 159.087 158.124 158.875 158.466 158.7C158.816 158.517 159.183 158.379 159.566 158.287C159.958 158.187 160.378 158.137 160.828 158.137C161.52 158.137 162.128 158.254 162.653 158.487C163.187 158.712 163.628 159.037 163.978 159.462C164.337 159.879 164.608 160.383 164.791 160.975C164.974 161.567 165.066 162.221 165.066 162.937V171H162.828V162.937C162.828 161.979 162.608 161.237 162.166 160.712C161.733 160.179 161.07 159.912 160.178 159.912C159.52 159.912 158.903 160.071 158.328 160.387C157.762 160.704 157.237 161.133 156.753 161.675V171H154.516V158.337H155.853C156.17 158.337 156.366 158.492 156.441 158.8L156.616 160.175Z" fill="black"/>
<path d="M149 81H121" stroke="black" stroke-width="2" stroke-linecap="round"/>
<path d="M121 92V81" stroke="black" stroke-width="2" stroke-linecap="round"/>
<path d="M121 81V70" stroke="black" stroke-width="2" stroke-linecap="round"/>
<path d="M121 103V91" stroke="black" stroke-width="2" stroke-linecap="round"/>
<path d="M149 92H121" stroke="black" stroke-width="2" stroke-linecap="round"/>
</svg>
