<svg width="236" height="236" viewBox="0 0 236 236" fill="none" xmlns="http://www.w3.org/2000/svg">
<circle cx="118" cy="118" r="118" fill="#F1F7DE" fill-opacity="0.58"/>
<circle cx="97.5" cy="71.5" r="7.5" stroke="black" stroke-width="2"/>
<path d="M105 84.0005H90C88.3431 84.0005 87 85.3436 87 87.0005V102.139C87 102.853 87.2547 103.544 87.7183 104.087L91.2817 108.261C91.7453 108.804 92 109.495 92 110.209V122C92 123.657 93.3431 125 95 125H100C101.657 125 103 123.657 103 122V110.209C103 109.495 103.255 108.804 103.718 108.261L107.282 104.087C107.745 103.544 108 102.853 108 102.139V87.0005C108 85.3436 106.657 84.0005 105 84.0005Z" stroke="black" stroke-width="2" stroke-linejoin="round"/>
<path d="M121 69C120.448 69 120 69.4477 120 70C120 70.5523 120.448 71 121 71V69ZM149 70H150C150 69.4477 149.552 69 149 69V70ZM149 103V104C149.552 104 150 103.552 150 103H149ZM121 102C120.448 102 120 102.448 120 103C120 103.552 120.448 104 121 104V102ZM121 71H149V69H121V71ZM148 70V103H150V70H148ZM149 102H121V104H149V102Z" fill="black"/>
<path d="M92.6214 155.887C92.5464 156.012 92.4631 156.108 92.3714 156.175C92.2881 156.233 92.1839 156.262 92.0589 156.262C91.9172 156.262 91.7506 156.192 91.5589 156.05C91.3672 155.908 91.1256 155.754 90.8339 155.587C90.5506 155.412 90.2047 155.254 89.7964 155.112C89.3964 154.971 88.9089 154.9 88.3339 154.9C87.7922 154.9 87.3131 154.975 86.8964 155.125C86.4881 155.267 86.1422 155.462 85.8589 155.712C85.5839 155.962 85.3756 156.258 85.2339 156.6C85.0922 156.933 85.0214 157.296 85.0214 157.687C85.0214 158.187 85.1422 158.604 85.3839 158.937C85.6339 159.262 85.9589 159.542 86.3589 159.775C86.7672 160.008 87.2256 160.212 87.7339 160.387C88.2506 160.554 88.7756 160.729 89.3089 160.912C89.8506 161.096 90.3756 161.304 90.8839 161.537C91.4006 161.762 91.8589 162.05 92.2589 162.4C92.6672 162.75 92.9922 163.179 93.2339 163.687C93.4839 164.196 93.6089 164.821 93.6089 165.562C93.6089 166.346 93.4756 167.083 93.2089 167.775C92.9422 168.458 92.5506 169.054 92.0339 169.562C91.5256 170.071 90.8964 170.471 90.1464 170.762C89.4047 171.054 88.5589 171.2 87.6089 171.2C86.4422 171.2 85.3839 170.992 84.4339 170.575C83.4839 170.15 82.6714 169.579 81.9964 168.862L82.6964 167.712C82.7631 167.621 82.8422 167.546 82.9339 167.487C83.0339 167.421 83.1422 167.387 83.2589 167.387C83.3672 167.387 83.4881 167.433 83.6214 167.525C83.7631 167.608 83.9214 167.717 84.0964 167.85C84.2714 167.983 84.4714 168.129 84.6964 168.287C84.9214 168.446 85.1756 168.592 85.4589 168.725C85.7506 168.858 86.0797 168.971 86.4464 169.062C86.8131 169.146 87.2256 169.187 87.6839 169.187C88.2589 169.187 88.7714 169.108 89.2214 168.95C89.6714 168.792 90.0506 168.571 90.3589 168.287C90.6756 167.996 90.9172 167.65 91.0839 167.25C91.2506 166.85 91.3339 166.404 91.3339 165.912C91.3339 165.371 91.2089 164.929 90.9589 164.587C90.7172 164.237 90.3964 163.946 89.9964 163.712C89.5964 163.479 89.1381 163.283 88.6214 163.125C88.1047 162.958 87.5797 162.792 87.0464 162.625C86.5131 162.45 85.9881 162.25 85.4714 162.025C84.9547 161.8 84.4964 161.508 84.0964 161.15C83.6964 160.792 83.3714 160.346 83.1214 159.812C82.8797 159.271 82.7589 158.604 82.7589 157.812C82.7589 157.179 82.8797 156.567 83.1214 155.975C83.3714 155.383 83.7297 154.858 84.1964 154.4C84.6714 153.942 85.2506 153.575 85.9339 153.3C86.6256 153.025 87.4172 152.887 88.3089 152.887C89.3089 152.887 90.2172 153.046 91.0339 153.362C91.8589 153.679 92.5839 154.137 93.2089 154.737L92.6214 155.887ZM105.247 160.587C105.181 160.679 105.114 160.75 105.047 160.8C104.981 160.85 104.889 160.875 104.772 160.875C104.647 160.875 104.51 160.825 104.36 160.725C104.21 160.617 104.022 160.5 103.797 160.375C103.581 160.25 103.31 160.137 102.985 160.037C102.668 159.929 102.277 159.875 101.81 159.875C101.185 159.875 100.635 159.987 100.16 160.212C99.6849 160.429 99.2849 160.746 98.9599 161.162C98.6432 161.579 98.4015 162.083 98.2349 162.675C98.0765 163.267 97.9974 163.929 97.9974 164.662C97.9974 165.429 98.0849 166.112 98.2599 166.712C98.4349 167.304 98.6807 167.804 98.9974 168.212C99.3224 168.612 99.7099 168.921 100.16 169.137C100.618 169.346 101.131 169.45 101.697 169.45C102.239 169.45 102.685 169.387 103.035 169.262C103.385 169.129 103.672 168.983 103.897 168.825C104.131 168.667 104.322 168.525 104.472 168.4C104.631 168.267 104.785 168.2 104.935 168.2C105.118 168.2 105.26 168.271 105.36 168.412L105.985 169.225C105.71 169.567 105.397 169.858 105.047 170.1C104.697 170.342 104.318 170.546 103.91 170.712C103.51 170.871 103.089 170.987 102.647 171.063C102.206 171.138 101.756 171.175 101.297 171.175C100.506 171.175 99.7682 171.029 99.0849 170.737C98.4099 170.446 97.8224 170.025 97.3224 169.475C96.8224 168.917 96.4307 168.233 96.1474 167.425C95.864 166.617 95.7224 165.696 95.7224 164.662C95.7224 163.721 95.8515 162.85 96.1099 162.05C96.3765 161.25 96.7599 160.562 97.2599 159.987C97.7682 159.404 98.389 158.95 99.1224 158.625C99.864 158.3 100.714 158.137 101.672 158.137C102.564 158.137 103.347 158.283 104.022 158.575C104.706 158.858 105.31 159.262 105.835 159.787L105.247 160.587ZM110.611 160.025C111.153 159.45 111.753 158.992 112.411 158.65C113.069 158.308 113.828 158.137 114.686 158.137C115.378 158.137 115.986 158.254 116.511 158.487C117.044 158.712 117.486 159.037 117.836 159.462C118.194 159.879 118.465 160.383 118.648 160.975C118.832 161.567 118.923 162.221 118.923 162.937V171H116.686V162.937C116.686 161.979 116.465 161.237 116.023 160.712C115.59 160.179 114.928 159.912 114.036 159.912C113.378 159.912 112.761 160.071 112.186 160.387C111.619 160.704 111.094 161.133 110.611 161.675V171H108.373V152.587H110.611V160.025ZM127.651 158.137C128.576 158.137 129.41 158.292 130.151 158.6C130.893 158.908 131.526 159.346 132.051 159.912C132.576 160.479 132.976 161.167 133.251 161.975C133.535 162.775 133.676 163.671 133.676 164.662C133.676 165.662 133.535 166.562 133.251 167.362C132.976 168.162 132.576 168.846 132.051 169.412C131.526 169.979 130.893 170.417 130.151 170.725C129.41 171.025 128.576 171.175 127.651 171.175C126.718 171.175 125.876 171.025 125.126 170.725C124.385 170.417 123.751 169.979 123.226 169.412C122.701 168.846 122.297 168.162 122.014 167.362C121.739 166.562 121.601 165.662 121.601 164.662C121.601 163.671 121.739 162.775 122.014 161.975C122.297 161.167 122.701 160.479 123.226 159.912C123.751 159.346 124.385 158.908 125.126 158.6C125.876 158.292 126.718 158.137 127.651 158.137ZM127.651 169.438C128.901 169.438 129.835 169.021 130.451 168.187C131.068 167.346 131.376 166.175 131.376 164.675C131.376 163.167 131.068 161.992 130.451 161.15C129.835 160.308 128.901 159.887 127.651 159.887C127.018 159.887 126.464 159.996 125.989 160.212C125.522 160.429 125.13 160.742 124.814 161.15C124.505 161.558 124.272 162.062 124.114 162.662C123.964 163.254 123.889 163.925 123.889 164.675C123.889 166.175 124.197 167.346 124.814 168.187C125.439 169.021 126.385 169.438 127.651 169.438ZM141.836 158.137C142.761 158.137 143.594 158.292 144.336 158.6C145.078 158.908 145.711 159.346 146.236 159.912C146.761 160.479 147.161 161.167 147.436 161.975C147.719 162.775 147.861 163.671 147.861 164.662C147.861 165.662 147.719 166.562 147.436 167.362C147.161 168.162 146.761 168.846 146.236 169.412C145.711 169.979 145.078 170.417 144.336 170.725C143.594 171.025 142.761 171.175 141.836 171.175C140.903 171.175 140.061 171.025 139.311 170.725C138.569 170.417 137.936 169.979 137.411 169.412C136.886 168.846 136.482 168.162 136.198 167.362C135.923 166.562 135.786 165.662 135.786 164.662C135.786 163.671 135.923 162.775 136.198 161.975C136.482 161.167 136.886 160.479 137.411 159.912C137.936 159.346 138.569 158.908 139.311 158.6C140.061 158.292 140.903 158.137 141.836 158.137ZM141.836 169.438C143.086 169.438 144.019 169.021 144.636 168.187C145.253 167.346 145.561 166.175 145.561 164.675C145.561 163.167 145.253 161.992 144.636 161.15C144.019 160.308 143.086 159.887 141.836 159.887C141.203 159.887 140.648 159.996 140.173 160.212C139.707 160.429 139.315 160.742 138.998 161.15C138.69 161.558 138.457 162.062 138.298 162.662C138.148 163.254 138.073 163.925 138.073 164.675C138.073 166.175 138.382 167.346 138.998 168.187C139.623 169.021 140.569 169.438 141.836 169.438ZM152.983 152.587V171H150.758V152.587H152.983Z" fill="black"/>
<path d="M149 81H121" stroke="black" stroke-width="2" stroke-linecap="round"/>
<path d="M121 92V81" stroke="black" stroke-width="2" stroke-linecap="round"/>
<path d="M121 81V70" stroke="black" stroke-width="2" stroke-linecap="round"/>
<path d="M121 103V91" stroke="black" stroke-width="2" stroke-linecap="round"/>
<path d="M149 92H121" stroke="black" stroke-width="2" stroke-linecap="round"/>
</svg>
