<svg width="237" height="236" viewBox="0 0 237 236" fill="none" xmlns="http://www.w3.org/2000/svg">
<g id="thanks-thumb">
<circle id="Ellipse 5" cx="118" cy="118" r="118" fill="#F1F7DE" fill-opacity="0.58"/>
<circle id="Ellipse 4" cx="118" cy="118" r="95" fill="#F1F7DE" fill-opacity="0.63"/>
<circle id="Ellipse 3" cx="117.5" cy="117.5" r="69.5" fill="#F1F7DE"/>
<path id="Vector" d="M130.715 103.094L131.037 101.844C131.324 100.732 131.787 99.6888 132.293 98.6836C132.536 98.2019 132.793 97.7191 133.048 97.2402L133.082 97.1769C133.35 96.6737 133.617 96.1727 133.874 95.6584C134.898 93.6134 135.75 91.4153 135.75 88.6133C135.75 83.6135 134.131 81.0438 132.303 79.6811C130.419 78.277 128.112 78 126.484 78C126.124 78 125.746 78.1664 125.328 78.6059C124.901 79.0547 124.501 79.7211 124.138 80.5377C123.415 82.1595 122.946 84.1136 122.625 85.4488L122.619 85.4738C122.608 85.5201 122.596 85.5665 122.585 85.6131C121.869 88.5977 121.045 92.0293 118.734 94.3447L118.734 94.3448C116.618 96.464 114.973 98.862 113.187 101.465C113.085 101.614 112.982 101.764 112.879 101.914C110.985 104.672 108.92 107.614 106.023 110.477L130.715 103.094ZM130.715 103.094H132.005M130.715 103.094H132.005M132.005 103.094H146.509C150.712 103.094 153.98 106.597 154 110.382C154.011 112.692 153.015 115.183 151.521 116.685C151.521 116.685 151.52 116.686 151.52 116.686L151.506 116.7L151.03 117.176M132.005 103.094L151.03 117.176M151.03 117.176L151.291 117.796M151.03 117.176L151.291 117.796M151.291 117.796C152.571 120.832 152.351 125.112 150.085 128.139L149.771 128.558M151.291 117.796L149.771 128.558M149.771 128.558L149.937 129.056M149.771 128.558L149.937 129.056M149.937 129.056C151.051 132.379 149.909 136.529 147.827 138.705L147.448 139.101M149.937 129.056L147.448 139.101M147.448 139.101L147.578 139.634M147.448 139.101L147.578 139.634M147.578 139.634C148.14 141.935 147.848 143.759 146.852 145.189M147.578 139.634L146.852 145.189M146.852 145.189C145.624 146.953 143.418 147.943 140.578 148.464M146.852 145.189L140.578 148.464M140.578 148.464C137.753 148.982 134.518 149 131.452 149M140.578 148.464L131.452 149M131.452 149C131.452 149 131.452 149 131.452 149M131.452 149H131.452M131.452 149L131.046 149C124.399 148.998 118.943 146.581 114.406 144.563C113.265 144.055 111.917 143.473 110.561 143.012C109.217 142.556 107.793 142.194 106.511 142.17C106.123 142.163 105.813 141.846 105.813 141.459V110.98C105.813 110.791 105.888 110.61 106.023 110.477L131.452 149ZM85.4219 109.938H96.8281C98.1657 109.938 99.25 111.022 99.25 112.359V146.578C99.25 147.916 98.1657 149 96.8281 149H85.4219C84.0843 149 83 147.916 83 146.578V112.359C83 111.022 84.0843 109.938 85.4219 109.938ZM86.7031 140.875C86.7031 143.317 88.6828 145.297 91.125 145.297C93.5672 145.297 95.5469 143.317 95.5469 140.875C95.5469 138.433 93.5672 136.453 91.125 136.453C88.6828 136.453 86.7031 138.433 86.7031 140.875Z" fill="#F1F7DE" stroke="#83A22A" stroke-width="2"/>
<path id="Star 1" d="M211.277 31.7821C211.599 29.8716 214.178 29.4894 215.04 31.2243L217.636 36.4472C218.022 37.2231 218.863 37.6624 219.72 37.5354L225.49 36.6802C227.406 36.3962 228.567 38.7305 227.183 40.0868L223.018 44.1699C222.399 44.7765 222.242 45.7124 222.627 46.4883L225.224 51.7112C226.086 53.4462 224.224 55.2711 222.507 54.3744L217.337 51.675C216.569 51.274 215.63 51.4131 215.011 52.0197L210.846 56.1028C209.462 57.4591 207.152 56.2526 207.474 54.3421L208.443 48.5907C208.587 47.7363 208.165 46.8863 207.397 46.4853L202.226 43.7859C200.509 42.8892 200.942 40.3187 202.859 40.0346L208.628 39.1794C209.485 39.0524 210.163 38.3879 210.307 37.5335L211.277 31.7821Z" fill="#D43260"/>
</g>
</svg>
