<svg xmlns="http://www.w3.org/2000/svg" xmlns:xlink="http://www.w3.org/1999/xlink" width="500" zoomAndPan="magnify" viewBox="0 0 375 374.999991" height="500" preserveAspectRatio="xMidYMid meet" version="1.0"><defs><clipPath id="id1"><path d="M 187 207 L 375 207 L 375 301.703125 L 187 301.703125 Z M 187 207 " clip-rule="nonzero"/></clipPath><clipPath id="id2"><path d="M 0 207 L 188 207 L 188 301.703125 L 0 301.703125 Z M 0 207 " clip-rule="nonzero"/></clipPath></defs><path fill="#031a5b" d="M 261.097656 129.601562 L 261.097656 103.429688 L 292.632812 96.191406 L 187.097656 73.125 L 82.367188 99.660156 L 123.796875 105.804688 C 133.640625 107.265625 140.933594 115.726562 140.933594 125.691406 L 140.933594 140 C 139.988281 143.765625 139.476562 147.710938 139.476562 151.769531 C 139.476562 178.328125 160.976562 199.851562 187.5 199.851562 C 214.023438 199.851562 235.523438 178.328125 235.523438 151.769531 C 235.523438 147.710938 235.015625 143.765625 234.066406 140 L 234.066406 125.648438 C 234.066406 116.277344 240.535156 108.148438 249.660156 106.054688 L 258.738281 103.96875 L 258.738281 129.601562 C 258 129.800781 257.484375 130.1875 257.417969 130.632812 L 255.984375 130.632812 L 255.984375 145.546875 C 255.984375 147.722656 257.746094 149.488281 259.917969 149.488281 C 262.089844 149.488281 263.855469 147.722656 263.855469 145.546875 L 263.855469 130.632812 L 262.417969 130.632812 C 262.347656 130.1875 261.835938 129.800781 261.097656 129.601562 " fill-opacity="1" fill-rule="nonzero"/><path fill="#e4b548" d="M 275.140625 214.304688 C 307.6875 211.78125 327.039062 200.222656 337.535156 190.96875 C 341.304688 187.652344 344.230469 184.382812 346.46875 181.492188 C 346.535156 169.3125 345.496094 157.183594 345.496094 157.183594 C 345.496094 157.183594 331.246094 194.894531 269.875 199.65625 C 205.863281 204.625 187.5 224.277344 187.5 224.277344 L 187.5 239.371094 C 194.949219 233.519531 218.992188 218.664062 275.140625 214.304688 " fill-opacity="1" fill-rule="nonzero"/><path fill="#e4b548" d="M 279.917969 234.3125 C 327.167969 230.648438 348.683594 209.136719 357.148438 197.078125 C 357.386719 182.78125 356.132812 172.65625 356.132812 172.65625 C 356.132812 172.65625 340.925781 212.90625 275.421875 217.988281 C 207.101562 223.289062 187.5 244.269531 187.5 244.269531 L 187.5 260.796875 C 195.167969 254.71875 220.414062 238.929688 279.917969 234.3125 " fill-opacity="1" fill-rule="nonzero"/><path fill="#e4b548" d="M 284.375 253.890625 C 320.480469 251.089844 341.945312 238.25 353.597656 227.972656 C 359.652344 222.632812 363.753906 217.410156 366.398438 213.417969 C 366.472656 199.695312 365.296875 190.203125 365.296875 190.203125 C 365.296875 190.203125 349.261719 232.636719 280.203125 237.996094 C 208.164062 243.585938 187.5 265.703125 187.5 265.703125 L 187.5 281.695312 C 195.375 275.410156 221.746094 258.75 284.375 253.890625 " fill-opacity="1" fill-rule="nonzero"/><g clip-path="url(#id1)"><path fill="#e4b548" d="M 288.199219 273.21875 C 345.109375 268.808594 367.863281 240.65625 375 228.789062 C 374.910156 216.054688 373.851562 207.476562 373.851562 207.476562 C 373.851562 207.476562 357.046875 251.957031 284.660156 257.570312 C 209.15625 263.429688 187.5 286.613281 187.5 286.613281 L 187.5 302.15625 C 195.550781 295.699219 222.882812 278.285156 288.199219 273.21875 " fill-opacity="1" fill-rule="nonzero"/></g><path fill="#c3921c" d="M 99.859375 214.304688 C 67.316406 211.78125 47.960938 200.222656 37.460938 190.96875 C 33.695312 187.652344 30.769531 184.382812 28.53125 181.492188 C 28.464844 169.3125 29.503906 157.183594 29.503906 157.183594 C 29.503906 157.183594 43.753906 194.894531 105.125 199.65625 C 169.136719 204.625 187.5 224.277344 187.5 224.277344 L 187.5 239.371094 C 180.050781 233.519531 156.007812 218.664062 99.859375 214.304688 " fill-opacity="1" fill-rule="nonzero"/><path fill="#c3921c" d="M 95.085938 234.3125 C 47.832031 230.648438 26.316406 209.136719 17.851562 197.078125 C 17.613281 182.78125 18.867188 172.65625 18.867188 172.65625 C 18.867188 172.65625 34.074219 212.90625 99.578125 217.988281 C 167.898438 223.289062 187.5 244.269531 187.5 244.269531 L 187.5 260.796875 C 179.832031 254.71875 154.585938 238.929688 95.085938 234.3125 " fill-opacity="1" fill-rule="nonzero"/><path fill="#c3921c" d="M 90.625 253.890625 C 54.519531 251.089844 33.054688 238.25 21.402344 227.972656 C 15.347656 222.632812 11.246094 217.410156 8.601562 213.417969 C 8.527344 199.695312 9.703125 190.203125 9.703125 190.203125 C 9.703125 190.203125 25.738281 232.636719 94.796875 237.996094 C 166.835938 243.585938 187.5 265.703125 187.5 265.703125 L 187.5 281.695312 C 179.625 275.410156 153.253906 258.75 90.625 253.890625 " fill-opacity="1" fill-rule="nonzero"/><g clip-path="url(#id2)"><path fill="#c3921c" d="M 86.804688 273.21875 C 29.894531 268.808594 7.136719 240.65625 0 228.789062 C 0.0898438 216.054688 1.148438 207.476562 1.148438 207.476562 C 1.148438 207.476562 17.953125 251.957031 90.339844 257.570312 C 165.84375 263.429688 187.5 286.613281 187.5 286.613281 L 187.5 302.15625 C 179.449219 295.699219 152.117188 278.285156 86.804688 273.21875 " fill-opacity="1" fill-rule="nonzero"/></g></svg>