<svg width="88" height="69" viewBox="0 0 88 69" fill="none" xmlns="http://www.w3.org/2000/svg">
<path d="M11.9637 24.6447H31.9031C31.9031 20.258 28.314 16.6689 23.9273 16.6689H11.9637C9.77032 16.6689 7.97577 18.4635 7.97577 20.6568C7.97577 22.8502 9.77032 24.6447 11.9637 24.6447Z" fill="#CE800D"/>
<path d="M83.7455 44.8238V20.6572C83.7455 16.2706 80.1564 12.6815 75.7698 12.6815H50.686L46.4588 8.45431L52.0817 2.8314L49.2503 0L35.1731 14.0772L38.0045 16.9086L43.6274 11.2857L47.8546 15.5129V24.6451C47.8546 29.0318 44.2655 32.6209 39.8788 32.6209H31.7435C30.8662 31.9828 29.949 31.4245 28.9919 30.9061L27.3968 34.4553L25.5623 33.6178L27.1575 30.0288C24.9641 29.1514 22.4917 28.633 19.9394 28.633C17.8258 28.633 15.792 29.0717 13.8778 29.6698L15.2337 33.2988L13.3594 34.0166L11.9636 30.3079C7.75456 32.1493 4.32512 35.4094 2.27309 39.5199L5.82231 41.1151L4.98485 42.9495L1.39576 41.3543C0.518425 43.5477 0 46.0202 0 48.5724C0 50.686 0.438667 52.7198 1.03685 54.634L4.66582 53.2781L5.38364 55.1524L1.67491 56.5482C3.51632 60.7573 6.7764 64.1867 10.8869 66.2387L12.4821 62.6895L14.3165 63.527L12.7213 67.1161C14.9147 67.9934 17.3872 68.5118 19.9394 68.5118C22.053 68.5118 24.0868 68.0732 26.001 67.475L24.6451 63.846L26.5194 63.1282L27.9152 66.8369C32.1243 64.9955 35.5537 61.7354 37.6057 57.6249L34.0565 56.0297L34.894 54.1953L38.4831 55.7905C38.8819 54.7536 39.2009 53.637 39.4402 52.5204H60.0176C59.9379 53.1983 59.8182 53.8763 59.8182 54.5542C59.8182 62.2508 66.0792 68.5118 73.7758 68.5118C81.4724 68.5118 87.7334 62.2508 87.7334 54.5542C87.7334 50.7657 86.218 47.3362 83.7455 44.8238ZM19.9394 60.5361C13.3195 60.5361 7.97576 55.1923 7.97576 48.5724C7.97576 41.9525 13.3195 36.6088 19.9394 36.6088C26.5593 36.6088 31.9031 41.9525 31.9031 48.5724C31.9031 55.1923 26.5593 60.5361 19.9394 60.5361ZM39.3604 44.5845C39.2009 43.8667 39.0414 43.1888 38.842 42.5108L35.213 43.8667L34.4952 41.9924L38.2039 40.5966H39.8788C48.692 40.5966 55.8304 33.4583 55.8304 24.6451V20.6572H75.7698V40.796C75.1317 40.7163 74.4538 40.5966 73.7758 40.5966C69.9873 40.5966 66.5578 42.112 64.0454 44.5845H39.3604ZM73.7758 60.5361C70.4659 60.5361 67.794 57.8642 67.794 54.5542C67.794 51.2443 70.4659 48.5724 73.7758 48.5724C77.0858 48.5724 79.7576 51.2443 79.7576 54.5542C79.7576 57.8642 77.0858 60.5361 73.7758 60.5361Z" fill="#CE800D"/>
</svg>
