<svg width="16" height="22" viewBox="0 0 16 22" fill="none" xmlns="http://www.w3.org/2000/svg">
<path d="M15.4786 5.73571L9.97857 0.235714C9.82143 0.0785714 9.66429 0 9.42857 0H1.57143C0.707143 0 0 0.707143 0 1.57143V20.4286C0 21.2929 0.707143 22 1.57143 22H14.1429C15.0071 22 15.7143 21.2929 15.7143 20.4286V6.28571C15.7143 6.05 15.6357 5.89286 15.4786 5.73571ZM9.42857 3.09282C9.42857 2.64737 9.96714 2.42429 10.2821 2.73927L12.975 5.43216C13.29 5.74714 13.0669 6.28571 12.6215 6.28571H10.4286C9.87629 6.28571 9.42857 5.838 9.42857 5.28571V3.09282ZM14.1429 19.4286C14.1429 19.9809 13.6951 20.4286 13.1429 20.4286H2.57143C2.01914 20.4286 1.57143 19.9809 1.57143 19.4286V2.57143C1.57143 2.01915 2.01914 1.57143 2.57143 1.57143H7.85714V6.28571C7.85714 7.15 8.56429 7.85714 9.42857 7.85714H14.1429V19.4286Z" fill="#90B12B"/>
<path d="M3.14282 16.5001C3.14282 16.0661 3.4946 15.7144 3.92854 15.7144H11.7857C12.2196 15.7144 12.5714 16.0661 12.5714 16.5001C12.5714 16.934 12.2196 17.2858 11.7857 17.2858H3.92854C3.4946 17.2858 3.14282 16.934 3.14282 16.5001Z" fill="#90B12B"/>
<path d="M3.14282 11.7857C3.14282 11.3518 3.4946 11 3.92854 11H11.7857C12.2196 11 12.5714 11.3518 12.5714 11.7857C12.5714 12.2197 12.2196 12.5714 11.7857 12.5714H3.92854C3.4946 12.5714 3.14282 12.2197 3.14282 11.7857Z" fill="#90B12B"/>
</svg>
