<svg width="100" height="100" viewBox="0 0 100 100" fill="none" xmlns="http://www.w3.org/2000/svg">
<path d="M65.3332 95.995H34.6666V53.0618C34.6666 52.2485 34.9897 51.4684 35.5648 50.8933C36.1399 50.3182 36.9199 49.9951 37.7333 49.9951H62.2665C63.0799 49.9951 63.8599 50.3182 64.435 50.8933C65.0101 51.4684 65.3332 52.2485 65.3332 53.0618V95.995V95.995Z" stroke="#2458B8" stroke-width="6.5" stroke-linecap="round" stroke-linejoin="round"/>
<path d="M92.9333 95.9948H65.3334V81.1726C65.3334 80.3593 65.6565 79.5793 66.2316 79.0042C66.8067 78.429 67.5867 78.106 68.4 78.106H92.9333C93.7467 78.106 94.5267 78.429 95.1018 79.0042C95.6769 79.5793 96 80.3593 96 81.1726V92.9282C96 93.7415 95.6769 94.5215 95.1018 95.0966C94.5267 95.6717 93.7467 95.9948 92.9333 95.9948V95.9948Z" stroke="#2458B8" stroke-width="6.5" stroke-linecap="round" stroke-linejoin="round"/>
<path d="M34.6666 95.9949V70.9505C34.6666 70.1371 34.3435 69.3571 33.7684 68.782C33.1933 68.2069 32.4133 67.8838 31.6 67.8838H7.06666C6.25333 67.8838 5.47332 68.2069 4.8982 68.782C4.32309 69.3571 4 70.1371 4 70.9505V92.9282C4 93.7415 4.32309 94.5215 4.8982 95.0967C5.47332 95.6718 6.25333 95.9949 7.06666 95.9949H34.6666V95.9949Z" stroke="#2458B8" stroke-width="6.5" stroke-linecap="round" stroke-linejoin="round"/>
<path d="M43.8977 14.7949L48.5437 4.94576C48.6691 4.6642 48.8735 4.42502 49.132 4.25718C49.3905 4.08933 49.6921 4 50.0004 4C50.3086 4 50.6102 4.08933 50.8687 4.25718C51.1273 4.42502 51.3316 4.6642 51.457 4.94576L56.1081 14.7949L66.4939 16.3844C67.8279 16.5888 68.3594 18.3062 67.3934 19.2875L59.8801 26.9542L61.6537 37.7795C61.8786 39.1697 60.4883 40.2328 59.2923 39.5735L50.0004 34.4624L40.7084 39.5735C39.5175 40.2277 38.1222 39.1697 38.347 37.7795L40.1206 26.9542L32.6073 19.2875C31.6362 18.3062 32.1728 16.5888 33.5017 16.3844L43.8977 14.8V14.7949Z" stroke="#2458B8" stroke-width="6.5" stroke-linecap="round" stroke-linejoin="round"/>
</svg>
