<svg width="31" height="24" viewBox="0 0 31 24" fill="none" xmlns="http://www.w3.org/2000/svg">
<path d="M1 4.11398C1 3.2881 1.30102 2.49605 1.83684 1.91206C2.37265 1.32808 3.09938 1 3.85714 1H26.7143C27.472 1 28.1988 1.32808 28.7346 1.91206C29.2704 2.49605 29.5714 3.2881 29.5714 4.11398V19.6839C29.5714 20.5098 29.2704 21.3018 28.7346 21.8858C28.1988 22.4698 27.472 22.7979 26.7143 22.7979H3.85714C3.09938 22.7979 2.37265 22.4698 1.83684 21.8858C1.30102 21.3018 1 20.5098 1 19.6839V4.11398Z" stroke="#83A22A" stroke-width="2" stroke-linecap="round" stroke-linejoin="round"/>
<path d="M15.2857 16.5701C17.6526 16.5701 19.5714 14.4788 19.5714 11.899C19.5714 9.31931 17.6526 7.22803 15.2857 7.22803C12.9188 7.22803 11 9.31931 11 11.899C11 14.4788 12.9188 16.5701 15.2857 16.5701Z" stroke="#83A22A" stroke-width="2" stroke-linecap="round" stroke-linejoin="round"/>
<path d="M1 7.22803C2.51551 7.22803 3.96895 6.57186 5.04057 5.40388C6.1122 4.2359 6.71423 2.65178 6.71423 1" stroke="#83A22A" stroke-width="2" stroke-linecap="round" stroke-linejoin="round"/>
<path d="M23.8572 22.7981C23.8572 21.1464 24.4592 19.5623 25.5308 18.3944C26.6025 17.2265 28.0559 16.5703 29.5714 16.5703" stroke="#83A22A" stroke-width="2" stroke-linecap="round" stroke-linejoin="round"/>
</svg>
