<svg width="83" height="63" viewBox="0 0 83 63" fill="none" xmlns="http://www.w3.org/2000/svg">
<path d="M38.1303 46.526C38.2268 48.7605 37.8254 50.9885 36.9546 53.0516C36.0837 55.1147 34.765 56.9622 33.0921 58.4625L33.0789 58.473C29.6152 61.5177 25.1044 63.1274 20.478 62.9695H20.5071C17.7107 63.1194 14.9153 62.657 12.3195 61.6151C9.72373 60.5732 7.3912 58.9774 5.48764 56.941L5.47706 56.9305C1.66078 52.4408 -0.285727 46.6777 0.0339645 40.8149L0.0313184 40.87C-0.146032 34.7816 0.995407 28.7262 3.37868 23.1122L3.27283 23.3929C5.1757 18.9912 7.81585 14.9404 11.0816 11.4118L11.0525 11.4433C13.7504 8.54155 16.8766 6.06223 20.3245 4.08989L20.515 3.9902C23.1227 2.49875 25.8442 1.21197 28.6545 0.141664L29.0673 0.0026234L37.3603 13.8804C33.9142 15.2589 30.8893 17.5029 28.5831 20.3917L28.5487 20.4363C26.2524 23.1481 24.8121 26.4702 24.4075 29.9881L24.3996 30.0721C26.2041 30.1169 27.9787 30.5392 29.6072 31.3114C31.2356 32.0836 32.6811 33.1882 33.8489 34.5528L33.8648 34.5712C36.834 37.8489 38.37 42.1607 38.1356 46.5602L38.1383 46.5208L38.1303 46.526ZM82.977 46.526C83.0724 48.761 82.6703 50.9893 81.799 53.0527C80.9278 55.1162 79.6089 56.9641 77.9361 58.4652L77.9229 58.4756C74.4599 61.5215 69.9486 63.1314 65.322 62.9722H65.3511C62.5546 63.1228 59.759 62.6607 57.1631 61.6187C54.5672 60.5768 52.2348 58.9806 50.3316 56.9436L50.3211 56.9305C46.5032 52.4406 44.5565 46.6761 44.878 40.8123L44.8753 40.8674C44.698 34.7789 45.8394 28.7236 48.2227 23.1096L48.1168 23.3903C50.0188 18.9894 52.6571 14.9387 55.9203 11.4092L55.8912 11.4407C58.5901 8.53887 61.7172 6.05955 65.1659 4.08726L65.3564 3.98757C67.9635 2.49507 70.6851 1.20826 73.4959 0.13904L73.9087 0L82.199 13.8778C78.7524 15.258 75.7275 17.5038 73.4218 20.3943L73.3874 20.4389C71.0911 23.1508 69.6508 26.4728 69.2462 29.9907L69.2383 30.0747C71.0421 30.1192 72.816 30.5415 74.4437 31.3137C76.0713 32.0859 77.5158 33.1907 78.6823 34.5555L78.6982 34.5738C81.6707 37.849 83.2097 42.1604 82.977 46.5602L82.9796 46.5208L82.977 46.526Z" fill="#D43260"/>
</svg>
