<svg width="74" height="97" viewBox="0 0 74 97" fill="none" xmlns="http://www.w3.org/2000/svg">
<path d="M42.7379 53.9216L42.8562 54.1974L43.1552 54.2228L54.1945 55.1605C55.5176 55.2729 56.053 56.9222 55.0481 57.7903L46.6631 65.0335L46.4343 65.2312L46.5031 65.5257L49.0481 76.4106C49.3484 77.6947 47.9644 78.7135 46.8274 78.0452L37.4054 72.5075C37.1551 72.3605 36.8449 72.3605 36.5946 72.5076L27.1725 78.0452C26.0356 78.7135 24.6516 77.6947 24.9519 76.4105L27.4556 65.7024C27.5233 65.4127 27.4247 65.1094 27.1995 64.9149L18.9519 57.7903C17.947 56.9222 18.4824 55.2729 19.8055 55.1605L30.6654 54.238C30.9599 54.213 31.2166 54.0277 31.333 53.7561L35.6213 43.7513C36.1408 42.5392 37.8592 42.5392 38.3787 43.7513L42.7379 53.9216ZM22.6736 26.5138L23.4721 26.1735L22.777 25.6535L0.700547 9.13857C0.574355 9.04417 0.500055 8.89579 0.500055 8.7382V1C0.500055 0.723856 0.723912 0.5 1.00005 0.5H72.9999C73.2761 0.5 73.4999 0.723858 73.4999 1V8.7382C73.4999 8.8958 73.4256 9.04417 73.2995 9.13857L51.223 25.6535L50.5279 26.1735L51.3264 26.5138C59.0626 29.8113 65.4211 35.6762 69.3266 43.1165C73.2321 50.5568 74.445 59.1159 72.7602 67.3465C71.0754 75.577 66.5964 82.9739 60.0803 88.2862C53.5643 93.5984 45.4113 96.5 37 96.5C28.5887 96.5 20.4357 93.5984 13.9197 88.2862C7.40363 82.9739 2.92456 75.577 1.23979 67.3465C-0.444978 59.116 0.767922 50.5568 4.67342 43.1165C8.57892 35.6762 14.9374 29.8113 22.6736 26.5138ZM39.9137 23.5974H40.0776L40.2097 23.5004L58.8338 9.82256L58.5378 9.41957L58.8338 9.82256C59.3009 9.47945 59.0583 8.73897 58.4786 8.73897H15.8866C15.3098 8.73897 15.0652 9.47336 15.5268 9.81917L33.7865 23.4976L33.9197 23.5974H34.0863H39.9137ZM60.8762 75.1479C63.7357 70.6315 65.2525 65.3969 65.25 60.0531C65.2469 53.5348 62.9846 47.2188 58.8475 42.1779C54.7107 37.1373 48.9544 33.6826 42.5567 32.4007C38.8905 31.6481 35.1093 31.6481 31.4431 32.4007C26.1982 33.4517 21.3598 35.9686 17.4908 39.6586C13.6214 43.349 10.8808 48.0609 9.58764 53.2463C8.29452 58.4316 8.50217 63.8772 10.1864 68.9493C11.8707 74.0213 14.9622 78.5114 19.1013 81.8971C23.2405 85.2827 28.2569 87.4248 33.5671 88.0741C38.8773 88.7235 44.263 87.8534 49.0975 85.5651C53.932 83.2768 58.0167 79.6643 60.8762 75.1479Z" fill="#83A22A" stroke="white"/>
</svg>
