<svg width="24" height="24" viewBox="0 0 24 24" fill="none" xmlns="http://www.w3.org/2000/svg">
<path d="M9.81894 0.970768C9.99217 0.0176587 11.2838 -0.156963 11.7039 0.715938L14.6226 6.78081C14.8105 7.17118 15.2283 7.39619 15.6577 7.33815L22.3276 6.43645C23.2876 6.30667 23.8528 7.48115 23.1525 8.15041L18.2864 12.8004C17.9732 13.0997 17.8883 13.5667 18.0762 13.957L20.9949 20.0219C21.4149 20.8948 20.4726 21.7953 19.6197 21.336L13.6935 18.145C13.3121 17.9396 12.8418 18.0032 12.5286 18.3025L7.66246 22.9525C6.9621 23.6218 5.81449 23.0038 5.98771 22.0507L7.19128 15.4286C7.26874 15.0023 7.06294 14.5747 6.6815 14.3693L0.755367 11.1782C-0.097564 10.719 0.135512 9.43657 1.0955 9.30679L7.76547 8.40509C8.19479 8.34705 8.53791 8.01917 8.61538 7.59292L9.81894 0.970768Z" fill="#2458B8"/>
</svg>
