<svg width="41" height="41" viewBox="0 0 41 41" fill="none" xmlns="http://www.w3.org/2000/svg">
<path d="M0 9C0 4.02944 4.02944 0 9 0H41V32C41 36.9706 36.9706 41 32 41H9C4.02944 41 0 36.9706 0 32V9Z" fill="#F8CE90"/>
<path d="M32 14.025C31.2277 14.3672 30.3981 14.5984 29.526 14.7029C30.4259 14.1645 31.0991 13.317 31.4201 12.3186C30.5746 12.8208 29.6493 13.1743 28.6844 13.3637C28.0355 12.6709 27.176 12.2117 26.2393 12.0573C25.3027 11.903 24.3413 12.0623 23.5044 12.5103C22.6675 12.9584 22.002 13.6702 21.6111 14.5353C21.2203 15.4003 21.1259 16.3702 21.3428 17.2944C19.6296 17.2084 17.9537 16.7631 16.4238 15.9875C14.8939 15.2119 13.5442 14.1232 12.4622 12.7922C12.0923 13.4303 11.8795 14.1702 11.8795 14.9582C11.8791 15.6676 12.0538 16.3661 12.3881 16.9917C12.7224 17.6174 13.206 18.1509 13.7959 18.5448C13.1117 18.5231 12.4427 18.3382 11.8444 18.0056V18.0611C11.8443 19.056 12.1885 20.0203 12.8185 20.7904C13.4484 21.5605 14.3254 22.0888 15.3006 22.2859C14.666 22.4577 14.0006 22.483 13.3547 22.3599C13.6299 23.216 14.1658 23.9646 14.8876 24.5009C15.6093 25.0372 16.4807 25.3344 17.3797 25.3509C15.8535 26.549 13.9687 27.1989 12.0285 27.196C11.6848 27.1961 11.3413 27.176 11 27.1359C12.9695 28.4022 15.2621 29.0743 17.6035 29.0716C25.5296 29.0716 29.8626 22.507 29.8626 16.8135C29.8626 16.6285 29.858 16.4417 29.8497 16.2567C30.6925 15.6472 31.42 14.8924 31.9982 14.0278L32 14.025Z" fill="#CE800D"/>
</svg>
