<svg width="41" height="41" viewBox="0 0 41 41" fill="none" xmlns="http://www.w3.org/2000/svg">
<path d="M0 9C0 4.02944 4.02944 0 9 0H41V32C41 36.9706 36.9706 41 32 41H9C4.02944 41 0 36.9706 0 32V9Z" fill="#D5E7A2"/>
<path d="M32.5006 15.512C32.3647 15.0272 32.1 14.5883 31.7346 14.242C31.3589 13.885 30.8984 13.6296 30.3966 13.5C28.5186 13.005 20.9946 13.005 20.9946 13.005C17.8579 12.9693 14.722 13.1262 11.6046 13.475C11.1028 13.6142 10.6432 13.8752 10.2666 14.235C9.89662 14.591 9.62862 15.03 9.48862 15.511C9.15231 17.3227 8.98891 19.1623 9.00062 21.005C8.98862 22.846 9.15162 24.685 9.48862 26.499C9.62562 26.978 9.89262 27.415 10.2636 27.768C10.6346 28.121 11.0966 28.376 11.6046 28.511C13.5076 29.005 20.9946 29.005 20.9946 29.005C24.1353 29.0407 27.2752 28.8837 30.3966 28.535C30.8984 28.4053 31.3589 28.15 31.7346 27.793C32.1046 27.44 32.3676 27.001 32.4996 26.523C32.8447 24.7119 33.0125 22.8716 33.0006 21.028C33.0266 19.1766 32.859 17.3275 32.5006 15.511V15.512ZM18.6026 24.429V17.582L24.8626 21.006L18.6026 24.429Z" fill="#83A22A"/>
</svg>
