<svg width="66" height="72" viewBox="0 0 66 72" fill="none" xmlns="http://www.w3.org/2000/svg">
<path d="M20.0869 33.2308C16.2817 33.2308 12.6322 31.772 9.94151 29.1753C7.25077 26.5787 5.73913 23.0568 5.73913 19.3846V8.30769C5.73913 7.57325 6.04146 6.86888 6.5796 6.34955C7.11775 5.83022 7.84764 5.53846 8.60869 5.53846H11.4783C12.2393 5.53846 12.9692 5.2467 13.5073 4.72737C14.0455 4.20804 14.3478 3.50368 14.3478 2.76923C14.3478 2.03479 14.0455 1.33042 13.5073 0.811089C12.9692 0.291757 12.2393 0 11.4783 0H8.60869C6.32553 0 4.13587 0.875273 2.52143 2.43327C0.906985 3.99126 0 6.10436 0 8.30769V19.3846C0.0036886 22.5131 0.794215 25.594 2.30369 28.3627C3.81316 31.1314 5.99646 33.5051 8.66608 35.28C11.231 37.4622 13.3111 40.1234 14.7808 43.1028C16.2505 46.0823 17.0794 49.3183 17.2174 52.6154C17.2174 57.7565 19.3337 62.6871 23.1007 66.3224C26.8677 69.9577 31.9769 72 37.3043 72C42.6317 72 47.7409 69.9577 51.5079 66.3224C55.275 62.6871 57.3913 57.7565 57.3913 52.6154V49.4585C60.0963 48.7845 62.4537 47.1815 64.0217 44.9501C65.5897 42.7187 66.2605 40.0121 65.9085 37.3375C65.5565 34.663 64.2057 32.2041 62.1095 30.4219C60.0133 28.6396 57.3154 27.6564 54.5217 27.6564C51.728 27.6564 49.0302 28.6396 46.9339 30.4219C44.8377 32.2041 43.487 34.663 43.1349 37.3375C42.7829 40.0121 43.4538 42.7187 45.0217 44.9501C46.5897 47.1815 48.9471 48.7845 51.6522 49.4585V52.6154C51.6522 56.2876 50.1405 59.8094 47.4498 62.4061C44.759 65.0028 41.1096 66.4615 37.3043 66.4615C33.4991 66.4615 29.8496 65.0028 27.1589 62.4061C24.4682 59.8094 22.9565 56.2876 22.9565 52.6154C23.1018 49.3142 23.9396 46.0757 25.4193 43.096C26.899 40.1163 28.9898 37.4573 31.5652 35.28C34.2242 33.4989 36.3964 31.1225 37.8956 28.3542C39.3949 25.5859 40.1766 22.5082 40.1739 19.3846V8.30769C40.1739 6.10436 39.2669 3.99126 37.6525 2.43327C36.038 0.875273 33.8484 0 31.5652 0H28.6956C27.9346 0 27.2047 0.291757 26.6666 0.811089C26.1284 1.33042 25.8261 2.03479 25.8261 2.76923C25.8261 3.50368 26.1284 4.20804 26.6666 4.72737C27.2047 5.2467 27.9346 5.53846 28.6956 5.53846H31.5652C32.3263 5.53846 33.0561 5.83022 33.5943 6.34955C34.1324 6.86888 34.4348 7.57325 34.4348 8.30769V19.3846C34.4348 21.2029 34.0637 23.0034 33.3426 24.6833C32.6216 26.3632 31.5647 27.8896 30.2324 29.1753C28.9001 30.4611 27.3184 31.481 25.5776 32.1768C23.8369 32.8726 21.9711 33.2308 20.0869 33.2308ZM54.5217 44.3077C52.9996 44.3077 51.5398 43.7242 50.4635 42.6855C49.3872 41.6469 48.7826 40.2381 48.7826 38.7692C48.7826 37.3003 49.3872 35.8916 50.4635 34.8529C51.5398 33.8143 52.9996 33.2308 54.5217 33.2308C56.0438 33.2308 57.5036 33.8143 58.5799 34.8529C59.6562 35.8916 60.2608 37.3003 60.2608 38.7692C60.2608 40.2381 59.6562 41.6469 58.5799 42.6855C57.5036 43.7242 56.0438 44.3077 54.5217 44.3077Z" fill="#DBB700"/>
</svg>
