<svg width="67" height="66" viewBox="0 0 67 66" fill="none" xmlns="http://www.w3.org/2000/svg">
<path d="M16.875 0H10.125V10.125H0V16.875H10.125V27H16.875V16.875H27V10.125H16.875V0Z" fill="#2458B8"/>
<path d="M40 10H67V18H40V10Z" fill="#2458B8"/>
<path d="M40 43H67V51H40V43Z" fill="#2458B8"/>
<path d="M40 57H67V63H40V57Z" fill="#2458B8"/>
<path d="M21.2156 41L13.5 48.7493L5.78437 41L1 45.7844L8.74933 53.5L1 61.2156L5.78437 66L13.5 58.2507L21.2156 66L26 61.2156L18.2507 53.5L26 45.7844L21.2156 41Z" fill="#2458B8"/>
</svg>
