<svg width="34" height="29" viewBox="0 0 34 29" fill="none" xmlns="http://www.w3.org/2000/svg">
<path d="M0.1 2.41667C0.1 1.80241 0.345211 1.21321 0.781849 0.77871C1.2185 0.344196 1.81084 0.1 2.42857 0.1H31.5714C32.1892 0.1 32.7815 0.344196 33.2182 0.77871C33.6548 1.21321 33.9 1.80241 33.9 2.41667C33.9 3.03093 33.6548 3.62013 33.2182 4.05462C32.7815 4.48914 32.1892 4.73333 31.5714 4.73333H2.42857C1.81084 4.73333 1.2185 4.48914 0.781849 4.05462C0.345211 3.62013 0.1 3.03093 0.1 2.41667ZM0.1 14.5C0.1 13.8857 0.345211 13.2965 0.781849 12.862C1.2185 12.4275 1.81084 12.1833 2.42857 12.1833H31.5714C32.1892 12.1833 32.7815 12.4275 33.2182 12.862C33.6548 13.2965 33.9 13.8857 33.9 14.5C33.9 15.1143 33.6548 15.7035 33.2182 16.138C32.7815 16.5725 32.1892 16.8167 31.5714 16.8167H2.42857C1.81084 16.8167 1.2185 16.5725 0.781849 16.138C0.345211 15.7035 0.1 15.1143 0.1 14.5ZM14.6714 26.5833C14.6714 25.9691 14.9166 25.3799 15.3533 24.9454C15.7899 24.5109 16.3823 24.2667 17 24.2667H31.5714C32.1892 24.2667 32.7815 24.5109 33.2182 24.9454C33.6548 25.3799 33.9 25.9691 33.9 26.5833C33.9 27.1976 33.6548 27.7868 33.2182 28.2213C32.7815 28.6558 32.1892 28.9 31.5714 28.9H17C16.3823 28.9 15.7899 28.6558 15.3533 28.2213C14.9166 27.7868 14.6714 27.1976 14.6714 26.5833Z" fill="black" stroke="#101010" stroke-width="0.2"/>
</svg>
