<svg width="35" height="34" viewBox="0 0 35 34" fill="none" xmlns="http://www.w3.org/2000/svg">
<path d="M15.5979 1.8541C16.1966 0.0114837 18.8034 0.0114794 19.4021 1.8541L22.1025 10.1652C22.3703 10.9892 23.1382 11.5471 24.0047 11.5471H32.7434C34.6808 11.5471 35.4864 14.0263 33.919 15.1652L26.8492 20.3017C26.1482 20.811 25.8549 21.7137 26.1226 22.5377L28.8231 30.8488C29.4218 32.6914 27.3128 34.2236 25.7454 33.0848L18.6756 27.9483C17.9746 27.439 17.0254 27.439 16.3244 27.9483L9.25463 33.0848C7.6872 34.2236 5.57824 32.6914 6.17694 30.8488L8.87737 22.5377C9.14512 21.7137 8.8518 20.811 8.15083 20.3017L1.08103 15.1652C-0.4864 14.0264 0.319148 11.5471 2.25659 11.5471H10.9953C11.8618 11.5471 12.6297 10.9892 12.8975 10.1652L15.5979 1.8541Z" fill="#D43260"/>
</svg>
