<svg xmlns="http://www.w3.org/2000/svg" xmlns:xlink="http://www.w3.org/1999/xlink" width="500" zoomAndPan="magnify" viewBox="0 0 375 374.999991" height="500" preserveAspectRatio="xMidYMid meet" version="1.0"><defs><g/><clipPath id="id1"><path d="M 150 117.730469 L 225 117.730469 L 225 162 L 150 162 Z M 150 117.730469 " clip-rule="nonzero"/></clipPath><clipPath id="id2"><path d="M 187 164 L 252.710938 164 L 252.710938 197.210938 L 187 197.210938 Z M 187 164 " clip-rule="nonzero"/></clipPath><clipPath id="id3"><path d="M 122.210938 164 L 188 164 L 188 197.210938 L 122.210938 197.210938 Z M 122.210938 164 " clip-rule="nonzero"/></clipPath></defs><rect x="-37.5" width="450" fill="#ffffff" y="-37.499999" height="449.999989" fill-opacity="1"/><rect x="-37.5" width="450" fill="#ffffff" y="-37.499999" height="449.999989" fill-opacity="1"/><rect x="-37.5" width="450" fill="#ffffff" y="-37.499999" height="449.999989" fill-opacity="1"/><rect x="-37.5" width="450" fill="#ffffff" y="-37.499999" height="449.999989" fill-opacity="1"/><g fill="#031a5b" fill-opacity="1"><g transform="translate(37.590691, 231.02225)"><g><path d="M 2.078125 0 C 1.898438 0 1.765625 -0.0625 1.671875 -0.1875 C 1.585938 -0.3125 1.546875 -0.472656 1.546875 -0.671875 C 1.546875 -0.984375 1.648438 -1.21875 1.859375 -1.375 C 2.078125 -1.539062 2.375 -1.625 2.75 -1.625 L 3.453125 -1.625 L 3.453125 -17.015625 L 2.734375 -17.1875 C 2.296875 -17.269531 1.976562 -17.390625 1.78125 -17.546875 C 1.582031 -17.710938 1.484375 -17.941406 1.484375 -18.234375 C 1.484375 -18.597656 1.628906 -18.78125 1.921875 -18.78125 L 10.078125 -18.78125 C 11.960938 -18.78125 13.476562 -18.285156 14.625 -17.296875 C 15.769531 -16.316406 16.34375 -14.945312 16.34375 -13.1875 C 16.34375 -11.4375 15.769531 -10.070312 14.625 -9.09375 C 13.476562 -8.113281 11.960938 -7.625 10.078125 -7.625 L 6.15625 -7.625 L 6.15625 -1.59375 L 7.421875 -1.25 C 7.785156 -1.15625 8.039062 -1.039062 8.1875 -0.90625 C 8.34375 -0.769531 8.421875 -0.601562 8.421875 -0.40625 C 8.421875 -0.132812 8.296875 0 8.046875 0 Z M 9.890625 -9.40625 C 11.078125 -9.40625 12 -9.75 12.65625 -10.4375 C 13.3125 -11.132812 13.640625 -12.050781 13.640625 -13.1875 C 13.640625 -14.332031 13.3125 -15.253906 12.65625 -15.953125 C 12 -16.648438 11.078125 -17 9.890625 -17 L 6.15625 -17 L 6.15625 -9.40625 Z M 9.890625 -9.40625 "/></g></g></g><g fill="#031a5b" fill-opacity="1"><g transform="translate(55.824219, 231.02225)"><g><path d="M 0.671875 0 C 0.492188 0 0.359375 -0.0625 0.265625 -0.1875 C 0.179688 -0.3125 0.140625 -0.472656 0.140625 -0.671875 C 0.140625 -0.984375 0.242188 -1.21875 0.453125 -1.375 C 0.671875 -1.539062 0.96875 -1.625 1.34375 -1.625 L 2 -1.625 L 8.265625 -18.78125 L 11.296875 -18.78125 L 17.59375 -1.59375 L 18.6875 -1.328125 C 19 -1.253906 19.222656 -1.148438 19.359375 -1.015625 C 19.492188 -0.878906 19.5625 -0.703125 19.5625 -0.484375 C 19.5625 -0.160156 19.441406 0 19.203125 0 L 13.1875 0 C 13 0 12.851562 -0.0625 12.75 -0.1875 C 12.65625 -0.3125 12.609375 -0.472656 12.609375 -0.671875 C 12.609375 -0.984375 12.71875 -1.21875 12.9375 -1.375 C 13.15625 -1.539062 13.453125 -1.625 13.828125 -1.625 L 14.828125 -1.625 L 13.265625 -5.921875 L 5.59375 -5.921875 L 4.046875 -1.59375 L 5.625 -1.21875 C 5.957031 -1.144531 6.191406 -1.046875 6.328125 -0.921875 C 6.460938 -0.796875 6.53125 -0.632812 6.53125 -0.4375 C 6.53125 -0.144531 6.414062 0 6.1875 0 Z M 12.609375 -7.671875 L 9.421875 -16.5 L 6.234375 -7.671875 Z M 12.609375 -7.671875 "/></g></g></g><g fill="#031a5b" fill-opacity="1"><g transform="translate(76.677884, 231.02225)"><g><path d="M 5.5625 0 C 5.382812 0 5.25 -0.0625 5.15625 -0.1875 C 5.070312 -0.3125 5.03125 -0.472656 5.03125 -0.671875 C 5.03125 -0.984375 5.132812 -1.21875 5.34375 -1.375 C 5.5625 -1.539062 5.859375 -1.625 6.234375 -1.625 L 6.921875 -1.625 L 6.921875 -17 L 2.546875 -17 L 2.21875 -15.609375 C 2.101562 -15.203125 1.988281 -14.90625 1.875 -14.71875 C 1.757812 -14.539062 1.582031 -14.453125 1.34375 -14.453125 C 0.988281 -14.453125 0.8125 -14.613281 0.8125 -14.9375 L 0.8125 -18.78125 L 15.75 -18.78125 L 15.75 -14.9375 C 15.75 -14.613281 15.566406 -14.453125 15.203125 -14.453125 C 14.972656 -14.453125 14.789062 -14.550781 14.65625 -14.75 C 14.519531 -14.945312 14.40625 -15.234375 14.3125 -15.609375 L 14.015625 -17 L 9.625 -17 L 9.625 -1.59375 L 10.890625 -1.25 C 11.460938 -1.101562 11.75 -0.820312 11.75 -0.40625 C 11.75 -0.132812 11.625 0 11.375 0 Z M 5.5625 0 "/></g></g></g><g fill="#031a5b" fill-opacity="1"><g transform="translate(94.398192, 231.02225)"><g><path d="M 1.921875 0 C 1.628906 0 1.484375 -0.179688 1.484375 -0.546875 C 1.484375 -1.097656 1.898438 -1.457031 2.734375 -1.625 L 3.453125 -1.75 L 3.453125 -17.015625 L 2.734375 -17.15625 C 2.296875 -17.226562 1.976562 -17.351562 1.78125 -17.53125 C 1.582031 -17.707031 1.484375 -17.941406 1.484375 -18.234375 C 1.484375 -18.597656 1.628906 -18.78125 1.921875 -18.78125 L 16.640625 -18.78125 L 16.640625 -15 C 16.640625 -14.6875 16.488281 -14.53125 16.1875 -14.53125 C 15.96875 -14.53125 15.785156 -14.640625 15.640625 -14.859375 C 15.492188 -15.078125 15.367188 -15.421875 15.265625 -15.890625 L 15 -17.046875 L 6.15625 -17.046875 L 6.15625 -10.453125 L 13.421875 -10.453125 L 13.78125 -11.609375 C 13.957031 -12.148438 14.191406 -12.421875 14.484375 -12.421875 C 14.765625 -12.421875 14.90625 -12.285156 14.90625 -12.015625 L 14.90625 -7.1875 C 14.90625 -6.914062 14.765625 -6.78125 14.484375 -6.78125 C 14.191406 -6.78125 13.957031 -7.050781 13.78125 -7.59375 L 13.421875 -8.75 L 6.15625 -8.75 L 6.15625 -1.734375 L 15.375 -1.734375 L 15.640625 -2.96875 C 15.742188 -3.4375 15.867188 -3.773438 16.015625 -3.984375 C 16.160156 -4.191406 16.332031 -4.296875 16.53125 -4.296875 C 16.84375 -4.296875 17 -4.144531 17 -3.84375 L 17 0 Z M 1.921875 0 "/></g></g></g><g fill="#031a5b" fill-opacity="1"><g transform="translate(114.387483, 231.02225)"><g><path d="M 1.921875 0 C 1.628906 0 1.484375 -0.179688 1.484375 -0.546875 C 1.484375 -0.828125 1.582031 -1.054688 1.78125 -1.234375 C 1.976562 -1.421875 2.296875 -1.550781 2.734375 -1.625 L 3.453125 -1.75 L 3.453125 -17.15625 L 2.078125 -17.15625 C 1.898438 -17.15625 1.765625 -17.21875 1.671875 -17.34375 C 1.585938 -17.46875 1.546875 -17.640625 1.546875 -17.859375 C 1.546875 -18.148438 1.648438 -18.375 1.859375 -18.53125 C 2.078125 -18.695312 2.375 -18.78125 2.75 -18.78125 L 8.046875 -18.78125 C 8.296875 -18.78125 8.421875 -18.644531 8.421875 -18.375 C 8.421875 -17.957031 8.132812 -17.675781 7.5625 -17.53125 L 6.15625 -17.1875 L 6.15625 -1.78125 L 14.296875 -1.78125 L 14.75 -3.453125 C 14.875 -3.921875 15.003906 -4.257812 15.140625 -4.46875 C 15.273438 -4.675781 15.441406 -4.78125 15.640625 -4.78125 C 15.941406 -4.78125 16.09375 -4.628906 16.09375 -4.328125 L 16.09375 0 Z M 1.921875 0 "/></g></g></g><g fill="#031a5b" fill-opacity="1"><g transform="translate(132.107788, 231.02225)"><g/></g></g><g fill="#031a5b" fill-opacity="1"><g transform="translate(140.94127, 231.02225)"><g><path d="M 2.078125 -17.15625 L 0.75 -17.15625 C 0.570312 -17.15625 0.4375 -17.21875 0.34375 -17.34375 C 0.257812 -17.46875 0.21875 -17.640625 0.21875 -17.859375 C 0.21875 -18.148438 0.320312 -18.375 0.53125 -18.53125 C 0.75 -18.695312 1.050781 -18.78125 1.4375 -18.78125 L 6.9375 -18.78125 C 7.195312 -18.78125 7.328125 -18.644531 7.328125 -18.375 C 7.328125 -17.914062 6.992188 -17.617188 6.328125 -17.484375 L 4.96875 -17.1875 L 9.71875 -3.34375 C 9.832031 -3.019531 9.925781 -2.691406 10 -2.359375 C 10.070312 -2.023438 10.113281 -1.816406 10.125 -1.734375 L 10.265625 -1.734375 C 10.285156 -1.816406 10.328125 -2.023438 10.390625 -2.359375 C 10.453125 -2.691406 10.546875 -3.019531 10.671875 -3.34375 L 15.59375 -17.15625 L 13.96875 -17.15625 C 13.789062 -17.15625 13.648438 -17.21875 13.546875 -17.34375 C 13.453125 -17.46875 13.40625 -17.640625 13.40625 -17.859375 C 13.40625 -18.148438 13.507812 -18.375 13.71875 -18.53125 C 13.9375 -18.695312 14.234375 -18.78125 14.609375 -18.78125 L 19.453125 -18.78125 C 19.703125 -18.78125 19.828125 -18.644531 19.828125 -18.375 C 19.828125 -18.03125 19.578125 -17.769531 19.078125 -17.59375 L 17.6875 -17.15625 L 11.484375 0 L 8.234375 0 Z M 2.078125 -17.15625 "/></g></g></g><g fill="#031a5b" fill-opacity="1"><g transform="translate(162.173092, 231.02225)"><g><path d="M 2.15625 0 C 1.976562 0 1.84375 -0.0625 1.75 -0.1875 C 1.664062 -0.3125 1.625 -0.472656 1.625 -0.671875 C 1.625 -0.984375 1.726562 -1.21875 1.9375 -1.375 C 2.15625 -1.539062 2.457031 -1.625 2.84375 -1.625 L 3.515625 -1.625 L 3.515625 -17.15625 L 2.15625 -17.15625 C 1.976562 -17.15625 1.84375 -17.21875 1.75 -17.34375 C 1.664062 -17.46875 1.625 -17.640625 1.625 -17.859375 C 1.625 -18.148438 1.726562 -18.375 1.9375 -18.53125 C 2.15625 -18.695312 2.457031 -18.78125 2.84375 -18.78125 L 7.96875 -18.78125 C 8.21875 -18.78125 8.34375 -18.644531 8.34375 -18.375 C 8.34375 -17.957031 8.054688 -17.675781 7.484375 -17.53125 L 6.21875 -17.1875 L 6.21875 -1.59375 L 7.484375 -1.25 C 8.054688 -1.101562 8.34375 -0.820312 8.34375 -0.40625 C 8.34375 -0.132812 8.21875 0 7.96875 0 Z M 2.15625 0 "/></g></g></g><g fill="#031a5b" fill-opacity="1"><g transform="translate(173.302562, 231.02225)"><g><path d="M 1.921875 0 C 1.628906 0 1.484375 -0.179688 1.484375 -0.546875 C 1.484375 -1.097656 1.898438 -1.457031 2.734375 -1.625 L 3.453125 -1.75 L 3.453125 -17.015625 L 2.734375 -17.15625 C 1.898438 -17.3125 1.484375 -17.671875 1.484375 -18.234375 C 1.484375 -18.597656 1.628906 -18.78125 1.921875 -18.78125 L 9.9375 -18.78125 C 11.664062 -18.78125 13.207031 -18.4375 14.5625 -17.75 C 15.925781 -17.0625 17.003906 -16.007812 17.796875 -14.59375 C 18.585938 -13.1875 18.984375 -11.4375 18.984375 -9.34375 C 18.984375 -7.257812 18.585938 -5.519531 17.796875 -4.125 C 17.003906 -2.726562 15.925781 -1.691406 14.5625 -1.015625 C 13.207031 -0.335938 11.664062 0 9.9375 0 Z M 9.9375 -1.78125 C 11.9375 -1.78125 13.484375 -2.441406 14.578125 -3.765625 C 15.679688 -5.085938 16.234375 -6.945312 16.234375 -9.34375 C 16.234375 -11.757812 15.679688 -13.640625 14.578125 -14.984375 C 13.484375 -16.328125 11.9375 -17 9.9375 -17 L 6.15625 -17 L 6.15625 -1.78125 Z M 9.9375 -1.78125 "/></g></g></g><g fill="#031a5b" fill-opacity="1"><g transform="translate(194.669435, 231.02225)"><g><path d="M 2.03125 0 C 1.84375 0 1.703125 -0.0625 1.609375 -0.1875 C 1.523438 -0.3125 1.484375 -0.472656 1.484375 -0.671875 C 1.484375 -0.984375 1.59375 -1.21875 1.8125 -1.375 C 2.03125 -1.539062 2.328125 -1.625 2.703125 -1.625 L 3.375 -1.625 L 3.375 -17.15625 L 2.03125 -17.15625 C 1.84375 -17.15625 1.703125 -17.21875 1.609375 -17.34375 C 1.523438 -17.46875 1.484375 -17.640625 1.484375 -17.859375 C 1.484375 -18.148438 1.59375 -18.375 1.8125 -18.53125 C 2.03125 -18.695312 2.328125 -18.78125 2.703125 -18.78125 L 7.828125 -18.78125 C 8.085938 -18.78125 8.21875 -18.644531 8.21875 -18.375 C 8.21875 -17.976562 7.925781 -17.695312 7.34375 -17.53125 L 6.078125 -17.1875 L 6.078125 -10.640625 L 15.828125 -10.640625 L 15.828125 -17.15625 L 14.34375 -17.15625 C 14.164062 -17.15625 14.03125 -17.21875 13.9375 -17.34375 C 13.851562 -17.46875 13.8125 -17.640625 13.8125 -17.859375 C 13.8125 -18.148438 13.914062 -18.375 14.125 -18.53125 C 14.34375 -18.695312 14.640625 -18.78125 15.015625 -18.78125 L 20.15625 -18.78125 C 20.382812 -18.78125 20.5 -18.644531 20.5 -18.375 C 20.5 -18.175781 20.445312 -18.015625 20.34375 -17.890625 C 20.238281 -17.773438 20.054688 -17.675781 19.796875 -17.59375 L 18.53125 -17.1875 L 18.53125 -1.59375 L 19.796875 -1.1875 C 20.054688 -1.09375 20.238281 -0.988281 20.34375 -0.875 C 20.445312 -0.757812 20.5 -0.601562 20.5 -0.40625 C 20.5 -0.132812 20.382812 0 20.15625 0 L 14.34375 0 C 14.164062 0 14.03125 -0.0625 13.9375 -0.1875 C 13.851562 -0.3125 13.8125 -0.472656 13.8125 -0.671875 C 13.8125 -0.984375 13.914062 -1.21875 14.125 -1.375 C 14.34375 -1.539062 14.640625 -1.625 15.015625 -1.625 L 15.828125 -1.625 L 15.828125 -8.859375 L 6.078125 -8.859375 L 6.078125 -1.59375 L 7.34375 -1.25 C 7.925781 -1.101562 8.21875 -0.820312 8.21875 -0.40625 C 8.21875 -0.132812 8.085938 0 7.828125 0 Z M 2.03125 0 "/></g></g></g><g fill="#031a5b" fill-opacity="1"><g transform="translate(217.846088, 231.02225)"><g><path d="M 6.640625 0 C 6.460938 0 6.328125 -0.0625 6.234375 -0.1875 C 6.148438 -0.3125 6.109375 -0.472656 6.109375 -0.671875 C 6.109375 -0.984375 6.210938 -1.21875 6.421875 -1.375 C 6.640625 -1.539062 6.941406 -1.625 7.328125 -1.625 L 8 -1.625 L 8 -7.859375 L 2.046875 -17.15625 L 0.78125 -17.15625 C 0.601562 -17.15625 0.46875 -17.21875 0.375 -17.34375 C 0.289062 -17.46875 0.25 -17.640625 0.25 -17.859375 C 0.25 -18.148438 0.351562 -18.375 0.5625 -18.53125 C 0.78125 -18.695312 1.078125 -18.78125 1.453125 -18.78125 L 7.234375 -18.78125 C 7.492188 -18.78125 7.625 -18.632812 7.625 -18.34375 C 7.625 -17.875 7.328125 -17.585938 6.734375 -17.484375 L 5.296875 -17.1875 L 9.8125 -10.078125 L 14.5625 -17.15625 L 13.125 -17.15625 C 12.945312 -17.15625 12.8125 -17.21875 12.71875 -17.34375 C 12.632812 -17.46875 12.59375 -17.640625 12.59375 -17.859375 C 12.59375 -18.148438 12.691406 -18.375 12.890625 -18.53125 C 13.097656 -18.695312 13.394531 -18.78125 13.78125 -18.78125 L 18.421875 -18.78125 C 18.671875 -18.78125 18.796875 -18.644531 18.796875 -18.375 C 18.796875 -18.03125 18.546875 -17.769531 18.046875 -17.59375 L 16.703125 -17.15625 L 10.703125 -8.21875 L 10.703125 -1.59375 L 11.96875 -1.25 C 12.539062 -1.101562 12.828125 -0.820312 12.828125 -0.40625 C 12.828125 -0.132812 12.703125 0 12.453125 0 Z M 6.640625 0 "/></g></g></g><g fill="#031a5b" fill-opacity="1"><g transform="translate(238.078485, 231.02225)"><g><path d="M 0.671875 0 C 0.492188 0 0.359375 -0.0625 0.265625 -0.1875 C 0.179688 -0.3125 0.140625 -0.472656 0.140625 -0.671875 C 0.140625 -0.984375 0.242188 -1.21875 0.453125 -1.375 C 0.671875 -1.539062 0.96875 -1.625 1.34375 -1.625 L 2 -1.625 L 8.265625 -18.78125 L 11.296875 -18.78125 L 17.59375 -1.59375 L 18.6875 -1.328125 C 19 -1.253906 19.222656 -1.148438 19.359375 -1.015625 C 19.492188 -0.878906 19.5625 -0.703125 19.5625 -0.484375 C 19.5625 -0.160156 19.441406 0 19.203125 0 L 13.1875 0 C 13 0 12.851562 -0.0625 12.75 -0.1875 C 12.65625 -0.3125 12.609375 -0.472656 12.609375 -0.671875 C 12.609375 -0.984375 12.71875 -1.21875 12.9375 -1.375 C 13.15625 -1.539062 13.453125 -1.625 13.828125 -1.625 L 14.828125 -1.625 L 13.265625 -5.921875 L 5.59375 -5.921875 L 4.046875 -1.59375 L 5.625 -1.21875 C 5.957031 -1.144531 6.191406 -1.046875 6.328125 -0.921875 C 6.460938 -0.796875 6.53125 -0.632812 6.53125 -0.4375 C 6.53125 -0.144531 6.414062 0 6.1875 0 Z M 12.609375 -7.671875 L 9.421875 -16.5 L 6.234375 -7.671875 Z M 12.609375 -7.671875 "/></g></g></g><g fill="#031a5b" fill-opacity="1"><g transform="translate(258.93216, 231.02225)"><g><path d="M 1.921875 0 C 1.628906 0 1.484375 -0.179688 1.484375 -0.546875 C 1.484375 -0.828125 1.582031 -1.054688 1.78125 -1.234375 C 1.976562 -1.421875 2.296875 -1.550781 2.734375 -1.625 L 3.453125 -1.75 L 3.453125 -17.15625 L 2.078125 -17.15625 C 1.898438 -17.15625 1.765625 -17.21875 1.671875 -17.34375 C 1.585938 -17.46875 1.546875 -17.640625 1.546875 -17.859375 C 1.546875 -18.148438 1.648438 -18.375 1.859375 -18.53125 C 2.078125 -18.695312 2.375 -18.78125 2.75 -18.78125 L 8.046875 -18.78125 C 8.296875 -18.78125 8.421875 -18.644531 8.421875 -18.375 C 8.421875 -17.957031 8.132812 -17.675781 7.5625 -17.53125 L 6.15625 -17.1875 L 6.15625 -1.78125 L 14.296875 -1.78125 L 14.75 -3.453125 C 14.875 -3.921875 15.003906 -4.257812 15.140625 -4.46875 C 15.273438 -4.675781 15.441406 -4.78125 15.640625 -4.78125 C 15.941406 -4.78125 16.09375 -4.628906 16.09375 -4.328125 L 16.09375 0 Z M 1.921875 0 "/></g></g></g><g fill="#031a5b" fill-opacity="1"><g transform="translate(276.652465, 231.02225)"><g><path d="M 0.671875 0 C 0.492188 0 0.359375 -0.0625 0.265625 -0.1875 C 0.179688 -0.3125 0.140625 -0.472656 0.140625 -0.671875 C 0.140625 -0.984375 0.242188 -1.21875 0.453125 -1.375 C 0.671875 -1.539062 0.96875 -1.625 1.34375 -1.625 L 2 -1.625 L 8.265625 -18.78125 L 11.296875 -18.78125 L 17.59375 -1.59375 L 18.6875 -1.328125 C 19 -1.253906 19.222656 -1.148438 19.359375 -1.015625 C 19.492188 -0.878906 19.5625 -0.703125 19.5625 -0.484375 C 19.5625 -0.160156 19.441406 0 19.203125 0 L 13.1875 0 C 13 0 12.851562 -0.0625 12.75 -0.1875 C 12.65625 -0.3125 12.609375 -0.472656 12.609375 -0.671875 C 12.609375 -0.984375 12.71875 -1.21875 12.9375 -1.375 C 13.15625 -1.539062 13.453125 -1.625 13.828125 -1.625 L 14.828125 -1.625 L 13.265625 -5.921875 L 5.59375 -5.921875 L 4.046875 -1.59375 L 5.625 -1.21875 C 5.957031 -1.144531 6.191406 -1.046875 6.328125 -0.921875 C 6.460938 -0.796875 6.53125 -0.632812 6.53125 -0.4375 C 6.53125 -0.144531 6.414062 0 6.1875 0 Z M 12.609375 -7.671875 L 9.421875 -16.5 L 6.234375 -7.671875 Z M 12.609375 -7.671875 "/></g></g></g><g fill="#031a5b" fill-opacity="1"><g transform="translate(297.506139, 231.02225)"><g><path d="M 6.640625 0 C 6.460938 0 6.328125 -0.0625 6.234375 -0.1875 C 6.148438 -0.3125 6.109375 -0.472656 6.109375 -0.671875 C 6.109375 -0.984375 6.210938 -1.21875 6.421875 -1.375 C 6.640625 -1.539062 6.941406 -1.625 7.328125 -1.625 L 8 -1.625 L 8 -7.859375 L 2.046875 -17.15625 L 0.78125 -17.15625 C 0.601562 -17.15625 0.46875 -17.21875 0.375 -17.34375 C 0.289062 -17.46875 0.25 -17.640625 0.25 -17.859375 C 0.25 -18.148438 0.351562 -18.375 0.5625 -18.53125 C 0.78125 -18.695312 1.078125 -18.78125 1.453125 -18.78125 L 7.234375 -18.78125 C 7.492188 -18.78125 7.625 -18.632812 7.625 -18.34375 C 7.625 -17.875 7.328125 -17.585938 6.734375 -17.484375 L 5.296875 -17.1875 L 9.8125 -10.078125 L 14.5625 -17.15625 L 13.125 -17.15625 C 12.945312 -17.15625 12.8125 -17.21875 12.71875 -17.34375 C 12.632812 -17.46875 12.59375 -17.640625 12.59375 -17.859375 C 12.59375 -18.148438 12.691406 -18.375 12.890625 -18.53125 C 13.097656 -18.695312 13.394531 -18.78125 13.78125 -18.78125 L 18.421875 -18.78125 C 18.671875 -18.78125 18.796875 -18.644531 18.796875 -18.375 C 18.796875 -18.03125 18.546875 -17.769531 18.046875 -17.59375 L 16.703125 -17.15625 L 10.703125 -8.21875 L 10.703125 -1.59375 L 11.96875 -1.25 C 12.539062 -1.101562 12.828125 -0.820312 12.828125 -0.40625 C 12.828125 -0.132812 12.703125 0 12.453125 0 Z M 6.640625 0 "/></g></g></g><g fill="#031a5b" fill-opacity="1"><g transform="translate(317.738537, 231.02225)"><g><path d="M 0.671875 0 C 0.492188 0 0.359375 -0.0625 0.265625 -0.1875 C 0.179688 -0.3125 0.140625 -0.472656 0.140625 -0.671875 C 0.140625 -0.984375 0.242188 -1.21875 0.453125 -1.375 C 0.671875 -1.539062 0.96875 -1.625 1.34375 -1.625 L 2 -1.625 L 8.265625 -18.78125 L 11.296875 -18.78125 L 17.59375 -1.59375 L 18.6875 -1.328125 C 19 -1.253906 19.222656 -1.148438 19.359375 -1.015625 C 19.492188 -0.878906 19.5625 -0.703125 19.5625 -0.484375 C 19.5625 -0.160156 19.441406 0 19.203125 0 L 13.1875 0 C 13 0 12.851562 -0.0625 12.75 -0.1875 C 12.65625 -0.3125 12.609375 -0.472656 12.609375 -0.671875 C 12.609375 -0.984375 12.71875 -1.21875 12.9375 -1.375 C 13.15625 -1.539062 13.453125 -1.625 13.828125 -1.625 L 14.828125 -1.625 L 13.265625 -5.921875 L 5.59375 -5.921875 L 4.046875 -1.59375 L 5.625 -1.21875 C 5.957031 -1.144531 6.191406 -1.046875 6.328125 -0.921875 C 6.460938 -0.796875 6.53125 -0.632812 6.53125 -0.4375 C 6.53125 -0.144531 6.414062 0 6.1875 0 Z M 12.609375 -7.671875 L 9.421875 -16.5 L 6.234375 -7.671875 Z M 12.609375 -7.671875 "/></g></g></g><g fill="#bf8a09" fill-opacity="1"><g transform="translate(101.71384, 255.631301)"><g><path d="M 0.890625 -9.421875 L 2.171875 -9.421875 L 3.84375 -1.78125 L 5.515625 -9.421875 L 6.796875 -9.421875 L 6.96875 0 L 5.90625 0 L 5.8125 -6.84375 L 4.21875 0 L 3.46875 0 L 1.890625 -6.84375 L 1.78125 0 L 0.703125 0 Z M 0.890625 -9.421875 "/></g></g></g><g fill="#bf8a09" fill-opacity="1"><g transform="translate(112.514976, 255.631301)"><g><path d="M 2.21875 -9.421875 L 3.484375 -9.421875 L 5.5 0 L 4.265625 0 L 3.828125 -2.375 L 1.90625 -2.375 L 1.453125 0 L 0.21875 0 Z M 3.65625 -3.3125 L 2.859375 -7.5625 L 2.078125 -3.3125 Z M 3.65625 -3.3125 "/></g></g></g><g fill="#bf8a09" fill-opacity="1"><g transform="translate(121.361141, 255.631301)"><g><path d="M 0.734375 -9.421875 L 2.046875 -9.421875 L 2.046875 -5.359375 L 4.46875 -5.359375 L 4.46875 -9.421875 L 5.78125 -9.421875 L 5.78125 0 L 4.46875 0 L 4.46875 -4.40625 L 2.046875 -4.40625 L 2.046875 0 L 0.734375 0 Z M 0.734375 -9.421875 "/></g></g></g><g fill="#bf8a09" fill-opacity="1"><g transform="translate(131.010246, 255.631301)"><g><path d="M 3.171875 0.109375 C 2.503906 0.109375 1.988281 -0.0195312 1.625 -0.28125 C 1.257812 -0.550781 1.003906 -0.921875 0.859375 -1.390625 C 0.722656 -1.867188 0.65625 -2.460938 0.65625 -3.171875 L 0.65625 -9.421875 L 1.90625 -9.421875 L 1.90625 -3.125 C 1.90625 -2.40625 1.988281 -1.859375 2.15625 -1.484375 C 2.320312 -1.117188 2.660156 -0.9375 3.171875 -0.9375 C 3.671875 -0.9375 4.003906 -1.117188 4.171875 -1.484375 C 4.335938 -1.859375 4.421875 -2.40625 4.421875 -3.125 L 4.421875 -9.421875 L 5.671875 -9.421875 L 5.671875 -3.171875 C 5.671875 -2.460938 5.597656 -1.867188 5.453125 -1.390625 C 5.316406 -0.921875 5.066406 -0.550781 4.703125 -0.28125 C 4.335938 -0.0195312 3.828125 0.109375 3.171875 0.109375 Z M 3.171875 0.109375 "/></g></g></g><g fill="#bf8a09" fill-opacity="1"><g transform="translate(140.44989, 255.631301)"><g><path d="M 2.21875 -9.421875 L 3.484375 -9.421875 L 5.5 0 L 4.265625 0 L 3.828125 -2.375 L 1.90625 -2.375 L 1.453125 0 L 0.21875 0 Z M 3.65625 -3.3125 L 2.859375 -7.5625 L 2.078125 -3.3125 Z M 3.65625 -3.3125 "/></g></g></g><g fill="#bf8a09" fill-opacity="1"><g transform="translate(149.296055, 255.631301)"><g><path d="M 0.734375 -9.421875 L 2.625 -9.421875 C 3.582031 -9.421875 4.285156 -9.222656 4.734375 -8.828125 C 5.179688 -8.441406 5.40625 -7.804688 5.40625 -6.921875 C 5.40625 -5.710938 5.015625 -4.976562 4.234375 -4.71875 L 5.578125 0 L 4.3125 0 L 3.078125 -4.421875 L 2.046875 -4.421875 L 2.046875 0 L 0.734375 0 Z M 2.546875 -5.359375 C 3.117188 -5.359375 3.523438 -5.472656 3.765625 -5.703125 C 4.003906 -5.929688 4.125 -6.335938 4.125 -6.921875 C 4.125 -7.316406 4.082031 -7.625 4 -7.84375 C 3.914062 -8.0625 3.765625 -8.222656 3.546875 -8.328125 C 3.328125 -8.429688 3.019531 -8.484375 2.625 -8.484375 L 2.046875 -8.484375 L 2.046875 -5.359375 Z M 2.546875 -5.359375 "/></g></g></g><g fill="#bf8a09" fill-opacity="1"><g transform="translate(158.456418, 255.631301)"><g/></g></g><g fill="#bf8a09" fill-opacity="1"><g transform="translate(164.24215, 255.631301)"><g><path d="M 3.09375 0.109375 C 2.164062 0.109375 1.507812 -0.164062 1.125 -0.71875 C 0.75 -1.28125 0.5625 -2.050781 0.5625 -3.03125 L 0.5625 -6.359375 C 0.5625 -7.390625 0.742188 -8.171875 1.109375 -8.703125 C 1.484375 -9.242188 2.144531 -9.515625 3.09375 -9.515625 C 3.9375 -9.515625 4.539062 -9.285156 4.90625 -8.828125 C 5.28125 -8.367188 5.46875 -7.691406 5.46875 -6.796875 L 5.46875 -6.046875 L 4.21875 -6.046875 L 4.21875 -6.71875 C 4.21875 -7.15625 4.195312 -7.488281 4.15625 -7.71875 C 4.125 -7.945312 4.023438 -8.128906 3.859375 -8.265625 C 3.703125 -8.410156 3.453125 -8.484375 3.109375 -8.484375 C 2.753906 -8.484375 2.488281 -8.40625 2.3125 -8.25 C 2.132812 -8.101562 2.019531 -7.894531 1.96875 -7.625 C 1.914062 -7.363281 1.890625 -7.003906 1.890625 -6.546875 L 1.890625 -2.8125 C 1.890625 -2.332031 1.925781 -1.957031 2 -1.6875 C 2.082031 -1.414062 2.207031 -1.222656 2.375 -1.109375 C 2.550781 -0.992188 2.796875 -0.9375 3.109375 -0.9375 C 3.441406 -0.9375 3.6875 -1.007812 3.84375 -1.15625 C 4.007812 -1.300781 4.113281 -1.5 4.15625 -1.75 C 4.195312 -2.007812 4.21875 -2.363281 4.21875 -2.8125 L 4.21875 -3.5 L 5.46875 -3.5 L 5.46875 -2.8125 C 5.46875 -1.863281 5.289062 -1.140625 4.9375 -0.640625 C 4.582031 -0.140625 3.96875 0.109375 3.09375 0.109375 Z M 3.09375 0.109375 "/></g></g></g><g fill="#bf8a09" fill-opacity="1"><g transform="translate(173.355955, 255.631301)"><g><path d="M 3.140625 0.109375 C 2.210938 0.109375 1.550781 -0.148438 1.15625 -0.671875 C 0.757812 -1.203125 0.5625 -1.960938 0.5625 -2.953125 L 0.5625 -6.53125 C 0.5625 -7.507812 0.757812 -8.25 1.15625 -8.75 C 1.5625 -9.257812 2.222656 -9.515625 3.140625 -9.515625 C 4.054688 -9.515625 4.710938 -9.257812 5.109375 -8.75 C 5.515625 -8.238281 5.71875 -7.5 5.71875 -6.53125 L 5.71875 -2.9375 C 5.71875 -1.96875 5.515625 -1.21875 5.109375 -0.6875 C 4.703125 -0.15625 4.046875 0.109375 3.140625 0.109375 Z M 3.140625 -0.9375 C 3.628906 -0.9375 3.957031 -1.078125 4.125 -1.359375 C 4.300781 -1.648438 4.390625 -2.085938 4.390625 -2.671875 L 4.390625 -6.796875 C 4.390625 -7.367188 4.300781 -7.789062 4.125 -8.0625 C 3.957031 -8.34375 3.628906 -8.484375 3.140625 -8.484375 C 2.640625 -8.484375 2.304688 -8.34375 2.140625 -8.0625 C 1.972656 -7.789062 1.890625 -7.367188 1.890625 -6.796875 L 1.890625 -2.671875 C 1.890625 -2.085938 1.972656 -1.648438 2.140625 -1.359375 C 2.304688 -1.078125 2.640625 -0.9375 3.140625 -0.9375 Z M 3.140625 -0.9375 "/></g></g></g><g fill="#bf8a09" fill-opacity="1"><g transform="translate(182.749048, 255.631301)"><g><path d="M 0.734375 -9.421875 L 2.046875 -9.421875 L 2.046875 -0.9375 L 4.453125 -0.9375 L 4.453125 0 L 0.734375 0 Z M 0.734375 -9.421875 "/></g></g></g><g fill="#bf8a09" fill-opacity="1"><g transform="translate(190.489739, 255.631301)"><g><path d="M 3.140625 0.109375 C 2.210938 0.109375 1.550781 -0.148438 1.15625 -0.671875 C 0.757812 -1.203125 0.5625 -1.960938 0.5625 -2.953125 L 0.5625 -6.53125 C 0.5625 -7.507812 0.757812 -8.25 1.15625 -8.75 C 1.5625 -9.257812 2.222656 -9.515625 3.140625 -9.515625 C 4.054688 -9.515625 4.710938 -9.257812 5.109375 -8.75 C 5.515625 -8.238281 5.71875 -7.5 5.71875 -6.53125 L 5.71875 -2.9375 C 5.71875 -1.96875 5.515625 -1.21875 5.109375 -0.6875 C 4.703125 -0.15625 4.046875 0.109375 3.140625 0.109375 Z M 3.140625 -0.9375 C 3.628906 -0.9375 3.957031 -1.078125 4.125 -1.359375 C 4.300781 -1.648438 4.390625 -2.085938 4.390625 -2.671875 L 4.390625 -6.796875 C 4.390625 -7.367188 4.300781 -7.789062 4.125 -8.0625 C 3.957031 -8.34375 3.628906 -8.484375 3.140625 -8.484375 C 2.640625 -8.484375 2.304688 -8.34375 2.140625 -8.0625 C 1.972656 -7.789062 1.890625 -7.367188 1.890625 -6.796875 L 1.890625 -2.671875 C 1.890625 -2.085938 1.972656 -1.648438 2.140625 -1.359375 C 2.304688 -1.078125 2.640625 -0.9375 3.140625 -0.9375 Z M 3.140625 -0.9375 "/></g></g></g><g fill="#bf8a09" fill-opacity="1"><g transform="translate(199.882832, 255.631301)"><g><path d="M 0.734375 -9.421875 L 1.625 -9.421875 L 4.3125 -3.171875 L 4.3125 -9.421875 L 5.40625 -9.421875 L 5.40625 0 L 4.5625 0 L 1.84375 -6.4375 L 1.84375 0 L 0.734375 0 Z M 0.734375 -9.421875 "/></g></g></g><g fill="#bf8a09" fill-opacity="1"><g transform="translate(209.147922, 255.631301)"><g><path d="M 2.171875 -3.328125 L 0.140625 -9.421875 L 1.359375 -9.421875 L 2.8125 -4.875 L 4.21875 -9.421875 L 5.453125 -9.421875 L 3.4375 -3.328125 L 3.4375 0 L 2.171875 0 Z M 2.171875 -3.328125 "/></g></g></g><g fill="#bf8a09" fill-opacity="1"><g transform="translate(217.866088, 255.631301)"><g/></g></g><g fill="#bf8a09" fill-opacity="1"><g transform="translate(223.65182, 255.631301)"><g><path d="M 0.734375 -9.421875 L 2.046875 -9.421875 L 2.046875 -4.984375 L 4.21875 -9.421875 L 5.4375 -9.421875 L 3.578125 -5.265625 L 5.734375 0 L 4.453125 0 L 2.65625 -4.421875 L 2.046875 -3.328125 L 2.046875 0 L 0.734375 0 Z M 0.734375 -9.421875 "/></g></g></g><g fill="#bf8a09" fill-opacity="1"><g transform="translate(232.532904, 255.631301)"><g><path d="M 2.21875 -9.421875 L 3.484375 -9.421875 L 5.5 0 L 4.265625 0 L 3.828125 -2.375 L 1.90625 -2.375 L 1.453125 0 L 0.21875 0 Z M 3.65625 -3.3125 L 2.859375 -7.5625 L 2.078125 -3.3125 Z M 3.65625 -3.3125 "/></g></g></g><g fill="#bf8a09" fill-opacity="1"><g transform="translate(241.379072, 255.631301)"><g><path d="M 0.734375 -9.421875 L 2.625 -9.421875 C 3.582031 -9.421875 4.285156 -9.222656 4.734375 -8.828125 C 5.179688 -8.441406 5.40625 -7.804688 5.40625 -6.921875 C 5.40625 -5.710938 5.015625 -4.976562 4.234375 -4.71875 L 5.578125 0 L 4.3125 0 L 3.078125 -4.421875 L 2.046875 -4.421875 L 2.046875 0 L 0.734375 0 Z M 2.546875 -5.359375 C 3.117188 -5.359375 3.523438 -5.472656 3.765625 -5.703125 C 4.003906 -5.929688 4.125 -6.335938 4.125 -6.921875 C 4.125 -7.316406 4.082031 -7.625 4 -7.84375 C 3.914062 -8.0625 3.765625 -8.222656 3.546875 -8.328125 C 3.328125 -8.429688 3.019531 -8.484375 2.625 -8.484375 L 2.046875 -8.484375 L 2.046875 -5.359375 Z M 2.546875 -5.359375 "/></g></g></g><g fill="#bf8a09" fill-opacity="1"><g transform="translate(250.539437, 255.631301)"><g><path d="M 0.734375 -9.421875 L 4.390625 -9.421875 L 4.390625 -8.453125 L 2.046875 -8.453125 L 2.046875 -5.328125 L 3.953125 -5.328125 L 3.953125 -4.40625 L 2.046875 -4.40625 L 2.046875 -0.9375 L 4.40625 -0.9375 L 4.40625 0 L 0.734375 0 Z M 0.734375 -9.421875 "/></g></g></g><g fill="#bf8a09" fill-opacity="1"><g transform="translate(258.396492, 255.631301)"><g><path d="M 0.734375 -9.421875 L 2.625 -9.421875 C 3.582031 -9.421875 4.285156 -9.222656 4.734375 -8.828125 C 5.179688 -8.441406 5.40625 -7.804688 5.40625 -6.921875 C 5.40625 -5.710938 5.015625 -4.976562 4.234375 -4.71875 L 5.578125 0 L 4.3125 0 L 3.078125 -4.421875 L 2.046875 -4.421875 L 2.046875 0 L 0.734375 0 Z M 2.546875 -5.359375 C 3.117188 -5.359375 3.523438 -5.472656 3.765625 -5.703125 C 4.003906 -5.929688 4.125 -6.335938 4.125 -6.921875 C 4.125 -7.316406 4.082031 -7.625 4 -7.84375 C 3.914062 -8.0625 3.765625 -8.222656 3.546875 -8.328125 C 3.328125 -8.429688 3.019531 -8.484375 2.625 -8.484375 L 2.046875 -8.484375 L 2.046875 -5.359375 Z M 2.546875 -5.359375 "/></g></g></g><g fill="#bf8a09" fill-opacity="1"><g transform="translate(267.556858, 255.631301)"><g><path d="M 2.21875 -9.421875 L 3.484375 -9.421875 L 5.5 0 L 4.265625 0 L 3.828125 -2.375 L 1.90625 -2.375 L 1.453125 0 L 0.21875 0 Z M 3.65625 -3.3125 L 2.859375 -7.5625 L 2.078125 -3.3125 Z M 3.65625 -3.3125 "/></g></g></g><g clip-path="url(#id1)"><path fill="#031a5b" d="M 213.074219 137.355469 L 213.074219 128.285156 L 224.046875 125.777344 L 187.320312 117.789062 L 150.875 126.980469 L 165.292969 129.109375 C 168.71875 129.613281 171.257812 132.546875 171.257812 136 L 171.257812 140.957031 C 170.925781 142.261719 170.75 143.625 170.75 145.035156 C 170.75 154.234375 178.230469 161.691406 187.460938 161.691406 C 196.691406 161.691406 204.171875 154.234375 204.171875 145.035156 C 204.171875 143.625 203.996094 142.261719 203.667969 140.957031 L 203.667969 135.984375 C 203.667969 132.738281 205.917969 129.921875 209.09375 129.195312 L 212.253906 128.472656 L 212.253906 137.355469 C 211.996094 137.421875 211.816406 137.554688 211.792969 137.710938 L 211.292969 137.710938 L 211.292969 142.878906 C 211.292969 143.632812 211.90625 144.242188 212.664062 144.242188 C 213.417969 144.242188 214.03125 143.632812 214.03125 142.878906 L 214.03125 137.710938 L 213.535156 137.710938 C 213.507812 137.554688 213.332031 137.421875 213.074219 137.355469 " fill-opacity="1" fill-rule="nonzero"/></g><path fill="#e4b548" d="M 217.960938 166.699219 C 229.285156 165.824219 236.019531 161.820312 239.675781 158.613281 C 240.984375 157.464844 242.003906 156.332031 242.78125 155.328125 C 242.804688 151.109375 242.445312 146.910156 242.445312 146.910156 C 242.445312 146.910156 237.484375 159.972656 216.128906 161.621094 C 193.851562 163.34375 187.460938 170.152344 187.460938 170.152344 L 187.460938 175.382812 C 190.054688 173.355469 198.421875 168.207031 217.960938 166.699219 " fill-opacity="1" fill-rule="nonzero"/><path fill="#e4b548" d="M 219.621094 173.628906 C 236.066406 172.359375 243.554688 164.90625 246.5 160.730469 C 246.582031 155.777344 246.144531 152.269531 246.144531 152.269531 C 246.144531 152.269531 240.851562 166.210938 218.058594 167.972656 C 194.28125 169.808594 187.460938 177.078125 187.460938 177.078125 L 187.460938 182.804688 C 190.128906 180.699219 198.917969 175.226562 219.621094 173.628906 " fill-opacity="1" fill-rule="nonzero"/><path fill="#e4b548" d="M 221.175781 180.410156 C 233.738281 179.441406 241.207031 174.992188 245.261719 171.433594 C 247.371094 169.582031 248.796875 167.773438 249.71875 166.390625 C 249.742188 161.636719 249.335938 158.347656 249.335938 158.347656 C 249.335938 158.347656 243.753906 173.050781 219.722656 174.90625 C 194.652344 176.839844 187.460938 184.503906 187.460938 184.503906 L 187.460938 190.042969 C 190.203125 187.867188 199.378906 182.09375 221.175781 180.410156 " fill-opacity="1" fill-rule="nonzero"/><g clip-path="url(#id2)"><path fill="#e4b548" d="M 222.503906 187.109375 C 242.308594 185.578125 250.226562 175.828125 252.710938 171.714844 C 252.679688 167.304688 252.3125 164.332031 252.3125 164.332031 C 252.3125 164.332031 246.464844 179.742188 221.273438 181.6875 C 195 183.714844 187.460938 191.746094 187.460938 191.746094 L 187.460938 197.132812 C 190.261719 194.894531 199.773438 188.863281 222.503906 187.109375 " fill-opacity="1" fill-rule="nonzero"/></g><path fill="#c3921c" d="M 156.964844 166.699219 C 145.636719 165.824219 138.902344 161.820312 135.25 158.613281 C 133.9375 157.464844 132.917969 156.332031 132.140625 155.328125 C 132.117188 151.109375 132.480469 146.910156 132.480469 146.910156 C 132.480469 146.910156 137.4375 159.972656 158.792969 161.621094 C 181.070312 163.34375 187.460938 170.152344 187.460938 170.152344 L 187.460938 175.382812 C 184.867188 173.355469 176.503906 168.207031 156.964844 166.699219 " fill-opacity="1" fill-rule="nonzero"/><path fill="#c3921c" d="M 155.300781 173.628906 C 138.855469 172.359375 131.371094 164.90625 128.425781 160.730469 C 128.339844 155.777344 128.777344 152.269531 128.777344 152.269531 C 128.777344 152.269531 134.070312 166.210938 156.863281 167.972656 C 180.640625 169.808594 187.460938 177.078125 187.460938 177.078125 L 187.460938 182.804688 C 184.792969 180.699219 176.007812 175.226562 155.300781 173.628906 " fill-opacity="1" fill-rule="nonzero"/><path fill="#c3921c" d="M 153.75 180.410156 C 141.183594 179.441406 133.714844 174.992188 129.660156 171.433594 C 127.550781 169.582031 126.125 167.773438 125.207031 166.390625 C 125.179688 161.636719 125.589844 158.347656 125.589844 158.347656 C 125.589844 158.347656 131.167969 173.050781 155.199219 174.90625 C 180.269531 176.839844 187.460938 184.503906 187.460938 184.503906 L 187.460938 190.042969 C 184.722656 187.867188 175.542969 182.09375 153.75 180.410156 " fill-opacity="1" fill-rule="nonzero"/><g clip-path="url(#id3)"><path fill="#c3921c" d="M 152.417969 187.109375 C 132.613281 185.578125 124.695312 175.828125 122.210938 171.714844 C 122.242188 167.304688 122.613281 164.332031 122.613281 164.332031 C 122.613281 164.332031 128.460938 179.742188 153.648438 181.6875 C 179.925781 183.714844 187.460938 191.746094 187.460938 191.746094 L 187.460938 197.132812 C 184.660156 194.894531 175.148438 188.863281 152.417969 187.109375 " fill-opacity="1" fill-rule="nonzero"/></g></svg>