<svg width="100" height="100" viewBox="0 0 100 100" fill="none" xmlns="http://www.w3.org/2000/svg">
<path d="M21.7539 64.4643L21.754 64.4642L21.7495 64.4536C20.3587 61.1662 20.0748 57.7916 20.8967 54.3142C21.7207 50.8281 23.3317 47.8231 25.731 45.2896C30.5817 41.3502 33.3512 37.2811 33.8943 33.0718L33.8968 33.0524L33.8978 33.0328C34.035 30.2896 33.0721 27.4177 31.0801 24.4297C29.1025 21.4634 26.9189 19.0448 24.5257 17.1834L24.2188 16.9447L23.9118 17.1834C13.2426 25.4817 7.89844 36.4349 7.89844 50C7.89844 56.8494 9.44692 63.2759 12.544 69.2724C15.6392 75.2652 19.826 80.1135 25.1039 83.8081L25.8906 84.3588V83.3984C25.8906 77.7195 24.5044 71.4059 21.7539 64.4643ZM33.2905 88.2429L33.2633 88.5975L33.5893 88.7396C38.7326 90.9816 44.2045 92.1016 50 92.1016C61.5916 92.1016 71.5168 87.9794 79.7481 79.7481C87.9794 71.5168 92.1016 61.5916 92.1016 50C92.1016 45.9098 91.4419 41.5664 90.1292 36.972L90.0398 36.6593L89.7178 36.6142L62.4108 32.7912C61.2271 32.6255 60.1295 32.0787 59.2843 31.2334L51.5254 23.4746C50.1027 22.0518 50.1027 19.7451 51.5254 18.3223L59.9239 9.92387L60.5409 9.30679L59.6965 9.0865C56.6569 8.29355 53.4241 7.89844 50 7.89844C42.7755 7.89844 36.5701 9.27778 31.4036 12.0598L30.8007 12.3844L31.2934 12.8598C38.657 19.965 41.862 26.9178 41.1046 33.7338L41.1037 33.7423L41.103 33.7507C40.7268 38.6416 37.3887 44.3222 30.9123 50.8025C29.288 52.1614 28.2352 53.7762 27.7854 55.6447C27.3353 57.5143 27.4987 59.5962 28.2352 61.8727L28.2428 61.8962L28.2527 61.9188C32.2626 71.1027 33.9342 79.875 33.2905 88.2429ZM68.5731 12.048L68.2548 11.8975L68.0058 12.1464L62.9631 17.1892C60.9232 19.229 60.9585 22.547 63.0413 24.543C63.937 25.4013 65.0797 25.9566 66.308 26.1304L85.2815 28.8154L86.3021 28.9598L85.7837 28.0689C81.5687 20.8242 75.8303 15.4787 68.5731 12.048ZM52.9525 43.2499L52.9635 43.2338L52.9732 43.2168C54.9586 39.7423 58.1035 38 62.5 38H63.1823L73.0518 42.0639L73.0565 42.0658C76.8406 43.5794 79.1185 46.0069 79.9839 49.3411C81.5262 55.6416 80.5146 59.7947 77.2513 62.0911L77.216 62.1159L77.1855 62.1464C74.6162 64.7157 72.3807 69.6973 70.4286 76.9701L70.0993 77.6286L65.4856 82.0501C63.8736 83.4103 62.1661 84.0703 60.3516 84.0703C59.6226 84.0703 59.0539 83.9484 58.622 83.7325L58.5793 83.7111L58.5333 83.6982C56.9708 83.2607 55.7896 82.584 54.9554 81.6901C54.1242 80.7996 53.6091 79.6636 53.4255 78.2556L53.423 78.2369L53.4192 78.2183L50.4895 64.1558L50.4784 64.1024L50.456 64.0526L48.6981 60.1464L48.6982 60.1464L48.6949 60.1393C46.8207 56.1411 47.1208 52.1564 49.6377 48.1247L52.9525 43.2499ZM62.2741 45.4263L62.1941 45.3984H62.1094C61.4477 45.3984 60.8488 45.5462 60.3337 45.8632C59.8261 46.1756 59.43 46.6336 59.1365 47.2108L55.834 52.2617C55.8336 52.2623 55.8331 52.263 55.8327 52.2636C55.2829 53.0889 54.9486 53.8991 54.8733 54.6889C54.798 55.4795 54.9857 56.2193 55.4256 56.8911L57.9187 61.8773L60.2498 75.0869L60.4167 76.0326L61.0957 75.3536L63.2442 73.2051L63.3316 73.1177L63.3682 72.9995C64.7947 68.3958 66.2972 64.6361 67.8719 61.7117C69.449 58.7827 71.083 56.721 72.7586 55.4799L72.9609 55.33V55.0781C72.9609 52.9084 72.8377 51.3048 72.5681 50.3142C72.5441 49.9067 72.3298 49.5524 72.0332 49.2558C71.7193 48.9419 71.2758 48.6531 70.7314 48.3809L70.7028 48.3666L70.6725 48.356L62.2741 45.4263ZM15.002 15.002C24.6739 5.33007 36.3306 0.5 50 0.5C63.6694 0.5 75.3261 5.33007 84.998 15.002C94.6699 24.6739 99.5 36.3306 99.5 50C99.5 63.6694 94.6699 75.3261 84.998 84.998C75.3261 94.6699 63.6694 99.5 50 99.5C36.3306 99.5 24.6739 94.6699 15.002 84.998C5.33007 75.3261 0.5 63.6694 0.5 50C0.5 36.3306 5.33007 24.6739 15.002 15.002Z" fill="#CE800D" stroke="white"/>
</svg>
