<svg width="41" height="41" viewBox="0 0 41 41" fill="none" xmlns="http://www.w3.org/2000/svg">
<path d="M0 9C0 4.02944 4.02944 0 9 0H41V32C41 36.9706 36.9706 41 32 41H9C4.02944 41 0 36.9706 0 32V9Z" fill="#9DB9EC"/>
<path d="M17.808 32V21.677H15V17.9602H17.808V14.7855C17.808 12.2909 19.4668 10 23.2888 10C24.8363 10 25.9806 10.1442 25.9806 10.1442L25.8904 13.6151C25.8904 13.6151 24.7234 13.604 23.45 13.604C22.0717 13.604 21.8508 14.2214 21.8508 15.2462V17.9602H26L25.8195 21.677H21.8508V32H17.808Z" fill="#2458B8"/>
</svg>
