<svg width="16" height="23" viewBox="0 0 16 23" fill="none" xmlns="http://www.w3.org/2000/svg">
<path d="M15.4786 6.33581L9.97857 0.835812C9.82143 0.678669 9.66429 0.600098 9.42857 0.600098H1.57143C0.707143 0.600098 0 1.30724 0 2.17153V21.0287C0 21.893 0.707143 22.6001 1.57143 22.6001H14.1429C15.0071 22.6001 15.7143 21.893 15.7143 21.0287V6.88581C15.7143 6.6501 15.6357 6.49295 15.4786 6.33581ZM9.42857 3.69292C9.42857 3.24747 9.96714 3.02438 10.2821 3.33937L12.975 6.03226C13.29 6.34724 13.0669 6.88581 12.6215 6.88581H10.4286C9.87629 6.88581 9.42857 6.4381 9.42857 5.88581V3.69292ZM14.1429 20.0287C14.1429 20.581 13.6951 21.0287 13.1429 21.0287H2.57143C2.01914 21.0287 1.57143 20.581 1.57143 20.0287V3.17153C1.57143 2.61924 2.01914 2.17153 2.57143 2.17153H7.85714V6.88581C7.85714 7.7501 8.56429 8.45724 9.42857 8.45724H14.1429V20.0287Z" fill="#2458B8"/>
<path d="M3.14258 17.1002C3.14258 16.6662 3.49435 16.3145 3.92829 16.3145H11.7854C12.2194 16.3145 12.5712 16.6662 12.5712 17.1002V17.1002C12.5712 17.5341 12.2194 17.8859 11.7854 17.8859H3.92829C3.49436 17.8859 3.14258 17.5341 3.14258 17.1002V17.1002Z" fill="#2458B8"/>
<path d="M3.14258 12.3858C3.14258 11.9519 3.49435 11.6001 3.92829 11.6001H11.7854C12.2194 11.6001 12.5712 11.9519 12.5712 12.3858V12.3858C12.5712 12.8198 12.2194 13.1715 11.7854 13.1715H3.92829C3.49436 13.1715 3.14258 12.8198 3.14258 12.3858V12.3858Z" fill="#2458B8"/>
</svg>
