<svg width="25" height="28" viewBox="0 0 25 28" fill="none" xmlns="http://www.w3.org/2000/svg">
<path d="M24.75 13.6238H23C22.8625 13.6238 22.75 13.7464 22.75 13.8963V23.7953C22.75 24.3476 22.3023 24.7953 21.75 24.7953H3.25C2.69772 24.7953 2.25 24.3476 2.25 23.7953V3.45228C2.25 2.89999 2.69772 2.45228 3.25 2.45228H12.25C12.3875 2.45228 12.5 2.32967 12.5 2.1798V0.272476C12.5 0.122614 12.3875 0 12.25 0H1C0.446875 0 0 0.48705 0 1.0899V26.1577C0 26.7605 0.446875 27.2476 1 27.2476H24C24.5531 27.2476 25 26.7605 25 26.1577V13.8963C25 13.7464 24.8875 13.6238 24.75 13.6238Z" fill="#CE800D"/>
<path d="M7.87105 14.1972L7.81253 18.1888C7.80945 18.4876 8.03122 18.7327 8.30534 18.7327H8.31766L11.9521 18.6353C12.0137 18.632 12.0753 18.6051 12.1184 18.5581L24.9284 4.6261C25.0239 4.52203 25.0239 4.35081 24.9284 4.24674L21.0999 0.0772136C21.0506 0.0234999 20.989 0 20.9243 0C20.8596 0 20.798 0.026857 20.7488 0.0772136L7.94189 14.0092C7.89741 14.0599 7.87211 14.1271 7.87105 14.1972ZM9.8216 15.3714C9.825 15.1254 9.91892 14.8894 10.0854 14.7084L20.1882 3.72123C20.5844 3.29038 21.2643 3.29038 21.6604 3.72123L21.6941 3.75788C22.046 4.14053 22.046 4.72895 21.6941 5.1116L11.4885 16.2105C11.3123 16.4021 11.0661 16.5141 10.8059 16.5209C10.2599 16.5353 9.81162 16.0925 9.81918 15.5464L9.8216 15.3714Z" fill="#CE800D"/>
</svg>
