<svg width="41" height="41" viewBox="0 0 41 41" fill="none" xmlns="http://www.w3.org/2000/svg">
<path d="M0 9C0 4.02944 4.02944 0 9 0H41V32C41 36.9706 36.9706 41 32 41H9C4.02944 41 0 36.9706 0 32V9Z" fill="#FFEB8A"/>
<path d="M13.2835 15.5748C14.5447 15.5748 15.5671 14.5507 15.5671 13.2874C15.5671 12.0241 14.5447 11 13.2835 11C12.0224 11 11 12.0241 11 13.2874C11 14.5507 12.0224 15.5748 13.2835 15.5748Z" fill="#DBB700"/>
<path d="M17.7233 17.3087V29.9992H21.6569V23.7235C21.6569 22.0675 21.9679 20.4638 24.0177 20.4638C26.0392 20.4638 26.0643 22.3571 26.0643 23.828V30.0002H30V23.0408C30 19.6223 29.2652 16.9951 25.2763 16.9951C23.3612 16.9951 22.0775 18.0479 21.5525 19.0442H21.4993V17.3087H17.7233ZM11.3131 17.3087H15.253V29.9992H11.3131V17.3087Z" fill="#DBB700"/>
</svg>
