<svg width="102" height="95" viewBox="0 0 102 95" fill="none" xmlns="http://www.w3.org/2000/svg">
<mask id="path-1-inside-1_96_399" fill="white">
<path d="M82.5615 52.8833L63.0274 68.5891C63.0097 68.6033 62.9876 68.6111 62.9648 68.6111H36.85C36.7948 68.6111 36.75 68.5663 36.75 68.5111V63.4333C36.75 63.3781 36.7948 63.3333 36.85 63.3333H58.0912C58.5661 63.3331 59.0319 63.2034 59.4392 62.958C59.8465 62.7126 60.18 62.3608 60.4041 61.94C60.6282 61.5192 60.7346 61.0451 60.7119 60.5683C60.6892 60.0916 60.5383 59.6299 60.2752 59.2325L55.6133 52.2025C54.6569 50.7554 53.3591 49.5687 51.8358 48.7482C50.3124 47.9277 48.6107 47.4989 46.8825 47.5H5.25C3.85761 47.5 2.52225 48.056 1.53769 49.0458C0.553123 50.0356 0 51.378 0 52.7778V84.4444C0 87.2439 1.10625 89.9288 3.07538 91.9083C5.04451 93.8879 7.71523 95 10.5 95H61.1047C63.3497 95.0005 65.5688 94.5186 67.6133 93.5865C69.6579 92.6544 71.4806 91.2937 72.9593 89.5956L100.971 57.407C102.89 55.2027 101.952 51.7564 99.1813 50.8279L97.377 50.2233C94.883 49.3876 92.2205 49.1932 89.6325 49.6578C87.0445 50.1225 84.6135 51.2314 82.5615 52.8833ZM90.6045 23.1694C92.9722 20.7153 94.437 17.3217 94.437 13.5744C94.437 9.82722 92.9722 6.43361 90.6045 3.97944C89.4071 2.72322 87.9695 1.72317 86.3781 1.03934C84.7867 0.355517 83.0742 0.00199653 81.3436 4.13651e-07C81.3435 3.64588e-07 81.3435 4.40202e-07 81.3435 3.39407e-07C81.3421 -2.91906e-06 74.8118 -0.0151175 68.25 6.78722C61.6881 -0.0151916 55.1577 -2.58922e-06 55.1565 3.39508e-07C55.1565 4.30239e-07 55.1565 3.64327e-07 55.1564 4.13333e-07C53.4263 0.00222005 51.7143 0.355324 50.1231 1.03818C48.5318 1.72104 47.0939 2.71963 45.8955 3.97417C43.5277 6.43361 42.063 9.82195 42.063 13.5692C42.063 17.3164 43.5277 20.7153 45.8955 23.1642L67.44 46.6182C67.8758 47.0926 68.6242 47.0927 69.0601 46.6183L90.6045 23.1694Z"/>
</mask>
<path d="M82.5615 52.8833L86.9477 58.3387L86.951 58.336L82.5615 52.8833ZM58.0912 63.3333V70.3333H58.0949L58.0912 63.3333ZM60.2752 59.2325L66.1123 55.3687L66.109 55.3638L60.2752 59.2325ZM55.6133 52.2025L49.7734 56.062L49.7795 56.0712L55.6133 52.2025ZM46.8825 47.5V54.5H46.8871L46.8825 47.5ZM0 52.7778H-7H0ZM0 84.4444H-7H0ZM61.1047 95L61.1064 88H61.1047V95ZM72.9593 89.5956L78.2383 94.1924L78.2397 94.1909L72.9593 89.5956ZM97.377 50.2233L99.6011 43.5861V43.5861L97.377 50.2233ZM90.6045 23.1694L85.5668 18.3092L85.5076 18.3706L85.4499 18.4334L90.6045 23.1694ZM90.6045 3.97944L85.5376 8.80917L85.5522 8.82448L85.5668 8.8397L90.6045 3.97944ZM68.25 6.78722L63.212 11.6471L68.25 16.8698L73.288 11.6471L68.25 6.78722ZM50.1231 1.03818L47.3626 -5.39454L50.1231 1.03818ZM45.8955 3.97417L50.9384 8.82902L50.9478 8.81923L50.9572 8.80941L45.8955 3.97417ZM45.8955 23.1642L51.0506 18.4287L50.9901 18.3628L50.9279 18.2985L45.8955 23.1642ZM55.1565 3.39508e-07L55.1399 -6.99998L55.1565 3.39508e-07ZM55.1564 4.13333e-07L55.1654 6.99999L55.1564 4.13333e-07ZM81.3436 4.13651e-07L81.3355 7L81.3436 4.13651e-07ZM81.3435 3.39407e-07L81.3269 6.99998L81.3435 3.39407e-07ZM67.44 46.6182L62.2848 51.3536L67.44 46.6182ZM69.0601 46.6183L63.9055 41.8823L69.0601 46.6183ZM100.971 57.407L106.252 62.0023L100.971 57.407ZM99.1813 50.8279L101.405 44.1907L99.1813 50.8279ZM63.0274 68.5891L58.6412 63.1337L63.0274 68.5891ZM78.1753 47.428L58.6412 63.1337L67.4137 74.0444L86.9477 58.3387L78.1753 47.428ZM62.9648 61.6111H36.85V75.6111H62.9648V61.6111ZM43.75 68.5111V63.4333H29.75V68.5111H43.75ZM36.85 70.3333H58.0912V56.3333H36.85V70.3333ZM58.0949 70.3333C59.8433 70.3324 61.5564 69.8546 63.0514 68.954L55.827 56.962C56.5074 56.5521 57.2888 56.3338 58.0876 56.3333L58.0949 70.3333ZM63.0514 68.954C64.5461 68.0536 65.765 66.7654 66.5825 65.2305L54.2257 58.6495C54.5949 57.9562 55.1469 57.3717 55.827 56.962L63.0514 68.954ZM66.5825 65.2305C67.3998 63.6958 67.7865 61.9698 67.704 60.2356L53.7198 60.9011C53.6827 60.1204 53.8566 59.3425 54.2257 58.6495L66.5825 65.2305ZM67.704 60.2356C67.6215 58.5014 67.0725 56.8194 66.1123 55.3687L54.4382 63.0963C54.0041 62.4404 53.757 61.6817 53.7198 60.9011L67.704 60.2356ZM66.109 55.3638L61.447 48.3338L49.7795 56.0712L54.4415 63.1012L66.109 55.3638ZM61.4531 48.343C59.8613 45.9343 57.6986 43.9552 55.1552 42.5853L48.5163 54.9111C49.0197 55.1822 49.4525 55.5765 49.7734 56.062L61.4531 48.343ZM55.1552 42.5853C52.6116 41.2152 49.7678 40.4981 46.8779 40.5L46.8871 54.5C47.4537 54.4996 48.0132 54.6401 48.5163 54.9111L55.1552 42.5853ZM46.8825 40.5H5.25V54.5H46.8825V40.5ZM5.25 40.5C1.98914 40.5 -1.13066 41.8026 -3.4251 44.1092L6.50048 53.9825C6.17517 54.3095 5.72609 54.5 5.25 54.5V40.5ZM-3.4251 44.1092C-5.71831 46.4145 -7 49.5334 -7 52.7778H7C7 53.2227 6.82455 53.6567 6.50048 53.9825L-3.4251 44.1092ZM-7 52.7778V84.4444H7V52.7778H-7ZM-7 84.4444C-7 89.0886 -5.16518 93.5499 -1.88741 96.845L8.03817 86.9717C7.37767 86.3077 7 85.3993 7 84.4444H-7ZM-1.88741 96.845C1.3916 100.141 5.84675 102 10.5 102V88C9.5837 88 8.69742 87.6344 8.03817 86.9717L-1.88741 96.845ZM10.5 102H61.1047V88H10.5V102ZM61.1031 102C64.3514 102.001 67.5613 101.303 70.5171 99.9558L64.7096 87.2172C63.5763 87.7338 62.3479 88.0003 61.1064 88L61.1031 102ZM70.5171 99.9558C73.4728 98.6083 76.1049 96.6425 78.2383 94.1924L67.6802 84.9987C66.8563 85.9448 65.843 86.7005 64.7096 87.2172L70.5171 99.9558ZM78.2397 94.1909L106.252 62.0023L95.691 52.8117L67.6788 85.0002L78.2397 94.1909ZM101.405 44.1907L99.6011 43.5861L95.1529 56.8606L96.9571 57.4652L101.405 44.1907ZM99.6011 43.5861C95.9933 42.3771 92.1405 42.0956 88.3955 42.768L90.8695 56.5477C92.3004 56.2908 93.7727 56.3981 95.1529 56.8606L99.6011 43.5861ZM88.3955 42.768C84.6506 43.4404 81.136 45.0445 78.172 47.4306L86.951 58.336C88.0911 57.4183 89.4385 56.8046 90.8695 56.5477L88.3955 42.768ZM95.6421 28.0297C99.2441 24.2962 101.437 19.1699 101.437 13.5744H87.437C87.437 15.4734 86.7003 17.1343 85.5668 18.3092L95.6421 28.0297ZM101.437 13.5744C101.437 7.97899 99.2441 2.85265 95.6421 -0.880815L85.5668 8.8397C86.7003 10.0146 87.437 11.6755 87.437 13.5744H101.437ZM95.6714 -0.850285C93.8235 -2.78898 91.6028 -4.33448 89.1417 -5.39204L83.6145 7.47073C84.3362 7.78083 84.9907 8.23542 85.5376 8.80917L95.6714 -0.850285ZM89.1417 -5.39204C86.6804 -6.44963 84.0306 -6.9969 81.3516 -6.99999L81.3355 7C82.1179 7.0009 82.8929 7.16066 83.6145 7.47073L89.1417 -5.39204ZM81.3601 -6.99998C80.1996 -7.00273 71.5387 -6.70461 63.212 1.92735L73.288 11.6471C78.0849 6.67437 82.4846 7.00272 81.3269 6.99998L81.3601 -6.99998ZM73.288 1.92735C64.9612 -6.7047 56.3002 -7.00274 55.1399 -6.99998L55.1731 6.99998C54.0153 7.00273 58.415 6.67432 63.212 11.6471L73.288 1.92735ZM55.1475 -6.99999C52.4704 -6.99656 49.8225 -6.45016 47.3626 -5.39454L52.8835 7.47089C53.6061 7.16081 54.3821 7.001 55.1654 6.99999L55.1475 -6.99999ZM47.3626 -5.39454C44.9027 -4.33893 42.6825 -2.79636 40.8338 -0.861072L50.9572 8.80941C51.5053 8.23561 52.1609 7.78102 52.8835 7.47089L47.3626 -5.39454ZM40.8526 -0.880682C37.2586 2.85256 35.063 7.96957 35.063 13.5692H49.063C49.063 11.6743 49.7969 10.0147 50.9384 8.82902L40.8526 -0.880682ZM35.063 13.5692C35.063 19.1604 37.2531 24.2961 40.8631 28.0298L50.9279 18.2985C49.8024 17.1344 49.063 15.4724 49.063 13.5692H35.063ZM40.7403 27.8996L62.2848 51.3536L72.5951 41.8828L51.0506 18.4287L40.7403 27.8996ZM74.2147 51.3543L95.7591 27.9054L85.4499 18.4334L63.9055 41.8823L74.2147 51.3543ZM55.1399 -6.99998C55.1401 -6.99998 55.1419 -6.99998 55.1442 -6.99999C55.1456 -6.99999 55.1474 -6.99999 55.1495 -7C55.1517 -7 55.1536 -7 55.155 -7C55.1556 -7 55.1561 -7 55.1562 -7C55.1564 -7 55.1561 -7 55.1558 -7C55.1551 -7 55.1541 -7 55.1529 -7C55.1506 -7 55.1487 -7 55.1475 -6.99999L55.1654 6.99999C55.1642 7 55.1623 7 55.16 7C55.1588 7 55.1578 7 55.1571 7C55.1569 7 55.1565 7 55.1568 7C55.1568 7 55.1573 7 55.1579 7C55.1593 7 55.1612 7 55.1635 7C55.1656 6.99999 55.1674 6.99999 55.1687 6.99999C55.171 6.99999 55.1728 6.99998 55.1731 6.99998L55.1399 -6.99998ZM81.3516 -6.99999C81.3503 -7 81.3482 -7 81.3456 -7C81.3443 -7 81.3432 -7 81.3424 -7C81.3422 -7 81.3418 -7 81.3421 -7C81.3421 -7 81.3427 -7 81.3433 -7C81.3449 -7 81.347 -7 81.3494 -7C81.3517 -7 81.3537 -6.99999 81.3552 -6.99999C81.3578 -6.99999 81.3598 -6.99998 81.3601 -6.99998L81.3269 6.99998C81.3272 6.99998 81.3293 6.99999 81.3318 6.99999C81.3333 6.99999 81.3353 7 81.3376 7C81.3401 7 81.3422 7 81.3438 7C81.3444 7 81.3449 7 81.345 7C81.3453 7 81.3449 7 81.3447 7C81.3439 7 81.3428 7 81.3415 7C81.3389 7 81.3368 7 81.3355 7L81.3516 -6.99999ZM43.75 63.4333C43.75 67.2441 40.6608 70.3333 36.85 70.3333V56.3333C32.9288 56.3333 29.75 59.5121 29.75 63.4333H43.75ZM62.2848 51.3536C65.494 54.8473 71.0052 54.8476 74.2147 51.3543L63.9055 41.8823C66.2433 39.3378 70.2576 39.338 72.5951 41.8828L62.2848 51.3536ZM36.85 61.6111C40.6608 61.6111 43.75 64.7004 43.75 68.5111H29.75C29.75 72.4323 32.9287 75.6111 36.85 75.6111V61.6111ZM106.252 62.0023C111.445 56.0345 108.907 46.7043 101.405 44.1907L96.9571 57.4652C94.9974 56.8085 94.3341 54.3709 95.691 52.8117L106.252 62.0023ZM58.6412 63.1337C59.8668 62.1483 61.3923 61.6111 62.9648 61.6111V75.6111C64.5829 75.6111 66.1525 75.0584 67.4137 74.0444L58.6412 63.1337Z" fill="#DBB700" mask="url(#path-1-inside-1_96_399)"/>
</svg>
