<svg width="17" height="22" viewBox="0 0 17 22" fill="none" xmlns="http://www.w3.org/2000/svg">
<path d="M6.49995 9.32742L8.28035 7.69621C8.76717 7.24932 9.10934 6.66715 9.26293 6.02441C9.41653 5.38167 9.37455 4.7077 9.14238 4.08899L8.38313 2.06159C8.09948 1.3047 7.53793 0.684428 6.81288 0.327142C6.08784 -0.0301436 5.25386 -0.0975624 4.48084 0.138621C1.63617 1.00893 -0.550376 3.65301 0.122662 6.79275C0.565276 8.85828 1.41238 11.451 3.01706 14.2094C4.62506 16.9745 6.46182 19.0169 8.03667 20.4525C10.4139 22.6158 13.8122 22.0754 15.9987 20.0364C16.5849 19.4899 16.9405 18.7404 16.9932 17.9408C17.0459 17.1412 16.7916 16.3515 16.2822 15.7329L14.8897 14.042C14.4697 13.5307 13.9064 13.1567 13.2721 12.9682C12.6378 12.7798 11.9616 12.7854 11.3306 12.9844L9.02965 13.7088C8.43544 13.0956 7.91471 12.4152 7.47801 11.6814C7.05651 10.9393 6.72801 10.1482 6.49995 9.32576V9.32742Z" fill="black"/>
</svg>
