<svg width="24" height="29" viewBox="0 0 24 29" fill="none" xmlns="http://www.w3.org/2000/svg">
<path d="M12 12.8989C10.674 12.8989 9.40218 12.3248 8.4645 11.3028C7.52682 10.2808 7.00003 8.89475 7.00003 7.44946C7.00003 6.00418 7.52682 4.61808 8.4645 3.59611C9.40218 2.57414 10.674 2 12 2C13.3261 2 14.5979 2.57414 15.5356 3.59611C16.4733 4.61808 17 6.00418 17 7.44946C17 8.89475 16.4733 10.2808 15.5356 11.3028C14.5979 12.3248 13.3261 12.8989 12 12.8989Z" stroke="#2458B8" stroke-width="3" stroke-linecap="round"/>
<path d="M2 26.5227V25.1604C2 22.9925 2.79018 20.9134 4.1967 19.3804C5.60322 17.8475 7.51088 16.9863 9.5 16.9863H14.5C16.4891 16.9863 18.3968 17.8475 19.8033 19.3804C21.2098 20.9134 22 22.9925 22 25.1604V26.5227" stroke="#2458B8" stroke-width="3" stroke-linecap="round"/>
</svg>
