<svg width="22" height="31" viewBox="0 0 22 31" fill="none" xmlns="http://www.w3.org/2000/svg">
<path d="M14 20.7085H8C7.20435 20.7085 6.44129 21.053 5.87868 21.6662C5.31607 22.2793 5 23.111 5 23.9782V25.158C5 25.7102 5.44772 26.158 6 26.158C6.55228 26.158 7 25.7102 7 25.158V23.9782C7 23.6891 7.10536 23.4119 7.29289 23.2075C7.48043 23.0031 7.73478 22.8883 8 22.8883H14C14.2652 22.8883 14.5196 23.0031 14.7071 23.2075C14.8946 23.4119 15 23.6891 15 23.9782V25.158C15 25.7102 15.4477 26.158 16 26.158C16.5523 26.158 17 25.7102 17 25.158V23.9782C17 23.111 16.6839 22.2793 16.1213 21.6662C15.5587 21.053 14.7956 20.7085 14 20.7085Z" fill="#DBB700"/>
<path d="M10.9999 19.6182C11.7911 19.6182 12.5644 19.3625 13.2222 18.8834C13.88 18.4044 14.3927 17.7235 14.6955 16.9269C14.9982 16.1303 15.0774 15.2537 14.9231 14.408C14.7687 13.5623 14.3878 12.7855 13.8284 12.1758C13.269 11.5661 12.5562 11.1509 11.7803 10.9827C11.0044 10.8145 10.2001 10.9008 9.4692 11.2308C8.7383 11.5608 8.11359 12.1195 7.67406 12.8365C7.23454 13.5534 6.99994 14.3963 6.99994 15.2585C6.99994 16.4148 7.42137 17.5237 8.17151 18.3413C8.92166 19.1588 9.93907 19.6182 10.9999 19.6182ZM10.9999 13.0787C11.3955 13.0787 11.7822 13.2066 12.1111 13.4461C12.44 13.6856 12.6963 14.0261 12.8477 14.4244C12.9991 14.8227 13.0387 15.261 12.9615 15.6838C12.8843 16.1066 12.6939 16.4951 12.4142 16.7999C12.1344 17.1048 11.7781 17.3124 11.3901 17.3965C11.0022 17.4806 10.6 17.4374 10.2346 17.2724C9.86912 17.1074 9.55676 16.8281 9.337 16.4696C9.11724 16.1111 8.99994 15.6897 8.99994 15.2585C8.99994 14.6804 9.21065 14.126 9.58573 13.7172C9.9608 13.3084 10.4695 13.0787 10.9999 13.0787Z" fill="#DBB700"/>
<path d="M20 3.26969H17V2.17979C17 1.60168 16.7893 1.04724 16.4142 0.638446C16.0391 0.229656 15.5304 0 15 0H7C6.46957 0 5.96086 0.229656 5.58579 0.638446C5.21071 1.04724 5 1.60168 5 2.17979V3.26969H2C1.46957 3.26969 0.960859 3.49934 0.585786 3.90813C0.210714 4.31692 0 4.87136 0 5.44948V28.3373C0 28.9154 0.210714 29.4699 0.585786 29.8786C0.960859 30.2874 1.46957 30.5171 2 30.5171H20C20.5304 30.5171 21.0391 30.2874 21.4142 29.8786C21.7893 29.4699 22 28.9154 22 28.3373V5.44948C22 4.87136 21.7893 4.31692 21.4142 3.90813C21.0391 3.49934 20.5304 3.26969 20 3.26969ZM7 2.17979H15V6.53938H7V2.17979ZM20 27.3373C20 27.8896 19.5523 28.3373 19 28.3373H3C2.44772 28.3373 2 27.8896 2 27.3373V6.44948C2 5.89719 2.44772 5.44948 3 5.44948H5V6.71917C5 7.82374 5.89543 8.71917 7 8.71917H15C16.1046 8.71917 17 7.82374 17 6.71917V5.44948H19C19.5523 5.44948 20 5.8972 20 6.44948V27.3373Z" fill="#DBB700"/>
</svg>
